<?xml version="1.0" encoding="utf-8" standalone="no"?>
<!DOCTYPE svg PUBLIC "-//W3C//DTD SVG 1.1//EN"
  "http://www.w3.org/Graphics/SVG/1.1/DTD/svg11.dtd">
<svg xmlns:xlink="http://www.w3.org/1999/xlink" width="616.9845pt" height="331.3795pt" viewBox="0 0 616.9845 331.3795" xmlns="http://www.w3.org/2000/svg" version="1.1">
 <metadata>
  <rdf:RDF xmlns:dc="http://purl.org/dc/elements/1.1/" xmlns:cc="http://creativecommons.org/ns#" xmlns:rdf="http://www.w3.org/1999/02/22-rdf-syntax-ns#">
   <cc:Work>
    <dc:type rdf:resource="http://purl.org/dc/dcmitype/StillImage"/>
    <dc:date>2022-11-15T09:42:17.104591</dc:date>
    <dc:format>image/svg+xml</dc:format>
    <dc:creator>
     <cc:Agent>
      <dc:title>Matplotlib v3.5.2, https://matplotlib.org/</dc:title>
     </cc:Agent>
    </dc:creator>
   </cc:Work>
  </rdf:RDF>
 </metadata>
 <defs>
  <style type="text/css">*{stroke-linejoin: round; stroke-linecap: butt}</style>
 </defs>
 <g id="figure_1">
  <g id="patch_1">
   <path d="M 0 331.3795 
L 616.9845 331.3795 
L 616.9845 0 
L 0 0 
z
" style="fill: #ffffff"/>
  </g>
  <g id="axes_1">
   <g id="patch_2">
    <path d="M 272.6595 112.8945 
L 388.9095 112.8945 
L 388.9095 20.4945 
L 272.6595 20.4945 
z
" style="fill: #ffffff"/>
   </g>
   <g id="line2d_1">
    <path d="M 272.6595 108.642111 
L 277.309035 108.645091 
L 277.47132 80.608367 
L 277.79031 38.798753 
L 278.05443 28.631721 
L 278.312505 25.793106 
L 278.57151 24.997089 
L 278.857485 24.767345 
L 279.37038 24.700525 
L 283.686045 24.694818 
L 323.809035 24.69483 
L 323.8095 101.18449 
L 323.92017 93.199369 
L 324.18894 103.900952 
L 324.45771 107.187943 
L 324.72834 108.199843 
L 325.016175 108.517532 
L 325.43793 108.622641 
L 326.967315 108.642094 
L 388.909965 108.642105 
L 388.909965 108.642105 
" clip-path="url(#p616d1f507c)" style="fill: none; stroke: #440154; stroke-width: 1.5; stroke-linecap: square"/>
   </g>
   <g id="line2d_2">
    <path d="M 272.6595 108.642083 
L 277.309035 108.645077 
L 277.47132 80.610673 
L 277.79031 38.805471 
L 278.05443 28.640335 
L 278.312505 25.802926 
L 278.571045 25.008555 
L 278.856555 24.779319 
L 279.368055 24.713501 
L 283.80369 24.712453 
L 323.809035 24.716349 
L 323.8095 101.186408 
L 323.92017 93.203419 
L 324.18894 103.902196 
L 324.45771 107.188225 
L 324.72834 108.199538 
L 325.01664 108.517408 
L 325.43979 108.622591 
L 326.97708 108.641945 
L 388.909965 108.642103 
L 388.909965 108.642103 
" clip-path="url(#p616d1f507c)" style="fill: none; stroke: #482878; stroke-width: 1.5; stroke-linecap: square"/>
   </g>
   <g id="line2d_3">
    <path d="M 272.6595 108.641849 
L 277.309035 108.644936 
L 277.470855 80.726587 
L 277.79031 38.871528 
L 278.05443 28.722828 
L 278.31204 25.900874 
L 278.569185 25.117423 
L 278.85237 24.895708 
L 279.35736 24.841254 
L 288.649455 24.905191 
L 323.809035 24.930325 
L 323.8095 101.205481 
L 323.92017 93.243752 
L 324.18894 103.916097 
L 324.45771 107.19194 
L 324.72834 108.200543 
L 325.01664 108.517038 
L 325.441185 108.621766 
L 326.99475 108.641069 
L 388.909965 108.642085 
L 388.909965 108.642085 
" clip-path="url(#p616d1f507c)" style="fill: none; stroke: #3e4989; stroke-width: 1.5; stroke-linecap: square"/>
   </g>
   <g id="line2d_4">
    <path d="M 272.6595 108.633961 
L 277.309035 108.639928 
L 277.456905 84.237376 
L 277.783335 41.596844 
L 278.0442 31.84071 
L 278.29158 29.35346 
L 278.518035 28.841838 
L 278.72496 28.832054 
L 279.1416 29.121106 
L 280.26318 29.870551 
L 281.450325 30.367743 
L 283.08015 30.79228 
L 285.466065 31.166106 
L 289.06842 31.488823 
L 294.65121 31.747997 
L 304.866795 31.965135 
L 323.809035 32.179376 
L 323.8095 101.851657 
L 323.92017 94.607147 
L 324.188475 104.325972 
L 324.45678 107.295708 
L 324.72741 108.206198 
L 325.02036 108.493593 
L 325.47699 108.589007 
L 327.46161 108.612763 
L 362.10039 108.640588 
L 388.909965 108.64137 
L 388.909965 108.64137 
" clip-path="url(#p616d1f507c)" style="fill: none; stroke: #31688e; stroke-width: 1.5; stroke-linecap: square"/>
   </g>
   <g id="line2d_5">
    <path d="M 272.6595 108.592576 
L 277.309035 108.61416 
L 277.433655 91.948687 
L 277.760085 56.315021 
L 277.99026 50.467647 
L 278.107905 50.024788 
L 278.148825 50.070028 
L 278.272515 50.573555 
L 278.677065 53.495502 
L 279.33411 57.53989 
L 279.936285 59.915764 
L 280.573335 61.563481 
L 281.27409 62.778943 
L 282.080865 63.73636 
L 283.059225 64.548082 
L 284.27892 65.265526 
L 285.84039 65.917619 
L 287.81013 66.491695 
L 290.30997 66.977892 
L 293.682615 67.39497 
L 298.630215 67.763687 
L 307.308975 68.160094 
L 323.764395 68.664833 
L 323.809035 68.665985 
L 323.8095 105.104047 
L 323.92017 101.462663 
L 324.1815 106.383246 
L 324.44376 107.8202 
L 324.71625 108.249546 
L 325.076625 108.391166 
L 326.092185 108.448261 
L 335.01414 108.576775 
L 358.155795 108.630954 
L 388.909965 108.637666 
L 388.909965 108.637666 
" clip-path="url(#p616d1f507c)" style="fill: none; stroke: #26828e; stroke-width: 1.5; stroke-linecap: square"/>
   </g>
   <g id="line2d_6">
    <path d="M 272.6595 108.579437 
L 277.309035 108.605073 
L 277.4304 93.595249 
L 277.7466 62.384635 
L 277.957245 58.23406 
L 278.00235 58.157652 
L 278.058615 58.285359 
L 278.205555 59.349662 
L 279.40851 69.726813 
L 279.949305 71.915576 
L 280.527765 73.375411 
L 281.171325 74.415835 
L 281.95392 75.252905 
L 282.94437 75.978774 
L 284.237535 76.641316 
L 285.911535 77.241621 
L 288.01287 77.753166 
L 290.767995 78.181126 
L 294.65493 78.544875 
L 300.989625 78.885291 
L 313.52649 79.301325 
L 323.809035 79.555558 
L 323.8095 106.074736 
L 323.92017 103.50541 
L 324.176385 106.995554 
L 324.43446 107.98326 
L 324.71346 108.274946 
L 325.15986 108.373132 
L 327.526245 108.450549 
L 337.363785 108.578215 
L 363.40704 108.630742 
L 388.909965 108.636495 
L 388.909965 108.636495 
" clip-path="url(#p616d1f507c)" style="fill: none; stroke: #1f9e89; stroke-width: 1.5; stroke-linecap: square"/>
   </g>
   <g id="line2d_7">
    <path d="M 272.6595 108.564274 
L 277.309035 108.593018 
L 277.42761 95.612841 
L 277.719165 71.876845 
L 277.865175 70.014582 
L 277.89261 70.061856 
L 277.98468 70.762622 
L 278.283675 75.326525 
L 278.80494 81.960891 
L 279.240645 84.883645 
L 279.687045 86.487895 
L 280.1739 87.454152 
L 280.758405 88.126442 
L 281.55588 88.690458 
L 282.75837 89.252628 
L 284.4519 89.790047 
L 286.638795 90.241504 
L 289.5204 90.598115 
L 293.841645 90.889118 
L 301.63644 91.158821 
L 319.67193 91.518855 
L 323.809035 91.581768 
L 323.8095 107.146743 
L 323.92017 105.753657 
L 324.165225 107.67649 
L 324.41679 108.179341 
L 324.733455 108.323384 
L 325.642065 108.379735 
L 334.263165 108.537439 
L 353.045445 108.61741 
L 388.909965 108.635124 
L 388.909965 108.635124 
" clip-path="url(#p616d1f507c)" style="fill: none; stroke: #35b779; stroke-width: 1.5; stroke-linecap: square"/>
   </g>
   <g id="line2d_8">
    <path d="M 272.6595 108.586256 
L 277.309035 108.596136 
L 277.42296 104.005008 
L 277.549905 102.308324 
L 277.587105 102.397886 
L 277.72707 103.541063 
L 278.078145 105.826708 
L 278.35482 106.355168 
L 278.68962 106.523436 
L 279.509415 106.596484 
L 284.855055 106.723727 
L 299.41374 106.78967 
L 323.809035 106.821664 
L 323.8095 108.505215 
L 323.92017 108.482203 
L 324.12756 108.544551 
L 327.773625 108.560995 
L 378.245655 108.628867 
L 388.909965 108.632592 
L 388.909965 108.632592 
" clip-path="url(#p616d1f507c)" style="fill: none; stroke: #6ece58; stroke-width: 1.5; stroke-linecap: square"/>
   </g>
   <g id="line2d_9">
    <path d="M 272.6595 108.656104 
L 277.309035 108.656364 
L 277.4211 108.369471 
L 277.64058 108.407141 
L 278.26461 108.494795 
L 282.596085 108.50014 
L 323.809035 108.500295 
L 323.92017 108.655292 
L 349.368225 108.656691 
L 388.909965 108.657835 
L 388.909965 108.657835 
" clip-path="url(#p616d1f507c)" style="fill: none; stroke: #b5de2b; stroke-width: 1.5; stroke-linecap: square"/>
   </g>
   <g id="matplotlib.axis_1">
    <g id="xtick_1">
     <g id="line2d_10">
      <defs>
       <path id="m953707ac26" d="M 0 0 
L 0 3.5 
" style="stroke: #000000; stroke-width: 0.8"/>
      </defs>
      <g>
       <use xlink:href="#m953707ac26" x="272.6595" y="112.8945" style="stroke: #000000; stroke-width: 0.8"/>
      </g>
     </g>
     <g id="text_1">
      <!-- 0 -->
      <g transform="translate(270.1145 125.97325)scale(0.08 -0.08)">
       <defs>
        <path id="DejaVuSans-30" d="M 2034 4250 
Q 1547 4250 1301 3770 
Q 1056 3291 1056 2328 
Q 1056 1369 1301 889 
Q 1547 409 2034 409 
Q 2525 409 2770 889 
Q 3016 1369 3016 2328 
Q 3016 3291 2770 3770 
Q 2525 4250 2034 4250 
z
M 2034 4750 
Q 2819 4750 3233 4129 
Q 3647 3509 3647 2328 
Q 3647 1150 3233 529 
Q 2819 -91 2034 -91 
Q 1250 -91 836 529 
Q 422 1150 422 2328 
Q 422 3509 836 4129 
Q 1250 4750 2034 4750 
z
" transform="scale(0.015625)"/>
       </defs>
       <use xlink:href="#DejaVuSans-30"/>
      </g>
     </g>
    </g>
    <g id="xtick_2">
     <g id="line2d_11">
      <g>
       <use xlink:href="#m953707ac26" x="295.9095" y="112.8945" style="stroke: #000000; stroke-width: 0.8"/>
      </g>
     </g>
     <g id="text_2">
      <!-- 5 -->
      <g transform="translate(293.3645 125.97325)scale(0.08 -0.08)">
       <defs>
        <path id="DejaVuSans-35" d="M 691 4666 
L 3169 4666 
L 3169 4134 
L 1269 4134 
L 1269 2991 
Q 1406 3038 1543 3061 
Q 1681 3084 1819 3084 
Q 2600 3084 3056 2656 
Q 3513 2228 3513 1497 
Q 3513 744 3044 326 
Q 2575 -91 1722 -91 
Q 1428 -91 1123 -41 
Q 819 9 494 109 
L 494 744 
Q 775 591 1075 516 
Q 1375 441 1709 441 
Q 2250 441 2565 725 
Q 2881 1009 2881 1497 
Q 2881 1984 2565 2268 
Q 2250 2553 1709 2553 
Q 1456 2553 1204 2497 
Q 953 2441 691 2322 
L 691 4666 
z
" transform="scale(0.015625)"/>
       </defs>
       <use xlink:href="#DejaVuSans-35"/>
      </g>
     </g>
    </g>
    <g id="xtick_3">
     <g id="line2d_12">
      <g>
       <use xlink:href="#m953707ac26" x="319.1595" y="112.8945" style="stroke: #000000; stroke-width: 0.8"/>
      </g>
     </g>
     <g id="text_3">
      <!-- 10 -->
      <g transform="translate(314.0695 125.97325)scale(0.08 -0.08)">
       <defs>
        <path id="DejaVuSans-31" d="M 794 531 
L 1825 531 
L 1825 4091 
L 703 3866 
L 703 4441 
L 1819 4666 
L 2450 4666 
L 2450 531 
L 3481 531 
L 3481 0 
L 794 0 
L 794 531 
z
" transform="scale(0.015625)"/>
       </defs>
       <use xlink:href="#DejaVuSans-31"/>
       <use xlink:href="#DejaVuSans-30" x="63.623047"/>
      </g>
     </g>
    </g>
    <g id="xtick_4">
     <g id="line2d_13">
      <g>
       <use xlink:href="#m953707ac26" x="342.4095" y="112.8945" style="stroke: #000000; stroke-width: 0.8"/>
      </g>
     </g>
     <g id="text_4">
      <!-- 15 -->
      <g transform="translate(337.3195 125.97325)scale(0.08 -0.08)">
       <use xlink:href="#DejaVuSans-31"/>
       <use xlink:href="#DejaVuSans-35" x="63.623047"/>
      </g>
     </g>
    </g>
    <g id="xtick_5">
     <g id="line2d_14">
      <g>
       <use xlink:href="#m953707ac26" x="365.6595" y="112.8945" style="stroke: #000000; stroke-width: 0.8"/>
      </g>
     </g>
     <g id="text_5">
      <!-- 20 -->
      <g transform="translate(360.5695 125.97325)scale(0.08 -0.08)">
       <defs>
        <path id="DejaVuSans-32" d="M 1228 531 
L 3431 531 
L 3431 0 
L 469 0 
L 469 531 
Q 828 903 1448 1529 
Q 2069 2156 2228 2338 
Q 2531 2678 2651 2914 
Q 2772 3150 2772 3378 
Q 2772 3750 2511 3984 
Q 2250 4219 1831 4219 
Q 1534 4219 1204 4116 
Q 875 4013 500 3803 
L 500 4441 
Q 881 4594 1212 4672 
Q 1544 4750 1819 4750 
Q 2544 4750 2975 4387 
Q 3406 4025 3406 3419 
Q 3406 3131 3298 2873 
Q 3191 2616 2906 2266 
Q 2828 2175 2409 1742 
Q 1991 1309 1228 531 
z
" transform="scale(0.015625)"/>
       </defs>
       <use xlink:href="#DejaVuSans-32"/>
       <use xlink:href="#DejaVuSans-30" x="63.623047"/>
      </g>
     </g>
    </g>
    <g id="xtick_6">
     <g id="line2d_15">
      <g>
       <use xlink:href="#m953707ac26" x="388.9095" y="112.8945" style="stroke: #000000; stroke-width: 0.8"/>
      </g>
     </g>
     <g id="text_6">
      <!-- 25 -->
      <g transform="translate(383.8195 125.97325)scale(0.08 -0.08)">
       <use xlink:href="#DejaVuSans-32"/>
       <use xlink:href="#DejaVuSans-35" x="63.623047"/>
      </g>
     </g>
    </g>
    <g id="text_7">
     <!-- Time (s) -->
     <g transform="translate(314.521375 137.71575)scale(0.08 -0.08)">
      <defs>
       <path id="DejaVuSans-54" d="M -19 4666 
L 3928 4666 
L 3928 4134 
L 2272 4134 
L 2272 0 
L 1638 0 
L 1638 4134 
L -19 4134 
L -19 4666 
z
" transform="scale(0.015625)"/>
       <path id="DejaVuSans-69" d="M 603 3500 
L 1178 3500 
L 1178 0 
L 603 0 
L 603 3500 
z
M 603 4863 
L 1178 4863 
L 1178 4134 
L 603 4134 
L 603 4863 
z
" transform="scale(0.015625)"/>
       <path id="DejaVuSans-6d" d="M 3328 2828 
Q 3544 3216 3844 3400 
Q 4144 3584 4550 3584 
Q 5097 3584 5394 3201 
Q 5691 2819 5691 2113 
L 5691 0 
L 5113 0 
L 5113 2094 
Q 5113 2597 4934 2840 
Q 4756 3084 4391 3084 
Q 3944 3084 3684 2787 
Q 3425 2491 3425 1978 
L 3425 0 
L 2847 0 
L 2847 2094 
Q 2847 2600 2669 2842 
Q 2491 3084 2119 3084 
Q 1678 3084 1418 2786 
Q 1159 2488 1159 1978 
L 1159 0 
L 581 0 
L 581 3500 
L 1159 3500 
L 1159 2956 
Q 1356 3278 1631 3431 
Q 1906 3584 2284 3584 
Q 2666 3584 2933 3390 
Q 3200 3197 3328 2828 
z
" transform="scale(0.015625)"/>
       <path id="DejaVuSans-65" d="M 3597 1894 
L 3597 1613 
L 953 1613 
Q 991 1019 1311 708 
Q 1631 397 2203 397 
Q 2534 397 2845 478 
Q 3156 559 3463 722 
L 3463 178 
Q 3153 47 2828 -22 
Q 2503 -91 2169 -91 
Q 1331 -91 842 396 
Q 353 884 353 1716 
Q 353 2575 817 3079 
Q 1281 3584 2069 3584 
Q 2775 3584 3186 3129 
Q 3597 2675 3597 1894 
z
M 3022 2063 
Q 3016 2534 2758 2815 
Q 2500 3097 2075 3097 
Q 1594 3097 1305 2825 
Q 1016 2553 972 2059 
L 3022 2063 
z
" transform="scale(0.015625)"/>
       <path id="DejaVuSans-20" transform="scale(0.015625)"/>
       <path id="DejaVuSans-28" d="M 1984 4856 
Q 1566 4138 1362 3434 
Q 1159 2731 1159 2009 
Q 1159 1288 1364 580 
Q 1569 -128 1984 -844 
L 1484 -844 
Q 1016 -109 783 600 
Q 550 1309 550 2009 
Q 550 2706 781 3412 
Q 1013 4119 1484 4856 
L 1984 4856 
z
" transform="scale(0.015625)"/>
       <path id="DejaVuSans-73" d="M 2834 3397 
L 2834 2853 
Q 2591 2978 2328 3040 
Q 2066 3103 1784 3103 
Q 1356 3103 1142 2972 
Q 928 2841 928 2578 
Q 928 2378 1081 2264 
Q 1234 2150 1697 2047 
L 1894 2003 
Q 2506 1872 2764 1633 
Q 3022 1394 3022 966 
Q 3022 478 2636 193 
Q 2250 -91 1575 -91 
Q 1294 -91 989 -36 
Q 684 19 347 128 
L 347 722 
Q 666 556 975 473 
Q 1284 391 1588 391 
Q 1994 391 2212 530 
Q 2431 669 2431 922 
Q 2431 1156 2273 1281 
Q 2116 1406 1581 1522 
L 1381 1569 
Q 847 1681 609 1914 
Q 372 2147 372 2553 
Q 372 3047 722 3315 
Q 1072 3584 1716 3584 
Q 2034 3584 2315 3537 
Q 2597 3491 2834 3397 
z
" transform="scale(0.015625)"/>
       <path id="DejaVuSans-29" d="M 513 4856 
L 1013 4856 
Q 1481 4119 1714 3412 
Q 1947 2706 1947 2009 
Q 1947 1309 1714 600 
Q 1481 -109 1013 -844 
L 513 -844 
Q 928 -128 1133 580 
Q 1338 1288 1338 2009 
Q 1338 2731 1133 3434 
Q 928 4138 513 4856 
z
" transform="scale(0.015625)"/>
      </defs>
      <use xlink:href="#DejaVuSans-54"/>
      <use xlink:href="#DejaVuSans-69" x="57.958984"/>
      <use xlink:href="#DejaVuSans-6d" x="85.742188"/>
      <use xlink:href="#DejaVuSans-65" x="183.154297"/>
      <use xlink:href="#DejaVuSans-20" x="244.677734"/>
      <use xlink:href="#DejaVuSans-28" x="276.464844"/>
      <use xlink:href="#DejaVuSans-73" x="315.478516"/>
      <use xlink:href="#DejaVuSans-29" x="367.578125"/>
     </g>
    </g>
   </g>
   <g id="matplotlib.axis_2">
    <g id="ytick_1">
     <g id="line2d_16">
      <defs>
       <path id="mbc45092cf7" d="M 0 0 
L -3.5 0 
" style="stroke: #000000; stroke-width: 0.8"/>
      </defs>
      <g>
       <use xlink:href="#mbc45092cf7" x="272.6595" y="108.669972" style="stroke: #000000; stroke-width: 0.8"/>
      </g>
     </g>
     <g id="text_8">
      <!-- 0.0 -->
      <g transform="translate(252.937 111.709347)scale(0.08 -0.08)">
       <defs>
        <path id="DejaVuSans-2e" d="M 684 794 
L 1344 794 
L 1344 0 
L 684 0 
L 684 794 
z
" transform="scale(0.015625)"/>
       </defs>
       <use xlink:href="#DejaVuSans-30"/>
       <use xlink:href="#DejaVuSans-2e" x="63.623047"/>
       <use xlink:href="#DejaVuSans-30" x="95.410156"/>
      </g>
     </g>
    </g>
    <g id="ytick_2">
     <g id="line2d_17">
      <g>
       <use xlink:href="#mbc45092cf7" x="272.6595" y="86.040418" style="stroke: #000000; stroke-width: 0.8"/>
      </g>
     </g>
     <g id="text_9">
      <!-- 0.2 -->
      <g transform="translate(252.937 89.079793)scale(0.08 -0.08)">
       <use xlink:href="#DejaVuSans-30"/>
       <use xlink:href="#DejaVuSans-2e" x="63.623047"/>
       <use xlink:href="#DejaVuSans-32" x="95.410156"/>
      </g>
     </g>
    </g>
    <g id="ytick_3">
     <g id="line2d_18">
      <g>
       <use xlink:href="#mbc45092cf7" x="272.6595" y="63.410863" style="stroke: #000000; stroke-width: 0.8"/>
      </g>
     </g>
     <g id="text_10">
      <!-- 0.4 -->
      <g transform="translate(252.937 66.450238)scale(0.08 -0.08)">
       <defs>
        <path id="DejaVuSans-34" d="M 2419 4116 
L 825 1625 
L 2419 1625 
L 2419 4116 
z
M 2253 4666 
L 3047 4666 
L 3047 1625 
L 3713 1625 
L 3713 1100 
L 3047 1100 
L 3047 0 
L 2419 0 
L 2419 1100 
L 313 1100 
L 313 1709 
L 2253 4666 
z
" transform="scale(0.015625)"/>
       </defs>
       <use xlink:href="#DejaVuSans-30"/>
       <use xlink:href="#DejaVuSans-2e" x="63.623047"/>
       <use xlink:href="#DejaVuSans-34" x="95.410156"/>
      </g>
     </g>
    </g>
    <g id="ytick_4">
     <g id="line2d_19">
      <g>
       <use xlink:href="#mbc45092cf7" x="272.6595" y="40.781309" style="stroke: #000000; stroke-width: 0.8"/>
      </g>
     </g>
     <g id="text_11">
      <!-- 0.6 -->
      <g transform="translate(252.937 43.820684)scale(0.08 -0.08)">
       <defs>
        <path id="DejaVuSans-36" d="M 2113 2584 
Q 1688 2584 1439 2293 
Q 1191 2003 1191 1497 
Q 1191 994 1439 701 
Q 1688 409 2113 409 
Q 2538 409 2786 701 
Q 3034 994 3034 1497 
Q 3034 2003 2786 2293 
Q 2538 2584 2113 2584 
z
M 3366 4563 
L 3366 3988 
Q 3128 4100 2886 4159 
Q 2644 4219 2406 4219 
Q 1781 4219 1451 3797 
Q 1122 3375 1075 2522 
Q 1259 2794 1537 2939 
Q 1816 3084 2150 3084 
Q 2853 3084 3261 2657 
Q 3669 2231 3669 1497 
Q 3669 778 3244 343 
Q 2819 -91 2113 -91 
Q 1303 -91 875 529 
Q 447 1150 447 2328 
Q 447 3434 972 4092 
Q 1497 4750 2381 4750 
Q 2619 4750 2861 4703 
Q 3103 4656 3366 4563 
z
" transform="scale(0.015625)"/>
       </defs>
       <use xlink:href="#DejaVuSans-30"/>
       <use xlink:href="#DejaVuSans-2e" x="63.623047"/>
       <use xlink:href="#DejaVuSans-36" x="95.410156"/>
      </g>
     </g>
    </g>
    <g id="text_12">
     <!-- Current (A/F) -->
     <g transform="translate(247.27325 92.492625)rotate(-90)scale(0.08 -0.08)">
      <defs>
       <path id="DejaVuSans-43" d="M 4122 4306 
L 4122 3641 
Q 3803 3938 3442 4084 
Q 3081 4231 2675 4231 
Q 1875 4231 1450 3742 
Q 1025 3253 1025 2328 
Q 1025 1406 1450 917 
Q 1875 428 2675 428 
Q 3081 428 3442 575 
Q 3803 722 4122 1019 
L 4122 359 
Q 3791 134 3420 21 
Q 3050 -91 2638 -91 
Q 1578 -91 968 557 
Q 359 1206 359 2328 
Q 359 3453 968 4101 
Q 1578 4750 2638 4750 
Q 3056 4750 3426 4639 
Q 3797 4528 4122 4306 
z
" transform="scale(0.015625)"/>
       <path id="DejaVuSans-75" d="M 544 1381 
L 544 3500 
L 1119 3500 
L 1119 1403 
Q 1119 906 1312 657 
Q 1506 409 1894 409 
Q 2359 409 2629 706 
Q 2900 1003 2900 1516 
L 2900 3500 
L 3475 3500 
L 3475 0 
L 2900 0 
L 2900 538 
Q 2691 219 2414 64 
Q 2138 -91 1772 -91 
Q 1169 -91 856 284 
Q 544 659 544 1381 
z
M 1991 3584 
L 1991 3584 
z
" transform="scale(0.015625)"/>
       <path id="DejaVuSans-72" d="M 2631 2963 
Q 2534 3019 2420 3045 
Q 2306 3072 2169 3072 
Q 1681 3072 1420 2755 
Q 1159 2438 1159 1844 
L 1159 0 
L 581 0 
L 581 3500 
L 1159 3500 
L 1159 2956 
Q 1341 3275 1631 3429 
Q 1922 3584 2338 3584 
Q 2397 3584 2469 3576 
Q 2541 3569 2628 3553 
L 2631 2963 
z
" transform="scale(0.015625)"/>
       <path id="DejaVuSans-6e" d="M 3513 2113 
L 3513 0 
L 2938 0 
L 2938 2094 
Q 2938 2591 2744 2837 
Q 2550 3084 2163 3084 
Q 1697 3084 1428 2787 
Q 1159 2491 1159 1978 
L 1159 0 
L 581 0 
L 581 3500 
L 1159 3500 
L 1159 2956 
Q 1366 3272 1645 3428 
Q 1925 3584 2291 3584 
Q 2894 3584 3203 3211 
Q 3513 2838 3513 2113 
z
" transform="scale(0.015625)"/>
       <path id="DejaVuSans-74" d="M 1172 4494 
L 1172 3500 
L 2356 3500 
L 2356 3053 
L 1172 3053 
L 1172 1153 
Q 1172 725 1289 603 
Q 1406 481 1766 481 
L 2356 481 
L 2356 0 
L 1766 0 
Q 1100 0 847 248 
Q 594 497 594 1153 
L 594 3053 
L 172 3053 
L 172 3500 
L 594 3500 
L 594 4494 
L 1172 4494 
z
" transform="scale(0.015625)"/>
       <path id="DejaVuSans-41" d="M 2188 4044 
L 1331 1722 
L 3047 1722 
L 2188 4044 
z
M 1831 4666 
L 2547 4666 
L 4325 0 
L 3669 0 
L 3244 1197 
L 1141 1197 
L 716 0 
L 50 0 
L 1831 4666 
z
" transform="scale(0.015625)"/>
       <path id="DejaVuSans-2f" d="M 1625 4666 
L 2156 4666 
L 531 -594 
L 0 -594 
L 1625 4666 
z
" transform="scale(0.015625)"/>
       <path id="DejaVuSans-46" d="M 628 4666 
L 3309 4666 
L 3309 4134 
L 1259 4134 
L 1259 2759 
L 3109 2759 
L 3109 2228 
L 1259 2228 
L 1259 0 
L 628 0 
L 628 4666 
z
" transform="scale(0.015625)"/>
      </defs>
      <use xlink:href="#DejaVuSans-43"/>
      <use xlink:href="#DejaVuSans-75" x="69.824219"/>
      <use xlink:href="#DejaVuSans-72" x="133.203125"/>
      <use xlink:href="#DejaVuSans-72" x="172.566406"/>
      <use xlink:href="#DejaVuSans-65" x="211.429688"/>
      <use xlink:href="#DejaVuSans-6e" x="272.953125"/>
      <use xlink:href="#DejaVuSans-74" x="336.332031"/>
      <use xlink:href="#DejaVuSans-20" x="375.541016"/>
      <use xlink:href="#DejaVuSans-28" x="407.328125"/>
      <use xlink:href="#DejaVuSans-41" x="446.341797"/>
      <use xlink:href="#DejaVuSans-2f" x="514.75"/>
      <use xlink:href="#DejaVuSans-46" x="548.441406"/>
      <use xlink:href="#DejaVuSans-29" x="605.960938"/>
     </g>
    </g>
   </g>
   <g id="line2d_20">
    <defs>
     <path id="mca97e936e3" d="M -3 3 
L 3 -3 
M -3 -3 
L 3 3 
" style="stroke: #000000"/>
    </defs>
    <g clip-path="url(#p616d1f507c)">
     <use xlink:href="#mca97e936e3" x="280.05393" y="24.709191" style="stroke: #000000"/>
     <use xlink:href="#mca97e936e3" x="279.40572" y="24.841134" style="stroke: #000000"/>
     <use xlink:href="#mca97e936e3" x="278.6208" y="28.808914" style="stroke: #000000"/>
     <use xlink:href="#mca97e936e3" x="278.106045" y="50.02468" style="stroke: #000000"/>
     <use xlink:href="#mca97e936e3" x="277.999095" y="58.157232" style="stroke: #000000"/>
     <use xlink:href="#mca97e936e3" x="277.865175" y="70.014582" style="stroke: #000000"/>
     <use xlink:href="#mca97e936e3" x="277.549905" y="102.308324" style="stroke: #000000"/>
     <use xlink:href="#mca97e936e3" x="277.464345" y="108.36211" style="stroke: #000000"/>
    </g>
   </g>
   <g id="patch_3">
    <path d="M 272.6595 112.8945 
L 272.6595 20.4945 
" style="fill: none; stroke: #000000; stroke-width: 0.8; stroke-linejoin: miter; stroke-linecap: square"/>
   </g>
   <g id="patch_4">
    <path d="M 272.6595 112.8945 
L 388.9095 112.8945 
" style="fill: none; stroke: #000000; stroke-width: 0.8; stroke-linejoin: miter; stroke-linecap: square"/>
   </g>
   <g id="text_13">
    <!-- State-dependent drug block -->
    <g transform="translate(263.48175 14.4945)scale(0.096 -0.096)">
     <defs>
      <path id="DejaVuSans-53" d="M 3425 4513 
L 3425 3897 
Q 3066 4069 2747 4153 
Q 2428 4238 2131 4238 
Q 1616 4238 1336 4038 
Q 1056 3838 1056 3469 
Q 1056 3159 1242 3001 
Q 1428 2844 1947 2747 
L 2328 2669 
Q 3034 2534 3370 2195 
Q 3706 1856 3706 1288 
Q 3706 609 3251 259 
Q 2797 -91 1919 -91 
Q 1588 -91 1214 -16 
Q 841 59 441 206 
L 441 856 
Q 825 641 1194 531 
Q 1563 422 1919 422 
Q 2459 422 2753 634 
Q 3047 847 3047 1241 
Q 3047 1584 2836 1778 
Q 2625 1972 2144 2069 
L 1759 2144 
Q 1053 2284 737 2584 
Q 422 2884 422 3419 
Q 422 4038 858 4394 
Q 1294 4750 2059 4750 
Q 2388 4750 2728 4690 
Q 3069 4631 3425 4513 
z
" transform="scale(0.015625)"/>
      <path id="DejaVuSans-61" d="M 2194 1759 
Q 1497 1759 1228 1600 
Q 959 1441 959 1056 
Q 959 750 1161 570 
Q 1363 391 1709 391 
Q 2188 391 2477 730 
Q 2766 1069 2766 1631 
L 2766 1759 
L 2194 1759 
z
M 3341 1997 
L 3341 0 
L 2766 0 
L 2766 531 
Q 2569 213 2275 61 
Q 1981 -91 1556 -91 
Q 1019 -91 701 211 
Q 384 513 384 1019 
Q 384 1609 779 1909 
Q 1175 2209 1959 2209 
L 2766 2209 
L 2766 2266 
Q 2766 2663 2505 2880 
Q 2244 3097 1772 3097 
Q 1472 3097 1187 3025 
Q 903 2953 641 2809 
L 641 3341 
Q 956 3463 1253 3523 
Q 1550 3584 1831 3584 
Q 2591 3584 2966 3190 
Q 3341 2797 3341 1997 
z
" transform="scale(0.015625)"/>
      <path id="DejaVuSans-2d" d="M 313 2009 
L 1997 2009 
L 1997 1497 
L 313 1497 
L 313 2009 
z
" transform="scale(0.015625)"/>
      <path id="DejaVuSans-64" d="M 2906 2969 
L 2906 4863 
L 3481 4863 
L 3481 0 
L 2906 0 
L 2906 525 
Q 2725 213 2448 61 
Q 2172 -91 1784 -91 
Q 1150 -91 751 415 
Q 353 922 353 1747 
Q 353 2572 751 3078 
Q 1150 3584 1784 3584 
Q 2172 3584 2448 3432 
Q 2725 3281 2906 2969 
z
M 947 1747 
Q 947 1113 1208 752 
Q 1469 391 1925 391 
Q 2381 391 2643 752 
Q 2906 1113 2906 1747 
Q 2906 2381 2643 2742 
Q 2381 3103 1925 3103 
Q 1469 3103 1208 2742 
Q 947 2381 947 1747 
z
" transform="scale(0.015625)"/>
      <path id="DejaVuSans-70" d="M 1159 525 
L 1159 -1331 
L 581 -1331 
L 581 3500 
L 1159 3500 
L 1159 2969 
Q 1341 3281 1617 3432 
Q 1894 3584 2278 3584 
Q 2916 3584 3314 3078 
Q 3713 2572 3713 1747 
Q 3713 922 3314 415 
Q 2916 -91 2278 -91 
Q 1894 -91 1617 61 
Q 1341 213 1159 525 
z
M 3116 1747 
Q 3116 2381 2855 2742 
Q 2594 3103 2138 3103 
Q 1681 3103 1420 2742 
Q 1159 2381 1159 1747 
Q 1159 1113 1420 752 
Q 1681 391 2138 391 
Q 2594 391 2855 752 
Q 3116 1113 3116 1747 
z
" transform="scale(0.015625)"/>
      <path id="DejaVuSans-67" d="M 2906 1791 
Q 2906 2416 2648 2759 
Q 2391 3103 1925 3103 
Q 1463 3103 1205 2759 
Q 947 2416 947 1791 
Q 947 1169 1205 825 
Q 1463 481 1925 481 
Q 2391 481 2648 825 
Q 2906 1169 2906 1791 
z
M 3481 434 
Q 3481 -459 3084 -895 
Q 2688 -1331 1869 -1331 
Q 1566 -1331 1297 -1286 
Q 1028 -1241 775 -1147 
L 775 -588 
Q 1028 -725 1275 -790 
Q 1522 -856 1778 -856 
Q 2344 -856 2625 -561 
Q 2906 -266 2906 331 
L 2906 616 
Q 2728 306 2450 153 
Q 2172 0 1784 0 
Q 1141 0 747 490 
Q 353 981 353 1791 
Q 353 2603 747 3093 
Q 1141 3584 1784 3584 
Q 2172 3584 2450 3431 
Q 2728 3278 2906 2969 
L 2906 3500 
L 3481 3500 
L 3481 434 
z
" transform="scale(0.015625)"/>
      <path id="DejaVuSans-62" d="M 3116 1747 
Q 3116 2381 2855 2742 
Q 2594 3103 2138 3103 
Q 1681 3103 1420 2742 
Q 1159 2381 1159 1747 
Q 1159 1113 1420 752 
Q 1681 391 2138 391 
Q 2594 391 2855 752 
Q 3116 1113 3116 1747 
z
M 1159 2969 
Q 1341 3281 1617 3432 
Q 1894 3584 2278 3584 
Q 2916 3584 3314 3078 
Q 3713 2572 3713 1747 
Q 3713 922 3314 415 
Q 2916 -91 2278 -91 
Q 1894 -91 1617 61 
Q 1341 213 1159 525 
L 1159 0 
L 581 0 
L 581 4863 
L 1159 4863 
L 1159 2969 
z
" transform="scale(0.015625)"/>
      <path id="DejaVuSans-6c" d="M 603 4863 
L 1178 4863 
L 1178 0 
L 603 0 
L 603 4863 
z
" transform="scale(0.015625)"/>
      <path id="DejaVuSans-6f" d="M 1959 3097 
Q 1497 3097 1228 2736 
Q 959 2375 959 1747 
Q 959 1119 1226 758 
Q 1494 397 1959 397 
Q 2419 397 2687 759 
Q 2956 1122 2956 1747 
Q 2956 2369 2687 2733 
Q 2419 3097 1959 3097 
z
M 1959 3584 
Q 2709 3584 3137 3096 
Q 3566 2609 3566 1747 
Q 3566 888 3137 398 
Q 2709 -91 1959 -91 
Q 1206 -91 779 398 
Q 353 888 353 1747 
Q 353 2609 779 3096 
Q 1206 3584 1959 3584 
z
" transform="scale(0.015625)"/>
      <path id="DejaVuSans-63" d="M 3122 3366 
L 3122 2828 
Q 2878 2963 2633 3030 
Q 2388 3097 2138 3097 
Q 1578 3097 1268 2742 
Q 959 2388 959 1747 
Q 959 1106 1268 751 
Q 1578 397 2138 397 
Q 2388 397 2633 464 
Q 2878 531 3122 666 
L 3122 134 
Q 2881 22 2623 -34 
Q 2366 -91 2075 -91 
Q 1284 -91 818 406 
Q 353 903 353 1747 
Q 353 2603 823 3093 
Q 1294 3584 2113 3584 
Q 2378 3584 2631 3529 
Q 2884 3475 3122 3366 
z
" transform="scale(0.015625)"/>
      <path id="DejaVuSans-6b" d="M 581 4863 
L 1159 4863 
L 1159 1991 
L 2875 3500 
L 3609 3500 
L 1753 1863 
L 3688 0 
L 2938 0 
L 1159 1709 
L 1159 0 
L 581 0 
L 581 4863 
z
" transform="scale(0.015625)"/>
     </defs>
     <use xlink:href="#DejaVuSans-53"/>
     <use xlink:href="#DejaVuSans-74" x="63.476562"/>
     <use xlink:href="#DejaVuSans-61" x="102.685547"/>
     <use xlink:href="#DejaVuSans-74" x="163.964844"/>
     <use xlink:href="#DejaVuSans-65" x="203.173828"/>
     <use xlink:href="#DejaVuSans-2d" x="264.697266"/>
     <use xlink:href="#DejaVuSans-64" x="300.78125"/>
     <use xlink:href="#DejaVuSans-65" x="364.257812"/>
     <use xlink:href="#DejaVuSans-70" x="425.78125"/>
     <use xlink:href="#DejaVuSans-65" x="489.257812"/>
     <use xlink:href="#DejaVuSans-6e" x="550.78125"/>
     <use xlink:href="#DejaVuSans-64" x="614.160156"/>
     <use xlink:href="#DejaVuSans-65" x="677.636719"/>
     <use xlink:href="#DejaVuSans-6e" x="739.160156"/>
     <use xlink:href="#DejaVuSans-74" x="802.539062"/>
     <use xlink:href="#DejaVuSans-20" x="841.748047"/>
     <use xlink:href="#DejaVuSans-64" x="873.535156"/>
     <use xlink:href="#DejaVuSans-72" x="937.011719"/>
     <use xlink:href="#DejaVuSans-75" x="978.125"/>
     <use xlink:href="#DejaVuSans-67" x="1041.503906"/>
     <use xlink:href="#DejaVuSans-20" x="1104.980469"/>
     <use xlink:href="#DejaVuSans-62" x="1136.767578"/>
     <use xlink:href="#DejaVuSans-6c" x="1200.244141"/>
     <use xlink:href="#DejaVuSans-6f" x="1228.027344"/>
     <use xlink:href="#DejaVuSans-63" x="1289.208984"/>
     <use xlink:href="#DejaVuSans-6b" x="1344.189453"/>
    </g>
   </g>
  </g>
  <g id="axes_2">
   <g id="patch_5">
    <path d="M 493.5345 112.8945 
L 609.7845 112.8945 
L 609.7845 20.4945 
L 493.5345 20.4945 
z
" style="fill: #ffffff"/>
   </g>
   <g id="matplotlib.axis_3">
    <g id="xtick_7">
     <g id="line2d_21">
      <g>
       <use xlink:href="#m953707ac26" x="516.432227" y="112.8945" style="stroke: #000000; stroke-width: 0.8"/>
      </g>
     </g>
     <g id="text_14">
      <!-- $\mathdefault{10^{0}}$ -->
      <g transform="translate(509.392227 125.97325)scale(0.08 -0.08)">
       <use xlink:href="#DejaVuSans-31" transform="translate(0 0.765625)"/>
       <use xlink:href="#DejaVuSans-30" transform="translate(63.623047 0.765625)"/>
       <use xlink:href="#DejaVuSans-30" transform="translate(128.203125 39.046875)scale(0.7)"/>
      </g>
     </g>
    </g>
    <g id="xtick_8">
     <g id="line2d_22">
      <g>
       <use xlink:href="#m953707ac26" x="551.6595" y="112.8945" style="stroke: #000000; stroke-width: 0.8"/>
      </g>
     </g>
     <g id="text_15">
      <!-- $\mathdefault{10^{2}}$ -->
      <g transform="translate(544.6195 125.97325)scale(0.08 -0.08)">
       <use xlink:href="#DejaVuSans-31" transform="translate(0 0.765625)"/>
       <use xlink:href="#DejaVuSans-30" transform="translate(63.623047 0.765625)"/>
       <use xlink:href="#DejaVuSans-32" transform="translate(128.203125 39.046875)scale(0.7)"/>
      </g>
     </g>
    </g>
    <g id="xtick_9">
     <g id="line2d_23">
      <g>
       <use xlink:href="#m953707ac26" x="586.886773" y="112.8945" style="stroke: #000000; stroke-width: 0.8"/>
      </g>
     </g>
     <g id="text_16">
      <!-- $\mathdefault{10^{4}}$ -->
      <g transform="translate(579.846773 125.97325)scale(0.08 -0.08)">
       <use xlink:href="#DejaVuSans-31" transform="translate(0 0.684375)"/>
       <use xlink:href="#DejaVuSans-30" transform="translate(63.623047 0.684375)"/>
       <use xlink:href="#DejaVuSans-34" transform="translate(128.203125 38.965625)scale(0.7)"/>
      </g>
     </g>
    </g>
    <g id="text_17">
     <!-- Drug concentration (nM) -->
     <g transform="translate(502.507625 137.71575)scale(0.08 -0.08)">
      <defs>
       <path id="DejaVuSans-44" d="M 1259 4147 
L 1259 519 
L 2022 519 
Q 2988 519 3436 956 
Q 3884 1394 3884 2338 
Q 3884 3275 3436 3711 
Q 2988 4147 2022 4147 
L 1259 4147 
z
M 628 4666 
L 1925 4666 
Q 3281 4666 3915 4102 
Q 4550 3538 4550 2338 
Q 4550 1131 3912 565 
Q 3275 0 1925 0 
L 628 0 
L 628 4666 
z
" transform="scale(0.015625)"/>
       <path id="DejaVuSans-4d" d="M 628 4666 
L 1569 4666 
L 2759 1491 
L 3956 4666 
L 4897 4666 
L 4897 0 
L 4281 0 
L 4281 4097 
L 3078 897 
L 2444 897 
L 1241 4097 
L 1241 0 
L 628 0 
L 628 4666 
z
" transform="scale(0.015625)"/>
      </defs>
      <use xlink:href="#DejaVuSans-44"/>
      <use xlink:href="#DejaVuSans-72" x="77.001953"/>
      <use xlink:href="#DejaVuSans-75" x="118.115234"/>
      <use xlink:href="#DejaVuSans-67" x="181.494141"/>
      <use xlink:href="#DejaVuSans-20" x="244.970703"/>
      <use xlink:href="#DejaVuSans-63" x="276.757812"/>
      <use xlink:href="#DejaVuSans-6f" x="331.738281"/>
      <use xlink:href="#DejaVuSans-6e" x="392.919922"/>
      <use xlink:href="#DejaVuSans-63" x="456.298828"/>
      <use xlink:href="#DejaVuSans-65" x="511.279297"/>
      <use xlink:href="#DejaVuSans-6e" x="572.802734"/>
      <use xlink:href="#DejaVuSans-74" x="636.181641"/>
      <use xlink:href="#DejaVuSans-72" x="675.390625"/>
      <use xlink:href="#DejaVuSans-61" x="716.503906"/>
      <use xlink:href="#DejaVuSans-74" x="777.783203"/>
      <use xlink:href="#DejaVuSans-69" x="816.992188"/>
      <use xlink:href="#DejaVuSans-6f" x="844.775391"/>
      <use xlink:href="#DejaVuSans-6e" x="905.957031"/>
      <use xlink:href="#DejaVuSans-20" x="969.335938"/>
      <use xlink:href="#DejaVuSans-28" x="1001.123047"/>
      <use xlink:href="#DejaVuSans-6e" x="1040.136719"/>
      <use xlink:href="#DejaVuSans-4d" x="1103.515625"/>
      <use xlink:href="#DejaVuSans-29" x="1189.794922"/>
     </g>
    </g>
   </g>
   <g id="matplotlib.axis_4">
    <g id="ytick_5">
     <g id="line2d_24">
      <g>
       <use xlink:href="#mbc45092cf7" x="493.5345" y="108.6945" style="stroke: #000000; stroke-width: 0.8"/>
      </g>
     </g>
     <g id="text_18">
      <!-- 0.00 -->
      <g transform="translate(468.722 111.733875)scale(0.08 -0.08)">
       <use xlink:href="#DejaVuSans-30"/>
       <use xlink:href="#DejaVuSans-2e" x="63.623047"/>
       <use xlink:href="#DejaVuSans-30" x="95.410156"/>
       <use xlink:href="#DejaVuSans-30" x="159.033203"/>
      </g>
     </g>
    </g>
    <g id="ytick_6">
     <g id="line2d_25">
      <g>
       <use xlink:href="#mbc45092cf7" x="493.5345" y="87.691345" style="stroke: #000000; stroke-width: 0.8"/>
      </g>
     </g>
     <g id="text_19">
      <!-- 0.25 -->
      <g transform="translate(468.722 90.73072)scale(0.08 -0.08)">
       <use xlink:href="#DejaVuSans-30"/>
       <use xlink:href="#DejaVuSans-2e" x="63.623047"/>
       <use xlink:href="#DejaVuSans-32" x="95.410156"/>
       <use xlink:href="#DejaVuSans-35" x="159.033203"/>
      </g>
     </g>
    </g>
    <g id="ytick_7">
     <g id="line2d_26">
      <g>
       <use xlink:href="#mbc45092cf7" x="493.5345" y="66.68819" style="stroke: #000000; stroke-width: 0.8"/>
      </g>
     </g>
     <g id="text_20">
      <!-- 0.50 -->
      <g transform="translate(468.722 69.727565)scale(0.08 -0.08)">
       <use xlink:href="#DejaVuSans-30"/>
       <use xlink:href="#DejaVuSans-2e" x="63.623047"/>
       <use xlink:href="#DejaVuSans-35" x="95.410156"/>
       <use xlink:href="#DejaVuSans-30" x="159.033203"/>
      </g>
     </g>
    </g>
    <g id="ytick_8">
     <g id="line2d_27">
      <g>
       <use xlink:href="#mbc45092cf7" x="493.5345" y="45.685035" style="stroke: #000000; stroke-width: 0.8"/>
      </g>
     </g>
     <g id="text_21">
      <!-- 0.75 -->
      <g transform="translate(468.722 48.72441)scale(0.08 -0.08)">
       <defs>
        <path id="DejaVuSans-37" d="M 525 4666 
L 3525 4666 
L 3525 4397 
L 1831 0 
L 1172 0 
L 2766 4134 
L 525 4134 
L 525 4666 
z
" transform="scale(0.015625)"/>
       </defs>
       <use xlink:href="#DejaVuSans-30"/>
       <use xlink:href="#DejaVuSans-2e" x="63.623047"/>
       <use xlink:href="#DejaVuSans-37" x="95.410156"/>
       <use xlink:href="#DejaVuSans-35" x="159.033203"/>
      </g>
     </g>
    </g>
    <g id="ytick_9">
     <g id="line2d_28">
      <g>
       <use xlink:href="#mbc45092cf7" x="493.5345" y="24.68188" style="stroke: #000000; stroke-width: 0.8"/>
      </g>
     </g>
     <g id="text_22">
      <!-- 1.00 -->
      <g transform="translate(468.722 27.721255)scale(0.08 -0.08)">
       <use xlink:href="#DejaVuSans-31"/>
       <use xlink:href="#DejaVuSans-2e" x="63.623047"/>
       <use xlink:href="#DejaVuSans-30" x="95.410156"/>
       <use xlink:href="#DejaVuSans-30" x="159.033203"/>
      </g>
     </g>
    </g>
    <g id="text_23">
     <!-- Normalised peak current -->
     <g transform="translate(463.05825 116.101375)rotate(-90)scale(0.08 -0.08)">
      <defs>
       <path id="DejaVuSans-4e" d="M 628 4666 
L 1478 4666 
L 3547 763 
L 3547 4666 
L 4159 4666 
L 4159 0 
L 3309 0 
L 1241 3903 
L 1241 0 
L 628 0 
L 628 4666 
z
" transform="scale(0.015625)"/>
      </defs>
      <use xlink:href="#DejaVuSans-4e"/>
      <use xlink:href="#DejaVuSans-6f" x="74.804688"/>
      <use xlink:href="#DejaVuSans-72" x="135.986328"/>
      <use xlink:href="#DejaVuSans-6d" x="175.349609"/>
      <use xlink:href="#DejaVuSans-61" x="272.761719"/>
      <use xlink:href="#DejaVuSans-6c" x="334.041016"/>
      <use xlink:href="#DejaVuSans-69" x="361.824219"/>
      <use xlink:href="#DejaVuSans-73" x="389.607422"/>
      <use xlink:href="#DejaVuSans-65" x="441.707031"/>
      <use xlink:href="#DejaVuSans-64" x="503.230469"/>
      <use xlink:href="#DejaVuSans-20" x="566.707031"/>
      <use xlink:href="#DejaVuSans-70" x="598.494141"/>
      <use xlink:href="#DejaVuSans-65" x="661.970703"/>
      <use xlink:href="#DejaVuSans-61" x="723.494141"/>
      <use xlink:href="#DejaVuSans-6b" x="784.773438"/>
      <use xlink:href="#DejaVuSans-20" x="842.683594"/>
      <use xlink:href="#DejaVuSans-63" x="874.470703"/>
      <use xlink:href="#DejaVuSans-75" x="929.451172"/>
      <use xlink:href="#DejaVuSans-72" x="992.830078"/>
      <use xlink:href="#DejaVuSans-72" x="1032.193359"/>
      <use xlink:href="#DejaVuSans-65" x="1071.056641"/>
      <use xlink:href="#DejaVuSans-6e" x="1132.580078"/>
      <use xlink:href="#DejaVuSans-74" x="1195.958984"/>
     </g>
    </g>
   </g>
   <g id="line2d_29">
    <g clip-path="url(#p99da210abe)">
     <use xlink:href="#mca97e936e3" x="498.818591" y="24.6945" style="stroke: #000000"/>
     <use xlink:href="#mca97e936e3" x="516.432227" y="24.803019" style="stroke: #000000"/>
     <use xlink:href="#mca97e936e3" x="542.449704" y="27.877481" style="stroke: #000000"/>
     <use xlink:href="#mca97e936e3" x="560.06334" y="44.380976" style="stroke: #000000"/>
     <use xlink:href="#mca97e936e3" x="563.970903" y="51.274446" style="stroke: #000000"/>
     <use xlink:href="#mca97e936e3" x="569.273136" y="62.170059" style="stroke: #000000"/>
     <use xlink:href="#mca97e936e3" x="586.886773" y="98.263844" style="stroke: #000000"/>
     <use xlink:href="#mca97e936e3" x="604.500409" y="108.6945" style="stroke: #000000"/>
    </g>
   </g>
   <g id="patch_6">
    <path d="M 493.5345 112.8945 
L 493.5345 20.4945 
" style="fill: none; stroke: #000000; stroke-width: 0.8; stroke-linejoin: miter; stroke-linecap: square"/>
   </g>
   <g id="patch_7">
    <path d="M 493.5345 112.8945 
L 609.7845 112.8945 
" style="fill: none; stroke: #000000; stroke-width: 0.8; stroke-linejoin: miter; stroke-linecap: square"/>
   </g>
  </g>
  <g id="axes_3">
   <g id="patch_8">
    <path d="M 51.7845 297.6945 
L 168.0345 297.6945 
L 168.0345 205.2945 
L 51.7845 205.2945 
z
" style="fill: #ffffff"/>
   </g>
   <g id="line2d_30">
    <path d="M 51.7845 293.44952 
L 54.69075 293.451174 
L 54.894187 216.491989 
L 54.9 216.495332 
L 54.975562 216.751876 
L 55.580062 219.208888 
L 56.109 220.083403 
L 56.9925 221.608907 
L 58.096875 224.042522 
L 62.421375 234.545987 
L 63.787312 238.465187 
L 64.8975 242.322056 
L 65.763563 246.135751 
L 66.699375 251.384114 
L 68.786062 264.665314 
L 69.582375 271.175297 
L 70.279875 278.817374 
L 71.47725 292.797544 
L 71.750438 293.148752 
L 72.139875 293.25414 
L 73.761562 293.298206 
L 87.915 293.411309 
L 109.903688 293.449509 
L 109.903688 293.449509 
" clip-path="url(#pb3c06f2fad)" style="fill: none; stroke: #440154; stroke-width: 1.5; stroke-linecap: square"/>
   </g>
   <g id="line2d_31">
    <path d="M 51.7845 293.449517 
L 54.69075 293.451173 
L 54.894187 216.491936 
L 54.9 216.495287 
L 54.975562 216.751804 
L 55.580062 219.208362 
L 56.109 220.082896 
L 56.9925 221.60831 
L 58.096875 224.041704 
L 62.427188 234.558367 
L 63.793125 238.479575 
L 64.903312 242.337474 
L 65.769375 246.155698 
L 66.711 251.44252 
L 68.797687 264.732204 
L 69.588188 271.209486 
L 70.285687 278.86344 
L 71.471438 292.778346 
L 71.744625 293.143772 
L 72.12825 293.252979 
L 73.645313 293.296343 
L 87.5895 293.410053 
L 109.903688 293.449497 
L 109.903688 293.449497 
" clip-path="url(#pb3c06f2fad)" style="fill: none; stroke: #482878; stroke-width: 1.5; stroke-linecap: square"/>
   </g>
   <g id="line2d_32">
    <path d="M 51.7845 293.449534 
L 54.69075 293.451203 
L 54.894187 216.491554 
L 54.9 216.494893 
L 54.975562 216.751301 
L 55.580062 219.207666 
L 56.109 220.081001 
L 56.9925 221.60444 
L 58.096875 224.035848 
L 62.415563 234.513708 
L 63.787312 238.441708 
L 64.8975 242.290886 
L 65.769375 246.120565 
L 66.705187 251.359118 
L 68.797687 264.655292 
L 69.594 271.153444 
L 70.2915 278.779653 
L 71.494687 292.803983 
L 71.767875 293.150436 
L 72.163125 293.255613 
L 73.872 293.299778 
L 88.153313 293.412164 
L 109.903688 293.449505 
L 109.903688 293.449505 
" clip-path="url(#pb3c06f2fad)" style="fill: none; stroke: #3e4989; stroke-width: 1.5; stroke-linecap: square"/>
   </g>
   <g id="line2d_33">
    <path d="M 51.7845 293.44945 
L 54.69075 293.451129 
L 54.894187 216.484643 
L 54.9 216.487709 
L 54.96975 216.713056 
L 55.5975 219.213506 
L 56.149687 220.089134 
L 57.004125 221.543445 
L 58.102687 223.929712 
L 62.560875 234.601928 
L 63.938437 238.506782 
L 65.071875 242.384244 
L 65.955375 246.2047 
L 66.926063 251.520739 
L 69.0825 264.849803 
L 69.873 271.171785 
L 70.5705 278.647732 
L 71.24475 288.547358 
L 71.605125 292.133113 
L 71.878313 292.971687 
L 72.168937 293.201323 
L 72.703688 293.272357 
L 77.167687 293.340201 
L 96.465188 293.434038 
L 109.903688 293.449521 
L 109.903688 293.449521 
" clip-path="url(#pb3c06f2fad)" style="fill: none; stroke: #31688e; stroke-width: 1.5; stroke-linecap: square"/>
   </g>
   <g id="line2d_34">
    <path d="M 51.7845 293.449429 
L 54.69075 293.451206 
L 54.894187 216.441 
L 54.9 216.442892 
L 54.96975 216.653312 
L 55.5975 219.025556 
L 56.109 219.726988 
L 56.911125 220.897309 
L 57.881812 222.775425 
L 61.700625 231.089152 
L 63.543188 235.353803 
L 65.019563 239.350993 
L 66.234375 243.266026 
L 67.216688 247.193097 
L 68.59425 253.821791 
L 70.82625 265.410835 
L 71.61675 270.876114 
L 72.308437 277.279425 
L 72.878062 284.6718 
L 73.470938 291.978303 
L 73.744125 292.932488 
L 74.023125 293.198594 
L 74.488125 293.282475 
L 77.33625 293.332749 
L 94.744688 293.429438 
L 109.903688 293.449418 
L 109.903688 293.449418 
" clip-path="url(#pb3c06f2fad)" style="fill: none; stroke: #26828e; stroke-width: 1.5; stroke-linecap: square"/>
   </g>
   <g id="line2d_35">
    <path d="M 51.7845 293.449371 
L 54.69075 293.451191 
L 54.894187 216.415855 
L 54.9 216.41715 
L 54.963937 216.594724 
L 55.62075 218.965254 
L 56.161312 219.634254 
L 56.916937 220.679466 
L 57.858562 222.421458 
L 60.706688 228.43971 
L 63.57225 234.580155 
L 65.170687 238.619993 
L 66.54825 242.695599 
L 67.623563 246.570147 
L 68.96625 252.387996 
L 71.796937 265.611006 
L 72.59325 270.693554 
L 73.284938 276.602438 
L 73.84875 283.36659 
L 74.575313 292.196897 
L 74.8485 293.002586 
L 75.139125 293.227926 
L 75.679688 293.297056 
L 80.3355 293.359102 
L 101.93475 293.44158 
L 109.903688 293.449381 
L 109.903688 293.449381 
" clip-path="url(#pb3c06f2fad)" style="fill: none; stroke: #1f9e89; stroke-width: 1.5; stroke-linecap: square"/>
   </g>
   <g id="line2d_36">
    <path d="M 51.7845 293.450169 
L 54.69075 293.452078 
L 54.894187 216.370083 
L 54.9 216.37038 
L 54.963937 216.536128 
L 55.614937 218.778469 
L 56.114812 219.322245 
L 56.841375 220.194397 
L 57.695812 221.622497 
L 59.334937 224.89837 
L 62.555062 231.208836 
L 64.467375 235.272957 
L 66.275063 239.651737 
L 67.763063 243.813192 
L 68.9895 247.922245 
L 73.023375 262.975887 
L 73.994063 267.493364 
L 74.749688 272.098803 
L 75.4065 277.514281 
L 75.94125 283.839677 
L 76.644563 292.202442 
L 76.91775 293.011375 
L 77.208375 293.240523 
L 77.743125 293.312502 
L 82.044375 293.367323 
L 104.44575 293.445072 
L 109.903688 293.450171 
L 109.903688 293.450171 
" clip-path="url(#pb3c06f2fad)" style="fill: none; stroke: #35b779; stroke-width: 1.5; stroke-linecap: square"/>
   </g>
   <g id="line2d_37">
    <path d="M 51.7845 293.456568 
L 54.69075 293.459626 
L 54.9 216.192575 
L 54.958125 216.295271 
L 55.614937 218.033094 
L 56.196187 218.474333 
L 56.82975 219.101774 
L 57.62025 220.238352 
L 59.026875 222.726796 
L 61.659937 227.321913 
L 65.0835 233.270863 
L 69.89625 242.223742 
L 72.395625 247.272165 
L 74.87175 252.239957 
L 76.0575 254.076594 
L 77.650125 256.096417 
L 81.259688 260.539979 
L 82.54425 262.596156 
L 83.666063 264.813781 
L 84.630938 267.216479 
L 85.462125 269.892898 
L 86.177063 272.957655 
L 86.781563 276.549907 
L 87.28725 280.946541 
L 87.816188 287.774296 
L 88.2405 292.14033 
L 88.5195 293.046638 
L 88.804313 293.296599 
L 89.292563 293.373637 
L 92.472 293.406812 
L 109.903688 293.456559 
L 109.903688 293.456559 
" clip-path="url(#pb3c06f2fad)" style="fill: none; stroke: #6ece58; stroke-width: 1.5; stroke-linecap: square"/>
   </g>
   <g id="line2d_38">
    <path d="M 51.7845 293.493395 
L 54.69075 293.4945 
L 54.9 215.758929 
L 54.963937 215.899469 
L 55.469625 217.255632 
L 55.841625 217.52232 
L 56.678625 218.043356 
L 57.370312 218.810886 
L 58.3875 220.314751 
L 70.994812 240.358325 
L 75.621563 247.727178 
L 77.499 250.584587 
L 78.59175 251.850984 
L 79.678688 252.769826 
L 81.00975 253.603705 
L 82.276875 254.144255 
L 83.52075 254.435545 
L 84.735563 254.492382 
L 85.9155 254.326267 
L 87.060563 253.939422 
L 88.211438 253.312032 
L 89.484375 252.351173 
L 91.547813 250.455013 
L 93.291563 248.985876 
L 94.407563 248.316181 
L 95.360813 247.996519 
L 96.244313 247.930624 
L 97.133625 248.088777 
L 98.092688 248.492263 
L 99.2145 249.218397 
L 100.807125 250.546033 
L 103.690125 252.956523 
L 105.317625 253.996566 
L 106.927688 254.764192 
L 108.456375 255.255028 
L 109.903688 255.503 
L 109.903688 255.503 
" clip-path="url(#pb3c06f2fad)" style="fill: none; stroke: #b5de2b; stroke-width: 1.5; stroke-linecap: square"/>
   </g>
   <g id="line2d_39">
    <path d="M 109.903688 293.449513 
L 112.809938 293.451203 
L 113.013375 216.491939 
L 113.019188 216.495283 
L 113.09475 216.751861 
L 113.69925 219.209266 
L 114.228188 220.083686 
L 115.111688 221.608917 
L 116.216063 224.042269 
L 120.546375 234.559189 
L 121.912313 238.480455 
L 123.0225 242.338241 
L 123.888563 246.156838 
L 124.830188 251.445691 
L 126.922688 264.778416 
L 127.713188 271.269101 
L 128.410688 278.944893 
L 129.590625 292.779986 
L 129.863813 293.14416 
L 130.247438 293.252815 
L 131.781938 293.296563 
L 145.697063 293.410003 
L 168.022875 293.449505 
L 168.022875 293.449505 
" clip-path="url(#pb3c06f2fad)" style="fill: none; stroke: #440154; stroke-width: 1.5; stroke-linecap: square"/>
   </g>
   <g id="line2d_40">
    <path d="M 109.903688 293.449501 
L 112.809938 293.45119 
L 113.013375 216.491922 
L 113.019188 216.495275 
L 113.09475 216.751832 
L 113.69925 219.208764 
L 114.228188 220.083203 
L 115.111688 221.608389 
L 116.216063 224.041681 
L 120.540563 234.543529 
L 121.9065 238.461615 
L 123.0225 242.336707 
L 123.888563 246.153833 
L 124.830188 251.441192 
L 126.922688 264.770401 
L 127.713188 271.257734 
L 128.410688 278.92874 
L 129.590625 292.776623 
L 129.863813 293.142586 
L 130.247438 293.252393 
L 131.758688 293.296214 
L 145.609875 293.409658 
L 168.022875 293.449496 
L 168.022875 293.449496 
" clip-path="url(#pb3c06f2fad)" style="fill: none; stroke: #482878; stroke-width: 1.5; stroke-linecap: square"/>
   </g>
   <g id="line2d_41">
    <path d="M 109.903688 293.449509 
L 112.809938 293.451201 
L 113.013375 216.491589 
L 113.019188 216.49493 
L 113.09475 216.751354 
L 113.69925 219.207729 
L 114.228188 220.081084 
L 115.111688 221.604537 
L 116.216063 224.036008 
L 120.552188 234.559815 
L 121.918125 238.477713 
L 123.0225 242.311021 
L 123.888563 246.116825 
L 124.824375 251.354347 
L 126.916875 264.648208 
L 127.713188 271.143172 
L 128.410688 278.765767 
L 129.613875 292.802363 
L 129.887063 293.151419 
L 130.282313 293.255445 
L 131.997 293.299877 
L 146.330625 293.412379 
L 168.022875 293.449519 
L 168.022875 293.449519 
" clip-path="url(#pb3c06f2fad)" style="fill: none; stroke: #3e4989; stroke-width: 1.5; stroke-linecap: square"/>
   </g>
   <g id="line2d_42">
    <path d="M 109.903688 293.449525 
L 112.809938 293.451232 
L 113.013375 216.484621 
L 113.019188 216.487709 
L 113.088938 216.71318 
L 113.716688 219.213751 
L 114.268875 220.088865 
L 115.123313 221.542578 
L 116.221875 223.92831 
L 120.680063 234.59802 
L 122.057625 238.501717 
L 123.191063 242.379964 
L 124.074563 246.1987 
L 125.04525 251.513254 
L 127.2075 264.877906 
L 127.998 271.208168 
L 128.6955 278.697212 
L 129.381375 288.769708 
L 129.730125 292.15402 
L 129.9975 292.967682 
L 130.282313 293.198678 
L 130.805438 293.271639 
L 134.99625 293.337059 
L 153.846188 293.432624 
L 168.022875 293.44943 
L 168.022875 293.44943 
" clip-path="url(#pb3c06f2fad)" style="fill: none; stroke: #31688e; stroke-width: 1.5; stroke-linecap: square"/>
   </g>
   <g id="line2d_43">
    <path d="M 109.903688 293.449422 
L 112.809938 293.451203 
L 113.013375 216.441036 
L 113.019188 216.442931 
L 113.088938 216.65338 
L 113.716688 219.025799 
L 114.228188 219.727256 
L 115.030313 220.897571 
L 116.001 222.775662 
L 119.819813 231.089251 
L 121.662375 235.353845 
L 123.13875 239.350464 
L 124.359375 243.284752 
L 125.341688 247.217041 
L 126.730875 253.906073 
L 128.945438 265.408783 
L 129.735938 270.873421 
L 130.427625 277.276417 
L 131.003063 284.754887 
L 131.584313 291.942329 
L 131.8575 292.921838 
L 132.1365 293.19692 
L 132.595688 293.280193 
L 135.304313 293.330917 
L 152.427938 293.428421 
L 168.022875 293.449428 
L 168.022875 293.449428 
" clip-path="url(#pb3c06f2fad)" style="fill: none; stroke: #26828e; stroke-width: 1.5; stroke-linecap: square"/>
   </g>
   <g id="line2d_44">
    <path d="M 109.903688 293.449385 
L 112.809938 293.45123 
L 113.013375 216.41572 
L 113.019188 216.417007 
L 113.083125 216.594571 
L 113.739938 218.965486 
L 114.2805 219.63454 
L 115.036125 220.67927 
L 115.97775 222.420889 
L 118.81425 228.414488 
L 121.69725 234.590681 
L 123.289875 238.61518 
L 124.667438 242.68891 
L 125.74275 246.562027 
L 127.079625 252.351875 
L 129.916125 265.599586 
L 130.712438 270.678254 
L 131.404125 276.581642 
L 131.967938 283.336898 
L 132.700313 292.215388 
L 132.9735 293.007817 
L 133.264125 293.229594 
L 133.804688 293.2971 
L 138.663938 293.360931 
L 160.629375 293.442314 
L 168.022875 293.449371 
L 168.022875 293.449371 
" clip-path="url(#pb3c06f2fad)" style="fill: none; stroke: #1f9e89; stroke-width: 1.5; stroke-linecap: square"/>
   </g>
   <g id="line2d_45">
    <path d="M 109.903688 293.450175 
L 112.809938 293.45212 
L 113.013375 216.369956 
L 113.019188 216.370252 
L 113.083125 216.536011 
L 113.734125 218.778728 
L 114.234 219.322298 
L 114.960563 220.194162 
L 115.815 221.621928 
L 117.454125 224.897476 
L 120.668438 231.195302 
L 122.58075 235.257202 
L 124.388438 239.632337 
L 125.88225 243.807625 
L 127.108688 247.915744 
L 131.148375 262.985264 
L 132.119063 267.504638 
L 132.874688 272.113388 
L 133.525688 277.477258 
L 134.060438 283.786785 
L 134.769563 292.213485 
L 135.04275 293.014241 
L 135.333375 293.240045 
L 135.873938 293.311977 
L 140.140313 293.36709 
L 162.489375 293.444969 
L 168.022875 293.450154 
L 168.022875 293.450154 
" clip-path="url(#pb3c06f2fad)" style="fill: none; stroke: #35b779; stroke-width: 1.5; stroke-linecap: square"/>
   </g>
   <g id="line2d_46">
    <path d="M 109.903688 293.456565 
L 112.809938 293.459628 
L 113.019188 216.192595 
L 113.077313 216.295285 
L 113.734125 218.033105 
L 114.315375 218.474294 
L 114.948938 219.101717 
L 115.739438 220.23832 
L 117.151875 222.737358 
L 119.796563 227.351219 
L 123.202688 233.271198 
L 128.050313 242.290928 
L 130.543875 247.333184 
L 132.985125 252.229448 
L 134.170875 254.075436 
L 135.792563 256.133279 
L 139.448625 260.657855 
L 140.721563 262.719961 
L 141.83175 264.942221 
L 142.790813 267.364104 
L 143.616188 270.065424 
L 144.325313 273.162418 
L 144.924 276.800089 
L 145.423875 281.25778 
L 145.981875 288.569114 
L 146.3655 292.233078 
L 146.638688 293.064173 
L 146.929313 293.303495 
L 147.446625 293.375388 
L 151.439813 293.411849 
L 168.022875 293.456573 
L 168.022875 293.456573 
" clip-path="url(#pb3c06f2fad)" style="fill: none; stroke: #6ece58; stroke-width: 1.5; stroke-linecap: square"/>
   </g>
   <g id="line2d_47">
    <path d="M 109.903688 255.503548 
L 111.263813 255.520135 
L 112.455375 255.317597 
L 112.809938 255.208008 
L 112.868063 209.4945 
L 112.972688 210.532059 
L 113.705063 216.52305 
L 114.547875 221.648595 
L 115.477875 225.959174 
L 116.547375 229.864631 
L 117.826125 233.682069 
L 119.424563 237.736007 
L 122.139 243.894184 
L 124.504688 249.562528 
L 126.178688 253.347154 
L 127.503938 255.762066 
L 132.078375 263.688642 
L 133.386188 266.575429 
L 134.39175 269.330628 
L 135.188063 272.165196 
L 135.83325 275.302106 
L 136.362188 279.013498 
L 136.833 284.007546 
L 137.60025 292.50173 
L 137.873438 293.178654 
L 138.175688 293.372377 
L 138.797625 293.429206 
L 146.627063 293.467464 
L 168.022875 293.493384 
L 168.022875 293.493384 
" clip-path="url(#pb3c06f2fad)" style="fill: none; stroke: #b5de2b; stroke-width: 1.5; stroke-linecap: square"/>
   </g>
   <g id="matplotlib.axis_5">
    <g id="xtick_10">
     <g id="line2d_48">
      <g>
       <use xlink:href="#m953707ac26" x="51.7845" y="297.6945" style="stroke: #000000; stroke-width: 0.8"/>
      </g>
     </g>
     <g id="text_24">
      <!-- 0 -->
      <g transform="translate(49.2395 310.77325)scale(0.08 -0.08)">
       <use xlink:href="#DejaVuSans-30"/>
      </g>
     </g>
    </g>
    <g id="xtick_11">
     <g id="line2d_49">
      <g>
       <use xlink:href="#m953707ac26" x="80.847" y="297.6945" style="stroke: #000000; stroke-width: 0.8"/>
      </g>
     </g>
     <g id="text_25">
      <!-- 500 -->
      <g transform="translate(73.212 310.77325)scale(0.08 -0.08)">
       <use xlink:href="#DejaVuSans-35"/>
       <use xlink:href="#DejaVuSans-30" x="63.623047"/>
       <use xlink:href="#DejaVuSans-30" x="127.246094"/>
      </g>
     </g>
    </g>
    <g id="xtick_12">
     <g id="line2d_50">
      <g>
       <use xlink:href="#m953707ac26" x="109.9095" y="297.6945" style="stroke: #000000; stroke-width: 0.8"/>
      </g>
     </g>
     <g id="text_26">
      <!-- 1000 -->
      <g transform="translate(99.7295 310.77325)scale(0.08 -0.08)">
       <use xlink:href="#DejaVuSans-31"/>
       <use xlink:href="#DejaVuSans-30" x="63.623047"/>
       <use xlink:href="#DejaVuSans-30" x="127.246094"/>
       <use xlink:href="#DejaVuSans-30" x="190.869141"/>
      </g>
     </g>
    </g>
    <g id="xtick_13">
     <g id="line2d_51">
      <g>
       <use xlink:href="#m953707ac26" x="138.972" y="297.6945" style="stroke: #000000; stroke-width: 0.8"/>
      </g>
     </g>
     <g id="text_27">
      <!-- 1500 -->
      <g transform="translate(128.792 310.77325)scale(0.08 -0.08)">
       <use xlink:href="#DejaVuSans-31"/>
       <use xlink:href="#DejaVuSans-35" x="63.623047"/>
       <use xlink:href="#DejaVuSans-30" x="127.246094"/>
       <use xlink:href="#DejaVuSans-30" x="190.869141"/>
      </g>
     </g>
    </g>
    <g id="xtick_14">
     <g id="line2d_52">
      <g>
       <use xlink:href="#m953707ac26" x="168.0345" y="297.6945" style="stroke: #000000; stroke-width: 0.8"/>
      </g>
     </g>
     <g id="text_28">
      <!-- 2000 -->
      <g transform="translate(157.8545 310.77325)scale(0.08 -0.08)">
       <use xlink:href="#DejaVuSans-32"/>
       <use xlink:href="#DejaVuSans-30" x="63.623047"/>
       <use xlink:href="#DejaVuSans-30" x="127.246094"/>
       <use xlink:href="#DejaVuSans-30" x="190.869141"/>
      </g>
     </g>
    </g>
    <g id="text_29">
     <!-- Time (ms) -->
     <g transform="translate(89.750125 322.51575)scale(0.08 -0.08)">
      <use xlink:href="#DejaVuSans-54"/>
      <use xlink:href="#DejaVuSans-69" x="57.958984"/>
      <use xlink:href="#DejaVuSans-6d" x="85.742188"/>
      <use xlink:href="#DejaVuSans-65" x="183.154297"/>
      <use xlink:href="#DejaVuSans-20" x="244.677734"/>
      <use xlink:href="#DejaVuSans-28" x="276.464844"/>
      <use xlink:href="#DejaVuSans-6d" x="315.478516"/>
      <use xlink:href="#DejaVuSans-73" x="412.890625"/>
      <use xlink:href="#DejaVuSans-29" x="464.990234"/>
     </g>
    </g>
   </g>
   <g id="matplotlib.axis_6">
    <g id="ytick_10">
     <g id="line2d_53">
      <g>
       <use xlink:href="#mbc45092cf7" x="51.7845" y="271.737917" style="stroke: #000000; stroke-width: 0.8"/>
      </g>
     </g>
     <g id="text_30">
      <!-- 50 -->
      <g transform="translate(27.90075 274.777292)scale(0.08 -0.08)">
       <defs>
        <path id="DejaVuSans-2212" d="M 678 2272 
L 4684 2272 
L 4684 1741 
L 678 1741 
L 678 2272 
z
" transform="scale(0.015625)"/>
       </defs>
       <use xlink:href="#DejaVuSans-2212"/>
       <use xlink:href="#DejaVuSans-35" x="83.789062"/>
       <use xlink:href="#DejaVuSans-30" x="147.412109"/>
      </g>
     </g>
    </g>
    <g id="ytick_11">
     <g id="line2d_54">
      <g>
       <use xlink:href="#mbc45092cf7" x="51.7845" y="243.121179" style="stroke: #000000; stroke-width: 0.8"/>
      </g>
     </g>
     <g id="text_31">
      <!-- 0 -->
      <g transform="translate(39.6945 246.160554)scale(0.08 -0.08)">
       <use xlink:href="#DejaVuSans-30"/>
      </g>
     </g>
    </g>
    <g id="ytick_12">
     <g id="line2d_55">
      <g>
       <use xlink:href="#mbc45092cf7" x="51.7845" y="214.504442" style="stroke: #000000; stroke-width: 0.8"/>
      </g>
     </g>
     <g id="text_32">
      <!-- 50 -->
      <g transform="translate(34.6045 217.543817)scale(0.08 -0.08)">
       <use xlink:href="#DejaVuSans-35"/>
       <use xlink:href="#DejaVuSans-30" x="63.623047"/>
      </g>
     </g>
    </g>
    <g id="text_33">
     <!-- Voltage -->
     <g transform="translate(13.27875 266.4995)rotate(-90)scale(0.08 -0.08)">
      <defs>
       <path id="DejaVuSans-56" d="M 1831 0 
L 50 4666 
L 709 4666 
L 2188 738 
L 3669 4666 
L 4325 4666 
L 2547 0 
L 1831 0 
z
" transform="scale(0.015625)"/>
      </defs>
      <use xlink:href="#DejaVuSans-56"/>
      <use xlink:href="#DejaVuSans-6f" x="60.658203"/>
      <use xlink:href="#DejaVuSans-6c" x="121.839844"/>
      <use xlink:href="#DejaVuSans-74" x="149.623047"/>
      <use xlink:href="#DejaVuSans-61" x="188.832031"/>
      <use xlink:href="#DejaVuSans-67" x="250.111328"/>
      <use xlink:href="#DejaVuSans-65" x="313.587891"/>
     </g>
     <!-- (mV) -->
     <g transform="translate(22.237 261.24825)rotate(-90)scale(0.08 -0.08)">
      <use xlink:href="#DejaVuSans-28"/>
      <use xlink:href="#DejaVuSans-6d" x="39.013672"/>
      <use xlink:href="#DejaVuSans-56" x="136.425781"/>
      <use xlink:href="#DejaVuSans-29" x="204.833984"/>
     </g>
    </g>
   </g>
   <g id="patch_9">
    <path d="M 51.7845 297.6945 
L 51.7845 205.2945 
" style="fill: none; stroke: #000000; stroke-width: 0.8; stroke-linejoin: miter; stroke-linecap: square"/>
   </g>
   <g id="patch_10">
    <path d="M 51.7845 297.6945 
L 168.0345 297.6945 
" style="fill: none; stroke: #000000; stroke-width: 0.8; stroke-linejoin: miter; stroke-linecap: square"/>
   </g>
   <g id="text_34">
    <!-- ORd-conductance scaling -->
    <g transform="translate(48.849 199.2945)scale(0.096 -0.096)">
     <defs>
      <path id="DejaVuSans-4f" d="M 2522 4238 
Q 1834 4238 1429 3725 
Q 1025 3213 1025 2328 
Q 1025 1447 1429 934 
Q 1834 422 2522 422 
Q 3209 422 3611 934 
Q 4013 1447 4013 2328 
Q 4013 3213 3611 3725 
Q 3209 4238 2522 4238 
z
M 2522 4750 
Q 3503 4750 4090 4092 
Q 4678 3434 4678 2328 
Q 4678 1225 4090 567 
Q 3503 -91 2522 -91 
Q 1538 -91 948 565 
Q 359 1222 359 2328 
Q 359 3434 948 4092 
Q 1538 4750 2522 4750 
z
" transform="scale(0.015625)"/>
      <path id="DejaVuSans-52" d="M 2841 2188 
Q 3044 2119 3236 1894 
Q 3428 1669 3622 1275 
L 4263 0 
L 3584 0 
L 2988 1197 
Q 2756 1666 2539 1819 
Q 2322 1972 1947 1972 
L 1259 1972 
L 1259 0 
L 628 0 
L 628 4666 
L 2053 4666 
Q 2853 4666 3247 4331 
Q 3641 3997 3641 3322 
Q 3641 2881 3436 2590 
Q 3231 2300 2841 2188 
z
M 1259 4147 
L 1259 2491 
L 2053 2491 
Q 2509 2491 2742 2702 
Q 2975 2913 2975 3322 
Q 2975 3731 2742 3939 
Q 2509 4147 2053 4147 
L 1259 4147 
z
" transform="scale(0.015625)"/>
     </defs>
     <use xlink:href="#DejaVuSans-4f"/>
     <use xlink:href="#DejaVuSans-52" x="78.710938"/>
     <use xlink:href="#DejaVuSans-64" x="148.193359"/>
     <use xlink:href="#DejaVuSans-2d" x="211.669922"/>
     <use xlink:href="#DejaVuSans-63" x="247.753906"/>
     <use xlink:href="#DejaVuSans-6f" x="302.734375"/>
     <use xlink:href="#DejaVuSans-6e" x="363.916016"/>
     <use xlink:href="#DejaVuSans-64" x="427.294922"/>
     <use xlink:href="#DejaVuSans-75" x="490.771484"/>
     <use xlink:href="#DejaVuSans-63" x="554.150391"/>
     <use xlink:href="#DejaVuSans-74" x="609.130859"/>
     <use xlink:href="#DejaVuSans-61" x="648.339844"/>
     <use xlink:href="#DejaVuSans-6e" x="709.619141"/>
     <use xlink:href="#DejaVuSans-63" x="772.998047"/>
     <use xlink:href="#DejaVuSans-65" x="827.978516"/>
     <use xlink:href="#DejaVuSans-20" x="889.501953"/>
     <use xlink:href="#DejaVuSans-73" x="921.289062"/>
     <use xlink:href="#DejaVuSans-63" x="973.388672"/>
     <use xlink:href="#DejaVuSans-61" x="1028.369141"/>
     <use xlink:href="#DejaVuSans-6c" x="1089.648438"/>
     <use xlink:href="#DejaVuSans-69" x="1117.431641"/>
     <use xlink:href="#DejaVuSans-6e" x="1145.214844"/>
     <use xlink:href="#DejaVuSans-67" x="1208.59375"/>
    </g>
   </g>
  </g>
  <g id="axes_4">
   <g id="patch_11">
    <path d="M 272.6595 297.6945 
L 388.9095 297.6945 
L 388.9095 205.2945 
L 272.6595 205.2945 
z
" style="fill: #ffffff"/>
   </g>
   <g id="line2d_56">
    <path d="M 272.6595 293.458596 
L 277.309035 293.461576 
L 277.47132 265.419346 
L 277.79031 223.601523 
L 278.05443 213.432495 
L 278.312505 210.593321 
L 278.57151 209.797148 
L 278.857485 209.567359 
L 279.37038 209.500527 
L 283.68558 209.494818 
L 323.809035 209.49483 
L 323.8095 285.99951 
L 323.92017 278.012821 
L 324.18894 288.716506 
L 324.45771 292.004142 
L 324.72834 293.01624 
L 325.016175 293.333992 
L 325.43793 293.439122 
L 326.967315 293.458578 
L 388.909965 293.458589 
L 388.909965 293.458589 
" clip-path="url(#p532d7b7746)" style="fill: none; stroke: #440154; stroke-width: 1.5; stroke-linecap: square"/>
   </g>
   <g id="line2d_57">
    <path d="M 272.6595 293.458602 
L 277.309035 293.461581 
L 277.47132 265.425205 
L 277.79031 223.616109 
L 278.05443 213.449203 
L 278.312505 210.610623 
L 278.57151 209.814616 
L 278.857485 209.584875 
L 279.37038 209.518056 
L 283.68651 209.512349 
L 323.809035 209.51236 
L 323.8095 286.001072 
L 323.92017 278.016051 
L 324.18894 288.717502 
L 324.45771 292.004451 
L 324.72834 293.016338 
L 325.016175 293.334024 
L 325.43793 293.439131 
L 326.967315 293.458584 
L 388.909965 293.458595 
L 388.909965 293.458595 
" clip-path="url(#p532d7b7746)" style="fill: none; stroke: #482878; stroke-width: 1.5; stroke-linecap: square"/>
   </g>
   <g id="line2d_58">
    <path d="M 272.6595 293.458642 
L 277.309035 293.461617 
L 277.47132 265.466104 
L 277.79031 223.717944 
L 278.05443 213.565857 
L 278.312505 210.731413 
L 278.57151 209.936566 
L 278.857485 209.707161 
L 279.370845 209.640427 
L 283.70511 209.63474 
L 323.809035 209.634752 
L 323.8095 286.011982 
L 323.92017 278.038599 
L 324.18894 288.724452 
L 324.45771 292.006611 
L 324.72834 293.017024 
L 325.016175 293.334246 
L 325.438395 293.43924 
L 326.97243 293.458625 
L 388.909965 293.458636 
L 388.909965 293.458636 
" clip-path="url(#p532d7b7746)" style="fill: none; stroke: #3e4989; stroke-width: 1.5; stroke-linecap: square"/>
   </g>
   <g id="line2d_59">
    <path d="M 272.6595 293.459563 
L 277.309035 293.46244 
L 277.47132 266.393568 
L 277.79031 226.027258 
L 278.05443 216.211202 
L 278.31297 213.468131 
L 278.571975 212.701364 
L 278.85981 212.479422 
L 279.387585 212.415288 
L 284.360295 212.410187 
L 323.809035 212.410215 
L 323.8095 286.259385 
L 323.92017 278.549918 
L 324.18894 288.882073 
L 324.45771 292.055594 
L 324.72834 293.032562 
L 325.01757 293.340023 
L 325.44816 293.441592 
L 327.08589 293.459544 
L 388.909965 293.459557 
L 388.909965 293.459557 
" clip-path="url(#p532d7b7746)" style="fill: none; stroke: #31688e; stroke-width: 1.5; stroke-linecap: square"/>
   </g>
   <g id="line2d_60">
    <path d="M 272.6595 293.464817 
L 277.309035 293.467132 
L 277.47132 271.685477 
L 277.79031 239.203701 
L 278.05443 231.304962 
L 278.31297 229.09768 
L 278.57337 228.479058 
L 278.87655 228.297643 
L 279.51918 228.248783 
L 290.58432 228.246401 
L 323.809035 228.246401 
L 323.8095 287.671011 
L 323.92017 281.467392 
L 324.18894 289.781424 
L 324.45771 292.335078 
L 324.729735 293.123326 
L 325.02966 293.373625 
L 325.52907 293.454687 
L 328.2549 293.464811 
L 388.909965 293.464812 
L 388.909965 293.464812 
" clip-path="url(#p532d7b7746)" style="fill: none; stroke: #26828e; stroke-width: 1.5; stroke-linecap: square"/>
   </g>
   <g id="line2d_61">
    <path d="M 272.6595 293.467321 
L 277.309035 293.469368 
L 277.47132 274.207178 
L 277.79031 245.482542 
L 278.05443 238.497443 
L 278.31297 236.545476 
L 278.574765 235.996983 
L 278.88957 235.835139 
L 279.621015 235.794407 
L 323.809035 235.792664 
L 323.8095 288.343679 
L 323.92017 282.857628 
L 324.18894 290.209982 
L 324.458175 292.4703 
L 324.730665 293.166564 
L 325.038495 293.389759 
L 325.589055 293.46044 
L 329.492265 293.46732 
L 388.909965 293.467316 
L 388.909965 293.467316 
" clip-path="url(#p532d7b7746)" style="fill: none; stroke: #1f9e89; stroke-width: 1.5; stroke-linecap: square"/>
   </g>
   <g id="line2d_62">
    <path d="M 272.6595 293.471417 
L 277.309035 293.473026 
L 277.47132 278.332995 
L 277.79031 255.755505 
L 278.05443 250.265236 
L 278.313435 248.729629 
L 278.578485 248.29693 
L 278.92305 248.167547 
L 279.92652 248.139628 
L 312.121725 248.139286 
L 323.809035 248.139286 
L 323.8095 289.444248 
L 323.92017 285.132226 
L 324.18894 290.911158 
L 324.458175 292.687761 
L 324.733455 293.237911 
L 325.06221 293.416498 
L 325.750875 293.468773 
L 335.38707 293.471414 
L 388.909965 293.471414 
L 388.909965 293.471414 
" clip-path="url(#p532d7b7746)" style="fill: none; stroke: #35b779; stroke-width: 1.5; stroke-linecap: square"/>
   </g>
   <g id="line2d_63">
    <path d="M 272.6595 293.482895 
L 277.32252 293.37664 
L 277.443885 290.610025 
L 277.782405 284.608754 
L 278.04792 283.254907 
L 278.31762 282.871578 
L 278.68404 282.756559 
L 279.89862 282.734593 
L 323.809035 282.734486 
L 323.8095 292.528039 
L 323.92017 291.505643 
L 324.190335 292.879564 
L 324.4698 293.306351 
L 324.8325 293.447083 
L 325.7718 293.482324 
L 369.63339 293.482894 
L 388.909965 293.482894 
L 388.909965 293.482894 
" clip-path="url(#p532d7b7746)" style="fill: none; stroke: #6ece58; stroke-width: 1.5; stroke-linecap: square"/>
   </g>
   <g id="line2d_64">
    <path d="M 272.6595 293.48596 
L 277.36065 293.376156 
L 277.883775 292.134601 
L 278.234385 292.000869 
L 279.21042 291.971898 
L 323.809035 291.97167 
L 323.8095 293.351435 
L 323.92017 293.207395 
L 324.234045 293.415843 
L 324.82134 293.480661 
L 329.8266 293.48596 
L 388.909965 293.48596 
L 388.909965 293.48596 
" clip-path="url(#p532d7b7746)" style="fill: none; stroke: #b5de2b; stroke-width: 1.5; stroke-linecap: square"/>
   </g>
   <g id="matplotlib.axis_7">
    <g id="xtick_15">
     <g id="line2d_65">
      <g>
       <use xlink:href="#m953707ac26" x="272.6595" y="297.6945" style="stroke: #000000; stroke-width: 0.8"/>
      </g>
     </g>
     <g id="text_35">
      <!-- 0 -->
      <g transform="translate(270.1145 310.77325)scale(0.08 -0.08)">
       <use xlink:href="#DejaVuSans-30"/>
      </g>
     </g>
    </g>
    <g id="xtick_16">
     <g id="line2d_66">
      <g>
       <use xlink:href="#m953707ac26" x="295.9095" y="297.6945" style="stroke: #000000; stroke-width: 0.8"/>
      </g>
     </g>
     <g id="text_36">
      <!-- 5 -->
      <g transform="translate(293.3645 310.77325)scale(0.08 -0.08)">
       <use xlink:href="#DejaVuSans-35"/>
      </g>
     </g>
    </g>
    <g id="xtick_17">
     <g id="line2d_67">
      <g>
       <use xlink:href="#m953707ac26" x="319.1595" y="297.6945" style="stroke: #000000; stroke-width: 0.8"/>
      </g>
     </g>
     <g id="text_37">
      <!-- 10 -->
      <g transform="translate(314.0695 310.77325)scale(0.08 -0.08)">
       <use xlink:href="#DejaVuSans-31"/>
       <use xlink:href="#DejaVuSans-30" x="63.623047"/>
      </g>
     </g>
    </g>
    <g id="xtick_18">
     <g id="line2d_68">
      <g>
       <use xlink:href="#m953707ac26" x="342.4095" y="297.6945" style="stroke: #000000; stroke-width: 0.8"/>
      </g>
     </g>
     <g id="text_38">
      <!-- 15 -->
      <g transform="translate(337.3195 310.77325)scale(0.08 -0.08)">
       <use xlink:href="#DejaVuSans-31"/>
       <use xlink:href="#DejaVuSans-35" x="63.623047"/>
      </g>
     </g>
    </g>
    <g id="xtick_19">
     <g id="line2d_69">
      <g>
       <use xlink:href="#m953707ac26" x="365.6595" y="297.6945" style="stroke: #000000; stroke-width: 0.8"/>
      </g>
     </g>
     <g id="text_39">
      <!-- 20 -->
      <g transform="translate(360.5695 310.77325)scale(0.08 -0.08)">
       <use xlink:href="#DejaVuSans-32"/>
       <use xlink:href="#DejaVuSans-30" x="63.623047"/>
      </g>
     </g>
    </g>
    <g id="xtick_20">
     <g id="line2d_70">
      <g>
       <use xlink:href="#m953707ac26" x="388.9095" y="297.6945" style="stroke: #000000; stroke-width: 0.8"/>
      </g>
     </g>
     <g id="text_40">
      <!-- 25 -->
      <g transform="translate(383.8195 310.77325)scale(0.08 -0.08)">
       <use xlink:href="#DejaVuSans-32"/>
       <use xlink:href="#DejaVuSans-35" x="63.623047"/>
      </g>
     </g>
    </g>
    <g id="text_41">
     <!-- Time (s) -->
     <g transform="translate(314.521375 322.51575)scale(0.08 -0.08)">
      <use xlink:href="#DejaVuSans-54"/>
      <use xlink:href="#DejaVuSans-69" x="57.958984"/>
      <use xlink:href="#DejaVuSans-6d" x="85.742188"/>
      <use xlink:href="#DejaVuSans-65" x="183.154297"/>
      <use xlink:href="#DejaVuSans-20" x="244.677734"/>
      <use xlink:href="#DejaVuSans-28" x="276.464844"/>
      <use xlink:href="#DejaVuSans-73" x="315.478516"/>
      <use xlink:href="#DejaVuSans-29" x="367.578125"/>
     </g>
    </g>
   </g>
   <g id="matplotlib.axis_8">
    <g id="ytick_13">
     <g id="line2d_71">
      <g>
       <use xlink:href="#mbc45092cf7" x="272.6595" y="293.486462" style="stroke: #000000; stroke-width: 0.8"/>
      </g>
     </g>
     <g id="text_42">
      <!-- 0.0 -->
      <g transform="translate(252.937 296.525837)scale(0.08 -0.08)">
       <use xlink:href="#DejaVuSans-30"/>
       <use xlink:href="#DejaVuSans-2e" x="63.623047"/>
       <use xlink:href="#DejaVuSans-30" x="95.410156"/>
      </g>
     </g>
    </g>
    <g id="ytick_14">
     <g id="line2d_72">
      <g>
       <use xlink:href="#mbc45092cf7" x="272.6595" y="270.852464" style="stroke: #000000; stroke-width: 0.8"/>
      </g>
     </g>
     <g id="text_43">
      <!-- 0.2 -->
      <g transform="translate(252.937 273.891839)scale(0.08 -0.08)">
       <use xlink:href="#DejaVuSans-30"/>
       <use xlink:href="#DejaVuSans-2e" x="63.623047"/>
       <use xlink:href="#DejaVuSans-32" x="95.410156"/>
      </g>
     </g>
    </g>
    <g id="ytick_15">
     <g id="line2d_73">
      <g>
       <use xlink:href="#mbc45092cf7" x="272.6595" y="248.218466" style="stroke: #000000; stroke-width: 0.8"/>
      </g>
     </g>
     <g id="text_44">
      <!-- 0.4 -->
      <g transform="translate(252.937 251.257841)scale(0.08 -0.08)">
       <use xlink:href="#DejaVuSans-30"/>
       <use xlink:href="#DejaVuSans-2e" x="63.623047"/>
       <use xlink:href="#DejaVuSans-34" x="95.410156"/>
      </g>
     </g>
    </g>
    <g id="ytick_16">
     <g id="line2d_74">
      <g>
       <use xlink:href="#mbc45092cf7" x="272.6595" y="225.584467" style="stroke: #000000; stroke-width: 0.8"/>
      </g>
     </g>
     <g id="text_45">
      <!-- 0.6 -->
      <g transform="translate(252.937 228.623842)scale(0.08 -0.08)">
       <use xlink:href="#DejaVuSans-30"/>
       <use xlink:href="#DejaVuSans-2e" x="63.623047"/>
       <use xlink:href="#DejaVuSans-36" x="95.410156"/>
      </g>
     </g>
    </g>
    <g id="text_46">
     <!-- Current (A/F) -->
     <g transform="translate(247.27325 277.292625)rotate(-90)scale(0.08 -0.08)">
      <use xlink:href="#DejaVuSans-43"/>
      <use xlink:href="#DejaVuSans-75" x="69.824219"/>
      <use xlink:href="#DejaVuSans-72" x="133.203125"/>
      <use xlink:href="#DejaVuSans-72" x="172.566406"/>
      <use xlink:href="#DejaVuSans-65" x="211.429688"/>
      <use xlink:href="#DejaVuSans-6e" x="272.953125"/>
      <use xlink:href="#DejaVuSans-74" x="336.332031"/>
      <use xlink:href="#DejaVuSans-20" x="375.541016"/>
      <use xlink:href="#DejaVuSans-28" x="407.328125"/>
      <use xlink:href="#DejaVuSans-41" x="446.341797"/>
      <use xlink:href="#DejaVuSans-2f" x="514.75"/>
      <use xlink:href="#DejaVuSans-46" x="548.441406"/>
      <use xlink:href="#DejaVuSans-29" x="605.960938"/>
     </g>
    </g>
   </g>
   <g id="patch_12">
    <path d="M 272.6595 297.6945 
L 272.6595 205.2945 
" style="fill: none; stroke: #000000; stroke-width: 0.8; stroke-linejoin: miter; stroke-linecap: square"/>
   </g>
   <g id="patch_13">
    <path d="M 272.6595 297.6945 
L 388.9095 297.6945 
" style="fill: none; stroke: #000000; stroke-width: 0.8; stroke-linejoin: miter; stroke-linecap: square"/>
   </g>
   <g id="text_47">
    <!-- Conductance scaling drug block -->
    <g transform="translate(254.007 199.2945)scale(0.096 -0.096)">
     <use xlink:href="#DejaVuSans-43"/>
     <use xlink:href="#DejaVuSans-6f" x="69.824219"/>
     <use xlink:href="#DejaVuSans-6e" x="131.005859"/>
     <use xlink:href="#DejaVuSans-64" x="194.384766"/>
     <use xlink:href="#DejaVuSans-75" x="257.861328"/>
     <use xlink:href="#DejaVuSans-63" x="321.240234"/>
     <use xlink:href="#DejaVuSans-74" x="376.220703"/>
     <use xlink:href="#DejaVuSans-61" x="415.429688"/>
     <use xlink:href="#DejaVuSans-6e" x="476.708984"/>
     <use xlink:href="#DejaVuSans-63" x="540.087891"/>
     <use xlink:href="#DejaVuSans-65" x="595.068359"/>
     <use xlink:href="#DejaVuSans-20" x="656.591797"/>
     <use xlink:href="#DejaVuSans-73" x="688.378906"/>
     <use xlink:href="#DejaVuSans-63" x="740.478516"/>
     <use xlink:href="#DejaVuSans-61" x="795.458984"/>
     <use xlink:href="#DejaVuSans-6c" x="856.738281"/>
     <use xlink:href="#DejaVuSans-69" x="884.521484"/>
     <use xlink:href="#DejaVuSans-6e" x="912.304688"/>
     <use xlink:href="#DejaVuSans-67" x="975.683594"/>
     <use xlink:href="#DejaVuSans-20" x="1039.160156"/>
     <use xlink:href="#DejaVuSans-64" x="1070.947266"/>
     <use xlink:href="#DejaVuSans-72" x="1134.423828"/>
     <use xlink:href="#DejaVuSans-75" x="1175.537109"/>
     <use xlink:href="#DejaVuSans-67" x="1238.916016"/>
     <use xlink:href="#DejaVuSans-20" x="1302.392578"/>
     <use xlink:href="#DejaVuSans-62" x="1334.179688"/>
     <use xlink:href="#DejaVuSans-6c" x="1397.65625"/>
     <use xlink:href="#DejaVuSans-6f" x="1425.439453"/>
     <use xlink:href="#DejaVuSans-63" x="1486.621094"/>
     <use xlink:href="#DejaVuSans-6b" x="1541.601562"/>
    </g>
   </g>
  </g>
  <g id="axes_5">
   <g id="patch_14">
    <path d="M 493.5345 297.6945 
L 609.7845 297.6945 
L 609.7845 205.2945 
L 493.5345 205.2945 
z
" style="fill: #ffffff"/>
   </g>
   <g id="matplotlib.axis_9">
    <g id="xtick_21">
     <g id="line2d_75">
      <g>
       <use xlink:href="#m953707ac26" x="516.432227" y="297.6945" style="stroke: #000000; stroke-width: 0.8"/>
      </g>
     </g>
     <g id="text_48">
      <!-- $\mathdefault{10^{0}}$ -->
      <g transform="translate(509.392227 310.77325)scale(0.08 -0.08)">
       <use xlink:href="#DejaVuSans-31" transform="translate(0 0.765625)"/>
       <use xlink:href="#DejaVuSans-30" transform="translate(63.623047 0.765625)"/>
       <use xlink:href="#DejaVuSans-30" transform="translate(128.203125 39.046875)scale(0.7)"/>
      </g>
     </g>
    </g>
    <g id="xtick_22">
     <g id="line2d_76">
      <g>
       <use xlink:href="#m953707ac26" x="551.6595" y="297.6945" style="stroke: #000000; stroke-width: 0.8"/>
      </g>
     </g>
     <g id="text_49">
      <!-- $\mathdefault{10^{2}}$ -->
      <g transform="translate(544.6195 310.77325)scale(0.08 -0.08)">
       <use xlink:href="#DejaVuSans-31" transform="translate(0 0.765625)"/>
       <use xlink:href="#DejaVuSans-30" transform="translate(63.623047 0.765625)"/>
       <use xlink:href="#DejaVuSans-32" transform="translate(128.203125 39.046875)scale(0.7)"/>
      </g>
     </g>
    </g>
    <g id="xtick_23">
     <g id="line2d_77">
      <g>
       <use xlink:href="#m953707ac26" x="586.886773" y="297.6945" style="stroke: #000000; stroke-width: 0.8"/>
      </g>
     </g>
     <g id="text_50">
      <!-- $\mathdefault{10^{4}}$ -->
      <g transform="translate(579.846773 310.77325)scale(0.08 -0.08)">
       <use xlink:href="#DejaVuSans-31" transform="translate(0 0.684375)"/>
       <use xlink:href="#DejaVuSans-30" transform="translate(63.623047 0.684375)"/>
       <use xlink:href="#DejaVuSans-34" transform="translate(128.203125 38.965625)scale(0.7)"/>
      </g>
     </g>
    </g>
    <g id="text_51">
     <!-- Drug concentration (nM) -->
     <g transform="translate(502.507625 322.51575)scale(0.08 -0.08)">
      <use xlink:href="#DejaVuSans-44"/>
      <use xlink:href="#DejaVuSans-72" x="77.001953"/>
      <use xlink:href="#DejaVuSans-75" x="118.115234"/>
      <use xlink:href="#DejaVuSans-67" x="181.494141"/>
      <use xlink:href="#DejaVuSans-20" x="244.970703"/>
      <use xlink:href="#DejaVuSans-63" x="276.757812"/>
      <use xlink:href="#DejaVuSans-6f" x="331.738281"/>
      <use xlink:href="#DejaVuSans-6e" x="392.919922"/>
      <use xlink:href="#DejaVuSans-63" x="456.298828"/>
      <use xlink:href="#DejaVuSans-65" x="511.279297"/>
      <use xlink:href="#DejaVuSans-6e" x="572.802734"/>
      <use xlink:href="#DejaVuSans-74" x="636.181641"/>
      <use xlink:href="#DejaVuSans-72" x="675.390625"/>
      <use xlink:href="#DejaVuSans-61" x="716.503906"/>
      <use xlink:href="#DejaVuSans-74" x="777.783203"/>
      <use xlink:href="#DejaVuSans-69" x="816.992188"/>
      <use xlink:href="#DejaVuSans-6f" x="844.775391"/>
      <use xlink:href="#DejaVuSans-6e" x="905.957031"/>
      <use xlink:href="#DejaVuSans-20" x="969.335938"/>
      <use xlink:href="#DejaVuSans-28" x="1001.123047"/>
      <use xlink:href="#DejaVuSans-6e" x="1040.136719"/>
      <use xlink:href="#DejaVuSans-4d" x="1103.515625"/>
      <use xlink:href="#DejaVuSans-29" x="1189.794922"/>
     </g>
    </g>
   </g>
   <g id="matplotlib.axis_10">
    <g id="ytick_17">
     <g id="line2d_78">
      <g>
       <use xlink:href="#mbc45092cf7" x="493.5345" y="293.4945" style="stroke: #000000; stroke-width: 0.8"/>
      </g>
     </g>
     <g id="text_52">
      <!-- 0.00 -->
      <g transform="translate(468.722 296.533875)scale(0.08 -0.08)">
       <use xlink:href="#DejaVuSans-30"/>
       <use xlink:href="#DejaVuSans-2e" x="63.623047"/>
       <use xlink:href="#DejaVuSans-30" x="95.410156"/>
       <use xlink:href="#DejaVuSans-30" x="159.033203"/>
      </g>
     </g>
    </g>
    <g id="ytick_18">
     <g id="line2d_79">
      <g>
       <use xlink:href="#mbc45092cf7" x="493.5345" y="272.491345" style="stroke: #000000; stroke-width: 0.8"/>
      </g>
     </g>
     <g id="text_53">
      <!-- 0.25 -->
      <g transform="translate(468.722 275.53072)scale(0.08 -0.08)">
       <use xlink:href="#DejaVuSans-30"/>
       <use xlink:href="#DejaVuSans-2e" x="63.623047"/>
       <use xlink:href="#DejaVuSans-32" x="95.410156"/>
       <use xlink:href="#DejaVuSans-35" x="159.033203"/>
      </g>
     </g>
    </g>
    <g id="ytick_19">
     <g id="line2d_80">
      <g>
       <use xlink:href="#mbc45092cf7" x="493.5345" y="251.48819" style="stroke: #000000; stroke-width: 0.8"/>
      </g>
     </g>
     <g id="text_54">
      <!-- 0.50 -->
      <g transform="translate(468.722 254.527565)scale(0.08 -0.08)">
       <use xlink:href="#DejaVuSans-30"/>
       <use xlink:href="#DejaVuSans-2e" x="63.623047"/>
       <use xlink:href="#DejaVuSans-35" x="95.410156"/>
       <use xlink:href="#DejaVuSans-30" x="159.033203"/>
      </g>
     </g>
    </g>
    <g id="ytick_20">
     <g id="line2d_81">
      <g>
       <use xlink:href="#mbc45092cf7" x="493.5345" y="230.485035" style="stroke: #000000; stroke-width: 0.8"/>
      </g>
     </g>
     <g id="text_55">
      <!-- 0.75 -->
      <g transform="translate(468.722 233.52441)scale(0.08 -0.08)">
       <use xlink:href="#DejaVuSans-30"/>
       <use xlink:href="#DejaVuSans-2e" x="63.623047"/>
       <use xlink:href="#DejaVuSans-37" x="95.410156"/>
       <use xlink:href="#DejaVuSans-35" x="159.033203"/>
      </g>
     </g>
    </g>
    <g id="ytick_21">
     <g id="line2d_82">
      <g>
       <use xlink:href="#mbc45092cf7" x="493.5345" y="209.48188" style="stroke: #000000; stroke-width: 0.8"/>
      </g>
     </g>
     <g id="text_56">
      <!-- 1.00 -->
      <g transform="translate(468.722 212.521255)scale(0.08 -0.08)">
       <use xlink:href="#DejaVuSans-31"/>
       <use xlink:href="#DejaVuSans-2e" x="63.623047"/>
       <use xlink:href="#DejaVuSans-30" x="95.410156"/>
       <use xlink:href="#DejaVuSans-30" x="159.033203"/>
      </g>
     </g>
    </g>
    <g id="text_57">
     <!-- Ionic conductance scale -->
     <g transform="translate(463.05825 299.487625)rotate(-90)scale(0.08 -0.08)">
      <defs>
       <path id="DejaVuSans-49" d="M 628 4666 
L 1259 4666 
L 1259 0 
L 628 0 
L 628 4666 
z
" transform="scale(0.015625)"/>
      </defs>
      <use xlink:href="#DejaVuSans-49"/>
      <use xlink:href="#DejaVuSans-6f" x="29.492188"/>
      <use xlink:href="#DejaVuSans-6e" x="90.673828"/>
      <use xlink:href="#DejaVuSans-69" x="154.052734"/>
      <use xlink:href="#DejaVuSans-63" x="181.835938"/>
      <use xlink:href="#DejaVuSans-20" x="236.816406"/>
      <use xlink:href="#DejaVuSans-63" x="268.603516"/>
      <use xlink:href="#DejaVuSans-6f" x="323.583984"/>
      <use xlink:href="#DejaVuSans-6e" x="384.765625"/>
      <use xlink:href="#DejaVuSans-64" x="448.144531"/>
      <use xlink:href="#DejaVuSans-75" x="511.621094"/>
      <use xlink:href="#DejaVuSans-63" x="575"/>
      <use xlink:href="#DejaVuSans-74" x="629.980469"/>
      <use xlink:href="#DejaVuSans-61" x="669.189453"/>
      <use xlink:href="#DejaVuSans-6e" x="730.46875"/>
      <use xlink:href="#DejaVuSans-63" x="793.847656"/>
      <use xlink:href="#DejaVuSans-65" x="848.828125"/>
      <use xlink:href="#DejaVuSans-20" x="910.351562"/>
      <use xlink:href="#DejaVuSans-73" x="942.138672"/>
      <use xlink:href="#DejaVuSans-63" x="994.238281"/>
      <use xlink:href="#DejaVuSans-61" x="1049.21875"/>
      <use xlink:href="#DejaVuSans-6c" x="1110.498047"/>
      <use xlink:href="#DejaVuSans-65" x="1138.28125"/>
     </g>
    </g>
   </g>
   <g id="line2d_83">
    <g clip-path="url(#pc8b80871ca)">
     <use xlink:href="#mca97e936e3" x="498.818591" y="209.4945" style="stroke: #000000"/>
     <use xlink:href="#mca97e936e3" x="516.432227" y="209.603019" style="stroke: #000000"/>
     <use xlink:href="#mca97e936e3" x="542.449704" y="212.677481" style="stroke: #000000"/>
     <use xlink:href="#mca97e936e3" x="560.06334" y="229.180976" style="stroke: #000000"/>
     <use xlink:href="#mca97e936e3" x="563.970903" y="236.074446" style="stroke: #000000"/>
     <use xlink:href="#mca97e936e3" x="569.273136" y="246.970059" style="stroke: #000000"/>
     <use xlink:href="#mca97e936e3" x="586.886773" y="283.063844" style="stroke: #000000"/>
     <use xlink:href="#mca97e936e3" x="604.500409" y="293.4945" style="stroke: #000000"/>
    </g>
   </g>
   <g id="line2d_84">
    <path d="M 498.818591 209.499415 
L 504.380792 209.515678 
L 509.942993 209.547013 
L 515.505194 209.607355 
L 521.067395 209.72344 
L 526.629596 209.946329 
L 532.191797 210.372693 
L 537.753998 211.182489 
L 543.316199 212.699934 
L 548.8784 215.472837 
L 554.4406 220.314711 
L 560.002801 228.13426 
L 565.565002 239.298466 
L 571.127203 252.723965 
L 576.689404 265.901448 
L 582.251605 276.494255 
L 587.813806 283.724716 
L 593.376007 288.126302 
L 598.938208 290.621576 
L 604.500409 291.979329 
" clip-path="url(#pc8b80871ca)" style="fill: none; stroke: #000000; stroke-width: 1.5; stroke-linecap: square"/>
   </g>
   <g id="patch_15">
    <path d="M 493.5345 297.6945 
L 493.5345 205.2945 
" style="fill: none; stroke: #000000; stroke-width: 0.8; stroke-linejoin: miter; stroke-linecap: square"/>
   </g>
   <g id="patch_16">
    <path d="M 493.5345 297.6945 
L 609.7845 297.6945 
" style="fill: none; stroke: #000000; stroke-width: 0.8; stroke-linejoin: miter; stroke-linecap: square"/>
   </g>
   <g id="text_58">
    <!-- Fitted Hill curve -->
    <g transform="translate(514.03875 199.2945)scale(0.096 -0.096)">
     <defs>
      <path id="DejaVuSans-48" d="M 628 4666 
L 1259 4666 
L 1259 2753 
L 3553 2753 
L 3553 4666 
L 4184 4666 
L 4184 0 
L 3553 0 
L 3553 2222 
L 1259 2222 
L 1259 0 
L 628 0 
L 628 4666 
z
" transform="scale(0.015625)"/>
      <path id="DejaVuSans-76" d="M 191 3500 
L 800 3500 
L 1894 563 
L 2988 3500 
L 3597 3500 
L 2284 0 
L 1503 0 
L 191 3500 
z
" transform="scale(0.015625)"/>
     </defs>
     <use xlink:href="#DejaVuSans-46"/>
     <use xlink:href="#DejaVuSans-69" x="50.269531"/>
     <use xlink:href="#DejaVuSans-74" x="78.052734"/>
     <use xlink:href="#DejaVuSans-74" x="117.261719"/>
     <use xlink:href="#DejaVuSans-65" x="156.470703"/>
     <use xlink:href="#DejaVuSans-64" x="217.994141"/>
     <use xlink:href="#DejaVuSans-20" x="281.470703"/>
     <use xlink:href="#DejaVuSans-48" x="313.257812"/>
     <use xlink:href="#DejaVuSans-69" x="388.453125"/>
     <use xlink:href="#DejaVuSans-6c" x="416.236328"/>
     <use xlink:href="#DejaVuSans-6c" x="444.019531"/>
     <use xlink:href="#DejaVuSans-20" x="471.802734"/>
     <use xlink:href="#DejaVuSans-63" x="503.589844"/>
     <use xlink:href="#DejaVuSans-75" x="558.570312"/>
     <use xlink:href="#DejaVuSans-72" x="621.949219"/>
     <use xlink:href="#DejaVuSans-76" x="663.0625"/>
     <use xlink:href="#DejaVuSans-65" x="722.242188"/>
    </g>
   </g>
  </g>
 </g>
 <defs>
  <clipPath id="p616d1f507c">
   <rect x="272.6595" y="20.4945" width="116.25" height="92.4"/>
  </clipPath>
  <clipPath id="p99da210abe">
   <rect x="493.5345" y="20.4945" width="116.25" height="92.4"/>
  </clipPath>
  <clipPath id="pb3c06f2fad">
   <rect x="51.7845" y="205.2945" width="116.25" height="92.4"/>
  </clipPath>
  <clipPath id="p532d7b7746">
   <rect x="272.6595" y="205.2945" width="116.25" height="92.4"/>
  </clipPath>
  <clipPath id="pc8b80871ca">
   <rect x="493.5345" y="205.2945" width="116.25" height="92.4"/>
  </clipPath>
 </defs>
</svg>
