<?xml version="1.0" encoding="utf-8" standalone="no"?>
<!DOCTYPE svg PUBLIC "-//W3C//DTD SVG 1.1//EN"
  "http://www.w3.org/Graphics/SVG/1.1/DTD/svg11.dtd">
<svg xmlns:xlink="http://www.w3.org/1999/xlink" width="616.9845pt" height="331.3795pt" viewBox="0 0 616.9845 331.3795" xmlns="http://www.w3.org/2000/svg" version="1.1">
 <metadata>
  <rdf:RDF xmlns:dc="http://purl.org/dc/elements/1.1/" xmlns:cc="http://creativecommons.org/ns#" xmlns:rdf="http://www.w3.org/1999/02/22-rdf-syntax-ns#">
   <cc:Work>
    <dc:type rdf:resource="http://purl.org/dc/dcmitype/StillImage"/>
    <dc:date>2022-12-05T11:04:04.993598</dc:date>
    <dc:format>image/svg+xml</dc:format>
    <dc:creator>
     <cc:Agent>
      <dc:title>Matplotlib v3.5.2, https://matplotlib.org/</dc:title>
     </cc:Agent>
    </dc:creator>
   </cc:Work>
  </rdf:RDF>
 </metadata>
 <defs>
  <style type="text/css">*{stroke-linejoin: round; stroke-linecap: butt}</style>
 </defs>
 <g id="figure_1">
  <g id="patch_1">
   <path d="M 0 331.3795 
L 616.9845 331.3795 
L 616.9845 0 
L 0 0 
z
" style="fill: #ffffff"/>
  </g>
  <g id="axes_1">
   <g id="patch_2">
    <path d="M 272.6595 112.8945 
L 388.9095 112.8945 
L 388.9095 20.4945 
L 272.6595 20.4945 
z
" style="fill: #ffffff"/>
   </g>
   <g id="line2d_1">
    <path d="M 272.6595 108.642097 
L 277.309035 108.645077 
L 277.47132 80.607398 
L 277.79031 38.801969 
L 278.05443 28.629508 
L 278.312505 25.791718 
L 278.571045 24.996986 
L 278.856555 24.767176 
L 279.36666 24.70021 
L 283.48935 24.694533 
L 323.809035 24.694533 
L 323.8095 101.184456 
L 323.92017 93.199665 
L 324.18894 103.900806 
L 324.458175 107.189343 
L 324.728805 108.199686 
L 325.017105 108.517427 
L 325.44072 108.622709 
L 326.978475 108.64207 
L 388.909965 108.642097 
L 388.909965 108.642097 
" clip-path="url(#pf0ef2dcff6)" style="fill: none; stroke: #440154; stroke-width: 1.5; stroke-linecap: square"/>
   </g>
   <g id="line2d_2">
    <path d="M 272.6595 108.642074 
L 277.309035 108.645063 
L 277.47132 80.609642 
L 277.79031 38.808537 
L 278.05443 28.63794 
L 278.312505 25.801355 
L 278.571045 25.007566 
L 278.856555 24.77863 
L 279.367125 24.712925 
L 283.66884 24.711922 
L 323.809035 24.715882 
L 323.8095 101.186359 
L 323.92017 93.20368 
L 324.18894 103.902054 
L 324.458175 107.189667 
L 324.728805 108.199709 
L 325.017105 108.517352 
L 325.44072 108.622604 
L 326.97894 108.64198 
L 388.909965 108.642095 
L 388.909965 108.642095 
" clip-path="url(#pf0ef2dcff6)" style="fill: none; stroke: #46327e; stroke-width: 1.5; stroke-linecap: square"/>
   </g>
   <g id="line2d_3">
    <path d="M 272.6595 108.641842 
L 277.309035 108.644925 
L 277.470855 80.725548 
L 277.79031 38.874379 
L 278.05443 28.722483 
L 278.31204 25.900502 
L 278.56965 25.11573 
L 278.85237 24.894904 
L 279.35829 24.840611 
L 288.524835 24.904633 
L 323.809035 24.929822 
L 323.8095 101.20543 
L 323.92017 93.243917 
L 324.18894 103.914536 
L 324.458175 107.192915 
L 324.728805 108.199939 
L 325.01757 108.516858 
L 325.44258 108.62171 
L 326.996145 108.641083 
L 388.909965 108.642074 
L 388.909965 108.642074 
" clip-path="url(#pf0ef2dcff6)" style="fill: none; stroke: #365c8d; stroke-width: 1.5; stroke-linecap: square"/>
   </g>
   <g id="line2d_4">
    <path d="M 272.6595 108.633952 
L 277.309035 108.640144 
L 277.45737 84.144967 
L 277.783335 41.598602 
L 278.0442 31.840235 
L 278.29158 29.35198 
L 278.518035 28.840643 
L 278.72496 28.831112 
L 279.14253 29.120843 
L 280.258065 29.867117 
L 281.438235 30.362999 
L 283.051785 30.785788 
L 285.420495 31.159919 
L 289.001925 31.483985 
L 294.552165 31.743889 
L 304.636155 31.960691 
L 323.809035 32.178459 
L 323.8095 101.851568 
L 323.92017 94.60706 
L 324.188475 104.327802 
L 324.45678 107.294964 
L 324.72741 108.205573 
L 325.019895 108.492796 
L 325.4742 108.588792 
L 327.42069 108.612584 
L 361.371735 108.640532 
L 388.909965 108.641362 
L 388.909965 108.641362 
" clip-path="url(#pf0ef2dcff6)" style="fill: none; stroke: #277f8e; stroke-width: 1.5; stroke-linecap: square"/>
   </g>
   <g id="line2d_5">
    <path d="M 272.6595 108.592589 
L 277.309035 108.61408 
L 277.433655 91.947869 
L 277.760085 56.318316 
L 277.99026 50.467582 
L 278.107905 50.02451 
L 278.148825 50.069649 
L 278.272515 50.572587 
L 278.677065 53.49485 
L 279.33411 57.539319 
L 279.93582 59.913547 
L 280.572405 61.561297 
L 281.27316 62.776539 
L 282.07947 63.734091 
L 283.055505 64.54392 
L 284.28264 65.26562 
L 285.84225 65.916997 
L 287.8092 66.489619 
L 290.31648 66.978266 
L 293.67471 67.393036 
L 298.6437 67.763586 
L 307.328505 68.159184 
L 323.809035 68.665826 
L 323.8095 105.104026 
L 323.92017 101.462571 
L 324.1815 106.383039 
L 324.44376 107.819845 
L 324.71625 108.249245 
L 325.075695 108.390994 
L 326.086605 108.448141 
L 334.944855 108.576294 
L 357.968865 108.630844 
L 388.909965 108.637657 
L 388.909965 108.637657 
" clip-path="url(#pf0ef2dcff6)" style="fill: none; stroke: #1fa187; stroke-width: 1.5; stroke-linecap: square"/>
   </g>
   <g id="line2d_6">
    <path d="M 272.6595 108.56429 
L 277.309035 108.592929 
L 277.42761 95.612287 
L 277.719165 71.874714 
L 277.865175 70.014414 
L 277.89261 70.061787 
L 277.98468 70.763717 
L 278.28321 75.318626 
L 278.80494 81.960523 
L 279.240645 84.883068 
L 279.68658 86.486028 
L 280.1739 87.45413 
L 280.75794 88.125967 
L 281.556345 88.691199 
L 282.76023 89.253282 
L 284.45469 89.790547 
L 286.634145 90.239995 
L 289.540395 90.599287 
L 293.85699 90.889167 
L 301.69875 91.159792 
L 319.717035 91.519386 
L 323.809035 91.582031 
L 323.8095 107.146759 
L 323.92017 105.753745 
L 324.165225 107.676891 
L 324.41679 108.17919 
L 324.73485 108.323581 
L 325.646715 108.379923 
L 334.259445 108.537392 
L 353.04684 108.617398 
L 388.909965 108.635114 
L 388.909965 108.635114 
" clip-path="url(#pf0ef2dcff6)" style="fill: none; stroke: #4ac16d; stroke-width: 1.5; stroke-linecap: square"/>
   </g>
   <g id="line2d_7">
    <path d="M 272.6595 108.586253 
L 277.309035 108.596022 
L 277.42296 104.004549 
L 277.549905 102.307354 
L 277.587105 102.397235 
L 277.727535 103.545163 
L 278.078145 105.826437 
L 278.35482 106.354901 
L 278.68962 106.523431 
L 279.507555 106.596396 
L 284.83134 106.723427 
L 299.313765 106.789455 
L 323.809035 106.821671 
L 323.8095 108.505209 
L 323.92017 108.482189 
L 324.12756 108.544572 
L 327.81873 108.561107 
L 377.699745 108.628623 
L 388.909965 108.632575 
L 388.909965 108.632575 
" clip-path="url(#pf0ef2dcff6)" style="fill: none; stroke: #a0da39; stroke-width: 1.5; stroke-linecap: square"/>
   </g>
   <g id="line2d_8">
    <path d="M 272.6595 108.656096 
L 277.309035 108.656347 
L 277.4211 108.369519 
L 277.639185 108.406709 
L 278.264145 108.494759 
L 282.60492 108.500133 
L 323.809035 108.500287 
L 323.92017 108.655324 
L 388.909965 108.657829 
L 388.909965 108.657829 
" clip-path="url(#pf0ef2dcff6)" style="fill: none; stroke: #fde725; stroke-width: 1.5; stroke-linecap: square"/>
   </g>
   <g id="matplotlib.axis_1">
    <g id="xtick_1">
     <g id="line2d_9">
      <defs>
       <path id="mc54116c63d" d="M 0 0 
L 0 3.5 
" style="stroke: #000000; stroke-width: 0.8"/>
      </defs>
      <g>
       <use xlink:href="#mc54116c63d" x="272.6595" y="112.8945" style="stroke: #000000; stroke-width: 0.8"/>
      </g>
     </g>
     <g id="text_1">
      <!-- 0 -->
      <g transform="translate(270.1145 125.97325)scale(0.08 -0.08)">
       <defs>
        <path id="DejaVuSans-30" d="M 2034 4250 
Q 1547 4250 1301 3770 
Q 1056 3291 1056 2328 
Q 1056 1369 1301 889 
Q 1547 409 2034 409 
Q 2525 409 2770 889 
Q 3016 1369 3016 2328 
Q 3016 3291 2770 3770 
Q 2525 4250 2034 4250 
z
M 2034 4750 
Q 2819 4750 3233 4129 
Q 3647 3509 3647 2328 
Q 3647 1150 3233 529 
Q 2819 -91 2034 -91 
Q 1250 -91 836 529 
Q 422 1150 422 2328 
Q 422 3509 836 4129 
Q 1250 4750 2034 4750 
z
" transform="scale(0.015625)"/>
       </defs>
       <use xlink:href="#DejaVuSans-30"/>
      </g>
     </g>
    </g>
    <g id="xtick_2">
     <g id="line2d_10">
      <g>
       <use xlink:href="#mc54116c63d" x="295.9095" y="112.8945" style="stroke: #000000; stroke-width: 0.8"/>
      </g>
     </g>
     <g id="text_2">
      <!-- 5 -->
      <g transform="translate(293.3645 125.97325)scale(0.08 -0.08)">
       <defs>
        <path id="DejaVuSans-35" d="M 691 4666 
L 3169 4666 
L 3169 4134 
L 1269 4134 
L 1269 2991 
Q 1406 3038 1543 3061 
Q 1681 3084 1819 3084 
Q 2600 3084 3056 2656 
Q 3513 2228 3513 1497 
Q 3513 744 3044 326 
Q 2575 -91 1722 -91 
Q 1428 -91 1123 -41 
Q 819 9 494 109 
L 494 744 
Q 775 591 1075 516 
Q 1375 441 1709 441 
Q 2250 441 2565 725 
Q 2881 1009 2881 1497 
Q 2881 1984 2565 2268 
Q 2250 2553 1709 2553 
Q 1456 2553 1204 2497 
Q 953 2441 691 2322 
L 691 4666 
z
" transform="scale(0.015625)"/>
       </defs>
       <use xlink:href="#DejaVuSans-35"/>
      </g>
     </g>
    </g>
    <g id="xtick_3">
     <g id="line2d_11">
      <g>
       <use xlink:href="#mc54116c63d" x="319.1595" y="112.8945" style="stroke: #000000; stroke-width: 0.8"/>
      </g>
     </g>
     <g id="text_3">
      <!-- 10 -->
      <g transform="translate(314.0695 125.97325)scale(0.08 -0.08)">
       <defs>
        <path id="DejaVuSans-31" d="M 794 531 
L 1825 531 
L 1825 4091 
L 703 3866 
L 703 4441 
L 1819 4666 
L 2450 4666 
L 2450 531 
L 3481 531 
L 3481 0 
L 794 0 
L 794 531 
z
" transform="scale(0.015625)"/>
       </defs>
       <use xlink:href="#DejaVuSans-31"/>
       <use xlink:href="#DejaVuSans-30" x="63.623047"/>
      </g>
     </g>
    </g>
    <g id="xtick_4">
     <g id="line2d_12">
      <g>
       <use xlink:href="#mc54116c63d" x="342.4095" y="112.8945" style="stroke: #000000; stroke-width: 0.8"/>
      </g>
     </g>
     <g id="text_4">
      <!-- 15 -->
      <g transform="translate(337.3195 125.97325)scale(0.08 -0.08)">
       <use xlink:href="#DejaVuSans-31"/>
       <use xlink:href="#DejaVuSans-35" x="63.623047"/>
      </g>
     </g>
    </g>
    <g id="xtick_5">
     <g id="line2d_13">
      <g>
       <use xlink:href="#mc54116c63d" x="365.6595" y="112.8945" style="stroke: #000000; stroke-width: 0.8"/>
      </g>
     </g>
     <g id="text_5">
      <!-- 20 -->
      <g transform="translate(360.5695 125.97325)scale(0.08 -0.08)">
       <defs>
        <path id="DejaVuSans-32" d="M 1228 531 
L 3431 531 
L 3431 0 
L 469 0 
L 469 531 
Q 828 903 1448 1529 
Q 2069 2156 2228 2338 
Q 2531 2678 2651 2914 
Q 2772 3150 2772 3378 
Q 2772 3750 2511 3984 
Q 2250 4219 1831 4219 
Q 1534 4219 1204 4116 
Q 875 4013 500 3803 
L 500 4441 
Q 881 4594 1212 4672 
Q 1544 4750 1819 4750 
Q 2544 4750 2975 4387 
Q 3406 4025 3406 3419 
Q 3406 3131 3298 2873 
Q 3191 2616 2906 2266 
Q 2828 2175 2409 1742 
Q 1991 1309 1228 531 
z
" transform="scale(0.015625)"/>
       </defs>
       <use xlink:href="#DejaVuSans-32"/>
       <use xlink:href="#DejaVuSans-30" x="63.623047"/>
      </g>
     </g>
    </g>
    <g id="xtick_6">
     <g id="line2d_14">
      <g>
       <use xlink:href="#mc54116c63d" x="388.9095" y="112.8945" style="stroke: #000000; stroke-width: 0.8"/>
      </g>
     </g>
     <g id="text_6">
      <!-- 25 -->
      <g transform="translate(383.8195 125.97325)scale(0.08 -0.08)">
       <use xlink:href="#DejaVuSans-32"/>
       <use xlink:href="#DejaVuSans-35" x="63.623047"/>
      </g>
     </g>
    </g>
    <g id="text_7">
     <!-- Time (s) -->
     <g transform="translate(314.521375 137.71575)scale(0.08 -0.08)">
      <defs>
       <path id="DejaVuSans-54" d="M -19 4666 
L 3928 4666 
L 3928 4134 
L 2272 4134 
L 2272 0 
L 1638 0 
L 1638 4134 
L -19 4134 
L -19 4666 
z
" transform="scale(0.015625)"/>
       <path id="DejaVuSans-69" d="M 603 3500 
L 1178 3500 
L 1178 0 
L 603 0 
L 603 3500 
z
M 603 4863 
L 1178 4863 
L 1178 4134 
L 603 4134 
L 603 4863 
z
" transform="scale(0.015625)"/>
       <path id="DejaVuSans-6d" d="M 3328 2828 
Q 3544 3216 3844 3400 
Q 4144 3584 4550 3584 
Q 5097 3584 5394 3201 
Q 5691 2819 5691 2113 
L 5691 0 
L 5113 0 
L 5113 2094 
Q 5113 2597 4934 2840 
Q 4756 3084 4391 3084 
Q 3944 3084 3684 2787 
Q 3425 2491 3425 1978 
L 3425 0 
L 2847 0 
L 2847 2094 
Q 2847 2600 2669 2842 
Q 2491 3084 2119 3084 
Q 1678 3084 1418 2786 
Q 1159 2488 1159 1978 
L 1159 0 
L 581 0 
L 581 3500 
L 1159 3500 
L 1159 2956 
Q 1356 3278 1631 3431 
Q 1906 3584 2284 3584 
Q 2666 3584 2933 3390 
Q 3200 3197 3328 2828 
z
" transform="scale(0.015625)"/>
       <path id="DejaVuSans-65" d="M 3597 1894 
L 3597 1613 
L 953 1613 
Q 991 1019 1311 708 
Q 1631 397 2203 397 
Q 2534 397 2845 478 
Q 3156 559 3463 722 
L 3463 178 
Q 3153 47 2828 -22 
Q 2503 -91 2169 -91 
Q 1331 -91 842 396 
Q 353 884 353 1716 
Q 353 2575 817 3079 
Q 1281 3584 2069 3584 
Q 2775 3584 3186 3129 
Q 3597 2675 3597 1894 
z
M 3022 2063 
Q 3016 2534 2758 2815 
Q 2500 3097 2075 3097 
Q 1594 3097 1305 2825 
Q 1016 2553 972 2059 
L 3022 2063 
z
" transform="scale(0.015625)"/>
       <path id="DejaVuSans-20" transform="scale(0.015625)"/>
       <path id="DejaVuSans-28" d="M 1984 4856 
Q 1566 4138 1362 3434 
Q 1159 2731 1159 2009 
Q 1159 1288 1364 580 
Q 1569 -128 1984 -844 
L 1484 -844 
Q 1016 -109 783 600 
Q 550 1309 550 2009 
Q 550 2706 781 3412 
Q 1013 4119 1484 4856 
L 1984 4856 
z
" transform="scale(0.015625)"/>
       <path id="DejaVuSans-73" d="M 2834 3397 
L 2834 2853 
Q 2591 2978 2328 3040 
Q 2066 3103 1784 3103 
Q 1356 3103 1142 2972 
Q 928 2841 928 2578 
Q 928 2378 1081 2264 
Q 1234 2150 1697 2047 
L 1894 2003 
Q 2506 1872 2764 1633 
Q 3022 1394 3022 966 
Q 3022 478 2636 193 
Q 2250 -91 1575 -91 
Q 1294 -91 989 -36 
Q 684 19 347 128 
L 347 722 
Q 666 556 975 473 
Q 1284 391 1588 391 
Q 1994 391 2212 530 
Q 2431 669 2431 922 
Q 2431 1156 2273 1281 
Q 2116 1406 1581 1522 
L 1381 1569 
Q 847 1681 609 1914 
Q 372 2147 372 2553 
Q 372 3047 722 3315 
Q 1072 3584 1716 3584 
Q 2034 3584 2315 3537 
Q 2597 3491 2834 3397 
z
" transform="scale(0.015625)"/>
       <path id="DejaVuSans-29" d="M 513 4856 
L 1013 4856 
Q 1481 4119 1714 3412 
Q 1947 2706 1947 2009 
Q 1947 1309 1714 600 
Q 1481 -109 1013 -844 
L 513 -844 
Q 928 -128 1133 580 
Q 1338 1288 1338 2009 
Q 1338 2731 1133 3434 
Q 928 4138 513 4856 
z
" transform="scale(0.015625)"/>
      </defs>
      <use xlink:href="#DejaVuSans-54"/>
      <use xlink:href="#DejaVuSans-69" x="57.958984"/>
      <use xlink:href="#DejaVuSans-6d" x="85.742188"/>
      <use xlink:href="#DejaVuSans-65" x="183.154297"/>
      <use xlink:href="#DejaVuSans-20" x="244.677734"/>
      <use xlink:href="#DejaVuSans-28" x="276.464844"/>
      <use xlink:href="#DejaVuSans-73" x="315.478516"/>
      <use xlink:href="#DejaVuSans-29" x="367.578125"/>
     </g>
    </g>
   </g>
   <g id="matplotlib.axis_2">
    <g id="ytick_1">
     <g id="line2d_15">
      <defs>
       <path id="m614269bc84" d="M 0 0 
L -3.5 0 
" style="stroke: #000000; stroke-width: 0.8"/>
      </defs>
      <g>
       <use xlink:href="#m614269bc84" x="272.6595" y="108.669965" style="stroke: #000000; stroke-width: 0.8"/>
      </g>
     </g>
     <g id="text_8">
      <!-- 0.0 -->
      <g transform="translate(252.937 111.70934)scale(0.08 -0.08)">
       <defs>
        <path id="DejaVuSans-2e" d="M 684 794 
L 1344 794 
L 1344 0 
L 684 0 
L 684 794 
z
" transform="scale(0.015625)"/>
       </defs>
       <use xlink:href="#DejaVuSans-30"/>
       <use xlink:href="#DejaVuSans-2e" x="63.623047"/>
       <use xlink:href="#DejaVuSans-30" x="95.410156"/>
      </g>
     </g>
    </g>
    <g id="ytick_2">
     <g id="line2d_16">
      <g>
       <use xlink:href="#m614269bc84" x="272.6595" y="86.040274" style="stroke: #000000; stroke-width: 0.8"/>
      </g>
     </g>
     <g id="text_9">
      <!-- 0.2 -->
      <g transform="translate(252.937 89.079649)scale(0.08 -0.08)">
       <use xlink:href="#DejaVuSans-30"/>
       <use xlink:href="#DejaVuSans-2e" x="63.623047"/>
       <use xlink:href="#DejaVuSans-32" x="95.410156"/>
      </g>
     </g>
    </g>
    <g id="ytick_3">
     <g id="line2d_17">
      <g>
       <use xlink:href="#m614269bc84" x="272.6595" y="63.410584" style="stroke: #000000; stroke-width: 0.8"/>
      </g>
     </g>
     <g id="text_10">
      <!-- 0.4 -->
      <g transform="translate(252.937 66.449959)scale(0.08 -0.08)">
       <defs>
        <path id="DejaVuSans-34" d="M 2419 4116 
L 825 1625 
L 2419 1625 
L 2419 4116 
z
M 2253 4666 
L 3047 4666 
L 3047 1625 
L 3713 1625 
L 3713 1100 
L 3047 1100 
L 3047 0 
L 2419 0 
L 2419 1100 
L 313 1100 
L 313 1709 
L 2253 4666 
z
" transform="scale(0.015625)"/>
       </defs>
       <use xlink:href="#DejaVuSans-30"/>
       <use xlink:href="#DejaVuSans-2e" x="63.623047"/>
       <use xlink:href="#DejaVuSans-34" x="95.410156"/>
      </g>
     </g>
    </g>
    <g id="ytick_4">
     <g id="line2d_18">
      <g>
       <use xlink:href="#m614269bc84" x="272.6595" y="40.780893" style="stroke: #000000; stroke-width: 0.8"/>
      </g>
     </g>
     <g id="text_11">
      <!-- 0.6 -->
      <g transform="translate(252.937 43.820268)scale(0.08 -0.08)">
       <defs>
        <path id="DejaVuSans-36" d="M 2113 2584 
Q 1688 2584 1439 2293 
Q 1191 2003 1191 1497 
Q 1191 994 1439 701 
Q 1688 409 2113 409 
Q 2538 409 2786 701 
Q 3034 994 3034 1497 
Q 3034 2003 2786 2293 
Q 2538 2584 2113 2584 
z
M 3366 4563 
L 3366 3988 
Q 3128 4100 2886 4159 
Q 2644 4219 2406 4219 
Q 1781 4219 1451 3797 
Q 1122 3375 1075 2522 
Q 1259 2794 1537 2939 
Q 1816 3084 2150 3084 
Q 2853 3084 3261 2657 
Q 3669 2231 3669 1497 
Q 3669 778 3244 343 
Q 2819 -91 2113 -91 
Q 1303 -91 875 529 
Q 447 1150 447 2328 
Q 447 3434 972 4092 
Q 1497 4750 2381 4750 
Q 2619 4750 2861 4703 
Q 3103 4656 3366 4563 
z
" transform="scale(0.015625)"/>
       </defs>
       <use xlink:href="#DejaVuSans-30"/>
       <use xlink:href="#DejaVuSans-2e" x="63.623047"/>
       <use xlink:href="#DejaVuSans-36" x="95.410156"/>
      </g>
     </g>
    </g>
    <g id="text_12">
     <!-- Current (A/F) -->
     <g transform="translate(247.27325 92.492625)rotate(-90)scale(0.08 -0.08)">
      <defs>
       <path id="DejaVuSans-43" d="M 4122 4306 
L 4122 3641 
Q 3803 3938 3442 4084 
Q 3081 4231 2675 4231 
Q 1875 4231 1450 3742 
Q 1025 3253 1025 2328 
Q 1025 1406 1450 917 
Q 1875 428 2675 428 
Q 3081 428 3442 575 
Q 3803 722 4122 1019 
L 4122 359 
Q 3791 134 3420 21 
Q 3050 -91 2638 -91 
Q 1578 -91 968 557 
Q 359 1206 359 2328 
Q 359 3453 968 4101 
Q 1578 4750 2638 4750 
Q 3056 4750 3426 4639 
Q 3797 4528 4122 4306 
z
" transform="scale(0.015625)"/>
       <path id="DejaVuSans-75" d="M 544 1381 
L 544 3500 
L 1119 3500 
L 1119 1403 
Q 1119 906 1312 657 
Q 1506 409 1894 409 
Q 2359 409 2629 706 
Q 2900 1003 2900 1516 
L 2900 3500 
L 3475 3500 
L 3475 0 
L 2900 0 
L 2900 538 
Q 2691 219 2414 64 
Q 2138 -91 1772 -91 
Q 1169 -91 856 284 
Q 544 659 544 1381 
z
M 1991 3584 
L 1991 3584 
z
" transform="scale(0.015625)"/>
       <path id="DejaVuSans-72" d="M 2631 2963 
Q 2534 3019 2420 3045 
Q 2306 3072 2169 3072 
Q 1681 3072 1420 2755 
Q 1159 2438 1159 1844 
L 1159 0 
L 581 0 
L 581 3500 
L 1159 3500 
L 1159 2956 
Q 1341 3275 1631 3429 
Q 1922 3584 2338 3584 
Q 2397 3584 2469 3576 
Q 2541 3569 2628 3553 
L 2631 2963 
z
" transform="scale(0.015625)"/>
       <path id="DejaVuSans-6e" d="M 3513 2113 
L 3513 0 
L 2938 0 
L 2938 2094 
Q 2938 2591 2744 2837 
Q 2550 3084 2163 3084 
Q 1697 3084 1428 2787 
Q 1159 2491 1159 1978 
L 1159 0 
L 581 0 
L 581 3500 
L 1159 3500 
L 1159 2956 
Q 1366 3272 1645 3428 
Q 1925 3584 2291 3584 
Q 2894 3584 3203 3211 
Q 3513 2838 3513 2113 
z
" transform="scale(0.015625)"/>
       <path id="DejaVuSans-74" d="M 1172 4494 
L 1172 3500 
L 2356 3500 
L 2356 3053 
L 1172 3053 
L 1172 1153 
Q 1172 725 1289 603 
Q 1406 481 1766 481 
L 2356 481 
L 2356 0 
L 1766 0 
Q 1100 0 847 248 
Q 594 497 594 1153 
L 594 3053 
L 172 3053 
L 172 3500 
L 594 3500 
L 594 4494 
L 1172 4494 
z
" transform="scale(0.015625)"/>
       <path id="DejaVuSans-41" d="M 2188 4044 
L 1331 1722 
L 3047 1722 
L 2188 4044 
z
M 1831 4666 
L 2547 4666 
L 4325 0 
L 3669 0 
L 3244 1197 
L 1141 1197 
L 716 0 
L 50 0 
L 1831 4666 
z
" transform="scale(0.015625)"/>
       <path id="DejaVuSans-2f" d="M 1625 4666 
L 2156 4666 
L 531 -594 
L 0 -594 
L 1625 4666 
z
" transform="scale(0.015625)"/>
       <path id="DejaVuSans-46" d="M 628 4666 
L 3309 4666 
L 3309 4134 
L 1259 4134 
L 1259 2759 
L 3109 2759 
L 3109 2228 
L 1259 2228 
L 1259 0 
L 628 0 
L 628 4666 
z
" transform="scale(0.015625)"/>
      </defs>
      <use xlink:href="#DejaVuSans-43"/>
      <use xlink:href="#DejaVuSans-75" x="69.824219"/>
      <use xlink:href="#DejaVuSans-72" x="133.203125"/>
      <use xlink:href="#DejaVuSans-72" x="172.566406"/>
      <use xlink:href="#DejaVuSans-65" x="211.429688"/>
      <use xlink:href="#DejaVuSans-6e" x="272.953125"/>
      <use xlink:href="#DejaVuSans-74" x="336.332031"/>
      <use xlink:href="#DejaVuSans-20" x="375.541016"/>
      <use xlink:href="#DejaVuSans-28" x="407.328125"/>
      <use xlink:href="#DejaVuSans-41" x="446.341797"/>
      <use xlink:href="#DejaVuSans-2f" x="514.75"/>
      <use xlink:href="#DejaVuSans-46" x="548.441406"/>
      <use xlink:href="#DejaVuSans-29" x="605.960938"/>
     </g>
    </g>
   </g>
   <g id="line2d_19">
    <defs>
     <path id="mfd8f5b1875" d="M -3 3 
L 3 -3 
M -3 -3 
L 3 3 
" style="stroke: #000000"/>
    </defs>
    <g clip-path="url(#pf0ef2dcff6)">
     <use xlink:href="#mfd8f5b1875" x="279.93117" y="24.708703" style="stroke: #000000"/>
     <use xlink:href="#mfd8f5b1875" x="279.400605" y="24.840505" style="stroke: #000000"/>
     <use xlink:href="#mfd8f5b1875" x="278.6208" y="28.807855" style="stroke: #000000"/>
     <use xlink:href="#mfd8f5b1875" x="278.106045" y="50.024405" style="stroke: #000000"/>
     <use xlink:href="#mfd8f5b1875" x="277.865175" y="70.014414" style="stroke: #000000"/>
     <use xlink:href="#mfd8f5b1875" x="277.549905" y="102.307354" style="stroke: #000000"/>
     <use xlink:href="#mfd8f5b1875" x="277.46481" y="108.362118" style="stroke: #000000"/>
    </g>
   </g>
   <g id="patch_3">
    <path d="M 272.6595 112.8945 
L 272.6595 20.4945 
" style="fill: none; stroke: #000000; stroke-width: 0.8; stroke-linejoin: miter; stroke-linecap: square"/>
   </g>
   <g id="patch_4">
    <path d="M 272.6595 112.8945 
L 388.9095 112.8945 
" style="fill: none; stroke: #000000; stroke-width: 0.8; stroke-linejoin: miter; stroke-linecap: square"/>
   </g>
   <g id="text_13">
    <!-- State-dependent drug block -->
    <g transform="translate(263.48175 14.4945)scale(0.096 -0.096)">
     <defs>
      <path id="DejaVuSans-53" d="M 3425 4513 
L 3425 3897 
Q 3066 4069 2747 4153 
Q 2428 4238 2131 4238 
Q 1616 4238 1336 4038 
Q 1056 3838 1056 3469 
Q 1056 3159 1242 3001 
Q 1428 2844 1947 2747 
L 2328 2669 
Q 3034 2534 3370 2195 
Q 3706 1856 3706 1288 
Q 3706 609 3251 259 
Q 2797 -91 1919 -91 
Q 1588 -91 1214 -16 
Q 841 59 441 206 
L 441 856 
Q 825 641 1194 531 
Q 1563 422 1919 422 
Q 2459 422 2753 634 
Q 3047 847 3047 1241 
Q 3047 1584 2836 1778 
Q 2625 1972 2144 2069 
L 1759 2144 
Q 1053 2284 737 2584 
Q 422 2884 422 3419 
Q 422 4038 858 4394 
Q 1294 4750 2059 4750 
Q 2388 4750 2728 4690 
Q 3069 4631 3425 4513 
z
" transform="scale(0.015625)"/>
      <path id="DejaVuSans-61" d="M 2194 1759 
Q 1497 1759 1228 1600 
Q 959 1441 959 1056 
Q 959 750 1161 570 
Q 1363 391 1709 391 
Q 2188 391 2477 730 
Q 2766 1069 2766 1631 
L 2766 1759 
L 2194 1759 
z
M 3341 1997 
L 3341 0 
L 2766 0 
L 2766 531 
Q 2569 213 2275 61 
Q 1981 -91 1556 -91 
Q 1019 -91 701 211 
Q 384 513 384 1019 
Q 384 1609 779 1909 
Q 1175 2209 1959 2209 
L 2766 2209 
L 2766 2266 
Q 2766 2663 2505 2880 
Q 2244 3097 1772 3097 
Q 1472 3097 1187 3025 
Q 903 2953 641 2809 
L 641 3341 
Q 956 3463 1253 3523 
Q 1550 3584 1831 3584 
Q 2591 3584 2966 3190 
Q 3341 2797 3341 1997 
z
" transform="scale(0.015625)"/>
      <path id="DejaVuSans-2d" d="M 313 2009 
L 1997 2009 
L 1997 1497 
L 313 1497 
L 313 2009 
z
" transform="scale(0.015625)"/>
      <path id="DejaVuSans-64" d="M 2906 2969 
L 2906 4863 
L 3481 4863 
L 3481 0 
L 2906 0 
L 2906 525 
Q 2725 213 2448 61 
Q 2172 -91 1784 -91 
Q 1150 -91 751 415 
Q 353 922 353 1747 
Q 353 2572 751 3078 
Q 1150 3584 1784 3584 
Q 2172 3584 2448 3432 
Q 2725 3281 2906 2969 
z
M 947 1747 
Q 947 1113 1208 752 
Q 1469 391 1925 391 
Q 2381 391 2643 752 
Q 2906 1113 2906 1747 
Q 2906 2381 2643 2742 
Q 2381 3103 1925 3103 
Q 1469 3103 1208 2742 
Q 947 2381 947 1747 
z
" transform="scale(0.015625)"/>
      <path id="DejaVuSans-70" d="M 1159 525 
L 1159 -1331 
L 581 -1331 
L 581 3500 
L 1159 3500 
L 1159 2969 
Q 1341 3281 1617 3432 
Q 1894 3584 2278 3584 
Q 2916 3584 3314 3078 
Q 3713 2572 3713 1747 
Q 3713 922 3314 415 
Q 2916 -91 2278 -91 
Q 1894 -91 1617 61 
Q 1341 213 1159 525 
z
M 3116 1747 
Q 3116 2381 2855 2742 
Q 2594 3103 2138 3103 
Q 1681 3103 1420 2742 
Q 1159 2381 1159 1747 
Q 1159 1113 1420 752 
Q 1681 391 2138 391 
Q 2594 391 2855 752 
Q 3116 1113 3116 1747 
z
" transform="scale(0.015625)"/>
      <path id="DejaVuSans-67" d="M 2906 1791 
Q 2906 2416 2648 2759 
Q 2391 3103 1925 3103 
Q 1463 3103 1205 2759 
Q 947 2416 947 1791 
Q 947 1169 1205 825 
Q 1463 481 1925 481 
Q 2391 481 2648 825 
Q 2906 1169 2906 1791 
z
M 3481 434 
Q 3481 -459 3084 -895 
Q 2688 -1331 1869 -1331 
Q 1566 -1331 1297 -1286 
Q 1028 -1241 775 -1147 
L 775 -588 
Q 1028 -725 1275 -790 
Q 1522 -856 1778 -856 
Q 2344 -856 2625 -561 
Q 2906 -266 2906 331 
L 2906 616 
Q 2728 306 2450 153 
Q 2172 0 1784 0 
Q 1141 0 747 490 
Q 353 981 353 1791 
Q 353 2603 747 3093 
Q 1141 3584 1784 3584 
Q 2172 3584 2450 3431 
Q 2728 3278 2906 2969 
L 2906 3500 
L 3481 3500 
L 3481 434 
z
" transform="scale(0.015625)"/>
      <path id="DejaVuSans-62" d="M 3116 1747 
Q 3116 2381 2855 2742 
Q 2594 3103 2138 3103 
Q 1681 3103 1420 2742 
Q 1159 2381 1159 1747 
Q 1159 1113 1420 752 
Q 1681 391 2138 391 
Q 2594 391 2855 752 
Q 3116 1113 3116 1747 
z
M 1159 2969 
Q 1341 3281 1617 3432 
Q 1894 3584 2278 3584 
Q 2916 3584 3314 3078 
Q 3713 2572 3713 1747 
Q 3713 922 3314 415 
Q 2916 -91 2278 -91 
Q 1894 -91 1617 61 
Q 1341 213 1159 525 
L 1159 0 
L 581 0 
L 581 4863 
L 1159 4863 
L 1159 2969 
z
" transform="scale(0.015625)"/>
      <path id="DejaVuSans-6c" d="M 603 4863 
L 1178 4863 
L 1178 0 
L 603 0 
L 603 4863 
z
" transform="scale(0.015625)"/>
      <path id="DejaVuSans-6f" d="M 1959 3097 
Q 1497 3097 1228 2736 
Q 959 2375 959 1747 
Q 959 1119 1226 758 
Q 1494 397 1959 397 
Q 2419 397 2687 759 
Q 2956 1122 2956 1747 
Q 2956 2369 2687 2733 
Q 2419 3097 1959 3097 
z
M 1959 3584 
Q 2709 3584 3137 3096 
Q 3566 2609 3566 1747 
Q 3566 888 3137 398 
Q 2709 -91 1959 -91 
Q 1206 -91 779 398 
Q 353 888 353 1747 
Q 353 2609 779 3096 
Q 1206 3584 1959 3584 
z
" transform="scale(0.015625)"/>
      <path id="DejaVuSans-63" d="M 3122 3366 
L 3122 2828 
Q 2878 2963 2633 3030 
Q 2388 3097 2138 3097 
Q 1578 3097 1268 2742 
Q 959 2388 959 1747 
Q 959 1106 1268 751 
Q 1578 397 2138 397 
Q 2388 397 2633 464 
Q 2878 531 3122 666 
L 3122 134 
Q 2881 22 2623 -34 
Q 2366 -91 2075 -91 
Q 1284 -91 818 406 
Q 353 903 353 1747 
Q 353 2603 823 3093 
Q 1294 3584 2113 3584 
Q 2378 3584 2631 3529 
Q 2884 3475 3122 3366 
z
" transform="scale(0.015625)"/>
      <path id="DejaVuSans-6b" d="M 581 4863 
L 1159 4863 
L 1159 1991 
L 2875 3500 
L 3609 3500 
L 1753 1863 
L 3688 0 
L 2938 0 
L 1159 1709 
L 1159 0 
L 581 0 
L 581 4863 
z
" transform="scale(0.015625)"/>
     </defs>
     <use xlink:href="#DejaVuSans-53"/>
     <use xlink:href="#DejaVuSans-74" x="63.476562"/>
     <use xlink:href="#DejaVuSans-61" x="102.685547"/>
     <use xlink:href="#DejaVuSans-74" x="163.964844"/>
     <use xlink:href="#DejaVuSans-65" x="203.173828"/>
     <use xlink:href="#DejaVuSans-2d" x="264.697266"/>
     <use xlink:href="#DejaVuSans-64" x="300.78125"/>
     <use xlink:href="#DejaVuSans-65" x="364.257812"/>
     <use xlink:href="#DejaVuSans-70" x="425.78125"/>
     <use xlink:href="#DejaVuSans-65" x="489.257812"/>
     <use xlink:href="#DejaVuSans-6e" x="550.78125"/>
     <use xlink:href="#DejaVuSans-64" x="614.160156"/>
     <use xlink:href="#DejaVuSans-65" x="677.636719"/>
     <use xlink:href="#DejaVuSans-6e" x="739.160156"/>
     <use xlink:href="#DejaVuSans-74" x="802.539062"/>
     <use xlink:href="#DejaVuSans-20" x="841.748047"/>
     <use xlink:href="#DejaVuSans-64" x="873.535156"/>
     <use xlink:href="#DejaVuSans-72" x="937.011719"/>
     <use xlink:href="#DejaVuSans-75" x="978.125"/>
     <use xlink:href="#DejaVuSans-67" x="1041.503906"/>
     <use xlink:href="#DejaVuSans-20" x="1104.980469"/>
     <use xlink:href="#DejaVuSans-62" x="1136.767578"/>
     <use xlink:href="#DejaVuSans-6c" x="1200.244141"/>
     <use xlink:href="#DejaVuSans-6f" x="1228.027344"/>
     <use xlink:href="#DejaVuSans-63" x="1289.208984"/>
     <use xlink:href="#DejaVuSans-6b" x="1344.189453"/>
    </g>
   </g>
  </g>
  <g id="axes_2">
   <g id="patch_5">
    <path d="M 493.5345 112.8945 
L 609.7845 112.8945 
L 609.7845 20.4945 
L 493.5345 20.4945 
z
" style="fill: #ffffff"/>
   </g>
   <g id="matplotlib.axis_3">
    <g id="xtick_7">
     <g id="line2d_20">
      <g>
       <use xlink:href="#mc54116c63d" x="516.432227" y="112.8945" style="stroke: #000000; stroke-width: 0.8"/>
      </g>
     </g>
     <g id="text_14">
      <!-- $\mathdefault{10^{0}}$ -->
      <g transform="translate(509.392227 125.97325)scale(0.08 -0.08)">
       <use xlink:href="#DejaVuSans-31" transform="translate(0 0.765625)"/>
       <use xlink:href="#DejaVuSans-30" transform="translate(63.623047 0.765625)"/>
       <use xlink:href="#DejaVuSans-30" transform="translate(128.203125 39.046875)scale(0.7)"/>
      </g>
     </g>
    </g>
    <g id="xtick_8">
     <g id="line2d_21">
      <g>
       <use xlink:href="#mc54116c63d" x="551.6595" y="112.8945" style="stroke: #000000; stroke-width: 0.8"/>
      </g>
     </g>
     <g id="text_15">
      <!-- $\mathdefault{10^{2}}$ -->
      <g transform="translate(544.6195 125.97325)scale(0.08 -0.08)">
       <use xlink:href="#DejaVuSans-31" transform="translate(0 0.765625)"/>
       <use xlink:href="#DejaVuSans-30" transform="translate(63.623047 0.765625)"/>
       <use xlink:href="#DejaVuSans-32" transform="translate(128.203125 39.046875)scale(0.7)"/>
      </g>
     </g>
    </g>
    <g id="xtick_9">
     <g id="line2d_22">
      <g>
       <use xlink:href="#mc54116c63d" x="586.886773" y="112.8945" style="stroke: #000000; stroke-width: 0.8"/>
      </g>
     </g>
     <g id="text_16">
      <!-- $\mathdefault{10^{4}}$ -->
      <g transform="translate(579.846773 125.97325)scale(0.08 -0.08)">
       <use xlink:href="#DejaVuSans-31" transform="translate(0 0.684375)"/>
       <use xlink:href="#DejaVuSans-30" transform="translate(63.623047 0.684375)"/>
       <use xlink:href="#DejaVuSans-34" transform="translate(128.203125 38.965625)scale(0.7)"/>
      </g>
     </g>
    </g>
    <g id="text_17">
     <!-- Drug concentration (nM) -->
     <g transform="translate(502.507625 137.71575)scale(0.08 -0.08)">
      <defs>
       <path id="DejaVuSans-44" d="M 1259 4147 
L 1259 519 
L 2022 519 
Q 2988 519 3436 956 
Q 3884 1394 3884 2338 
Q 3884 3275 3436 3711 
Q 2988 4147 2022 4147 
L 1259 4147 
z
M 628 4666 
L 1925 4666 
Q 3281 4666 3915 4102 
Q 4550 3538 4550 2338 
Q 4550 1131 3912 565 
Q 3275 0 1925 0 
L 628 0 
L 628 4666 
z
" transform="scale(0.015625)"/>
       <path id="DejaVuSans-4d" d="M 628 4666 
L 1569 4666 
L 2759 1491 
L 3956 4666 
L 4897 4666 
L 4897 0 
L 4281 0 
L 4281 4097 
L 3078 897 
L 2444 897 
L 1241 4097 
L 1241 0 
L 628 0 
L 628 4666 
z
" transform="scale(0.015625)"/>
      </defs>
      <use xlink:href="#DejaVuSans-44"/>
      <use xlink:href="#DejaVuSans-72" x="77.001953"/>
      <use xlink:href="#DejaVuSans-75" x="118.115234"/>
      <use xlink:href="#DejaVuSans-67" x="181.494141"/>
      <use xlink:href="#DejaVuSans-20" x="244.970703"/>
      <use xlink:href="#DejaVuSans-63" x="276.757812"/>
      <use xlink:href="#DejaVuSans-6f" x="331.738281"/>
      <use xlink:href="#DejaVuSans-6e" x="392.919922"/>
      <use xlink:href="#DejaVuSans-63" x="456.298828"/>
      <use xlink:href="#DejaVuSans-65" x="511.279297"/>
      <use xlink:href="#DejaVuSans-6e" x="572.802734"/>
      <use xlink:href="#DejaVuSans-74" x="636.181641"/>
      <use xlink:href="#DejaVuSans-72" x="675.390625"/>
      <use xlink:href="#DejaVuSans-61" x="716.503906"/>
      <use xlink:href="#DejaVuSans-74" x="777.783203"/>
      <use xlink:href="#DejaVuSans-69" x="816.992188"/>
      <use xlink:href="#DejaVuSans-6f" x="844.775391"/>
      <use xlink:href="#DejaVuSans-6e" x="905.957031"/>
      <use xlink:href="#DejaVuSans-20" x="969.335938"/>
      <use xlink:href="#DejaVuSans-28" x="1001.123047"/>
      <use xlink:href="#DejaVuSans-6e" x="1040.136719"/>
      <use xlink:href="#DejaVuSans-4d" x="1103.515625"/>
      <use xlink:href="#DejaVuSans-29" x="1189.794922"/>
     </g>
    </g>
   </g>
   <g id="matplotlib.axis_4">
    <g id="ytick_5">
     <g id="line2d_23">
      <g>
       <use xlink:href="#m614269bc84" x="493.5345" y="108.6945" style="stroke: #000000; stroke-width: 0.8"/>
      </g>
     </g>
     <g id="text_18">
      <!-- 0.00 -->
      <g transform="translate(468.722 111.733875)scale(0.08 -0.08)">
       <use xlink:href="#DejaVuSans-30"/>
       <use xlink:href="#DejaVuSans-2e" x="63.623047"/>
       <use xlink:href="#DejaVuSans-30" x="95.410156"/>
       <use xlink:href="#DejaVuSans-30" x="159.033203"/>
      </g>
     </g>
    </g>
    <g id="ytick_6">
     <g id="line2d_24">
      <g>
       <use xlink:href="#m614269bc84" x="493.5345" y="87.691484" style="stroke: #000000; stroke-width: 0.8"/>
      </g>
     </g>
     <g id="text_19">
      <!-- 0.25 -->
      <g transform="translate(468.722 90.730859)scale(0.08 -0.08)">
       <use xlink:href="#DejaVuSans-30"/>
       <use xlink:href="#DejaVuSans-2e" x="63.623047"/>
       <use xlink:href="#DejaVuSans-32" x="95.410156"/>
       <use xlink:href="#DejaVuSans-35" x="159.033203"/>
      </g>
     </g>
    </g>
    <g id="ytick_7">
     <g id="line2d_25">
      <g>
       <use xlink:href="#m614269bc84" x="493.5345" y="66.688467" style="stroke: #000000; stroke-width: 0.8"/>
      </g>
     </g>
     <g id="text_20">
      <!-- 0.50 -->
      <g transform="translate(468.722 69.727842)scale(0.08 -0.08)">
       <use xlink:href="#DejaVuSans-30"/>
       <use xlink:href="#DejaVuSans-2e" x="63.623047"/>
       <use xlink:href="#DejaVuSans-35" x="95.410156"/>
       <use xlink:href="#DejaVuSans-30" x="159.033203"/>
      </g>
     </g>
    </g>
    <g id="ytick_8">
     <g id="line2d_26">
      <g>
       <use xlink:href="#m614269bc84" x="493.5345" y="45.685451" style="stroke: #000000; stroke-width: 0.8"/>
      </g>
     </g>
     <g id="text_21">
      <!-- 0.75 -->
      <g transform="translate(468.722 48.724826)scale(0.08 -0.08)">
       <defs>
        <path id="DejaVuSans-37" d="M 525 4666 
L 3525 4666 
L 3525 4397 
L 1831 0 
L 1172 0 
L 2766 4134 
L 525 4134 
L 525 4666 
z
" transform="scale(0.015625)"/>
       </defs>
       <use xlink:href="#DejaVuSans-30"/>
       <use xlink:href="#DejaVuSans-2e" x="63.623047"/>
       <use xlink:href="#DejaVuSans-37" x="95.410156"/>
       <use xlink:href="#DejaVuSans-35" x="159.033203"/>
      </g>
     </g>
    </g>
    <g id="ytick_9">
     <g id="line2d_27">
      <g>
       <use xlink:href="#m614269bc84" x="493.5345" y="24.682434" style="stroke: #000000; stroke-width: 0.8"/>
      </g>
     </g>
     <g id="text_22">
      <!-- 1.00 -->
      <g transform="translate(468.722 27.721809)scale(0.08 -0.08)">
       <use xlink:href="#DejaVuSans-31"/>
       <use xlink:href="#DejaVuSans-2e" x="63.623047"/>
       <use xlink:href="#DejaVuSans-30" x="95.410156"/>
       <use xlink:href="#DejaVuSans-30" x="159.033203"/>
      </g>
     </g>
    </g>
    <g id="text_23">
     <!-- Normalised peak current -->
     <g transform="translate(463.05825 116.101375)rotate(-90)scale(0.08 -0.08)">
      <defs>
       <path id="DejaVuSans-4e" d="M 628 4666 
L 1478 4666 
L 3547 763 
L 3547 4666 
L 4159 4666 
L 4159 0 
L 3309 0 
L 1241 3903 
L 1241 0 
L 628 0 
L 628 4666 
z
" transform="scale(0.015625)"/>
      </defs>
      <use xlink:href="#DejaVuSans-4e"/>
      <use xlink:href="#DejaVuSans-6f" x="74.804688"/>
      <use xlink:href="#DejaVuSans-72" x="135.986328"/>
      <use xlink:href="#DejaVuSans-6d" x="175.349609"/>
      <use xlink:href="#DejaVuSans-61" x="272.761719"/>
      <use xlink:href="#DejaVuSans-6c" x="334.041016"/>
      <use xlink:href="#DejaVuSans-69" x="361.824219"/>
      <use xlink:href="#DejaVuSans-73" x="389.607422"/>
      <use xlink:href="#DejaVuSans-65" x="441.707031"/>
      <use xlink:href="#DejaVuSans-64" x="503.230469"/>
      <use xlink:href="#DejaVuSans-20" x="566.707031"/>
      <use xlink:href="#DejaVuSans-70" x="598.494141"/>
      <use xlink:href="#DejaVuSans-65" x="661.970703"/>
      <use xlink:href="#DejaVuSans-61" x="723.494141"/>
      <use xlink:href="#DejaVuSans-6b" x="784.773438"/>
      <use xlink:href="#DejaVuSans-20" x="842.683594"/>
      <use xlink:href="#DejaVuSans-63" x="874.470703"/>
      <use xlink:href="#DejaVuSans-75" x="929.451172"/>
      <use xlink:href="#DejaVuSans-72" x="992.830078"/>
      <use xlink:href="#DejaVuSans-72" x="1032.193359"/>
      <use xlink:href="#DejaVuSans-65" x="1071.056641"/>
      <use xlink:href="#DejaVuSans-6e" x="1132.580078"/>
      <use xlink:href="#DejaVuSans-74" x="1195.958984"/>
     </g>
    </g>
   </g>
   <g id="line2d_28">
    <g clip-path="url(#pe0b827019e)">
     <use xlink:href="#mfd8f5b1875" x="498.818591" y="24.6945" style="stroke: #000000"/>
     <use xlink:href="#mfd8f5b1875" x="516.432227" y="24.803078" style="stroke: #000000"/>
     <use xlink:href="#mfd8f5b1875" x="542.449704" y="27.876592" style="stroke: #000000"/>
     <use xlink:href="#mfd8f5b1875" x="560.06334" y="44.380135" style="stroke: #000000"/>
     <use xlink:href="#mfd8f5b1875" x="569.273136" y="62.170457" style="stroke: #000000"/>
     <use xlink:href="#mfd8f5b1875" x="586.886773" y="98.263505" style="stroke: #000000"/>
     <use xlink:href="#mfd8f5b1875" x="604.500409" y="108.6945" style="stroke: #000000"/>
    </g>
   </g>
   <g id="patch_6">
    <path d="M 493.5345 112.8945 
L 493.5345 20.4945 
" style="fill: none; stroke: #000000; stroke-width: 0.8; stroke-linejoin: miter; stroke-linecap: square"/>
   </g>
   <g id="patch_7">
    <path d="M 493.5345 112.8945 
L 609.7845 112.8945 
" style="fill: none; stroke: #000000; stroke-width: 0.8; stroke-linejoin: miter; stroke-linecap: square"/>
   </g>
  </g>
  <g id="axes_3">
   <g id="patch_8">
    <path d="M 51.7845 297.6945 
L 168.0345 297.6945 
L 168.0345 205.2945 
L 51.7845 205.2945 
z
" style="fill: #ffffff"/>
   </g>
   <g id="line2d_29">
    <path d="M 51.7845 293.449647 
L 54.69075 293.451338 
L 54.894187 216.461574 
L 54.9 216.464912 
L 54.975562 216.721692 
L 55.580062 219.181333 
L 56.109 220.056219 
L 56.9925 221.581911 
L 58.096875 224.016135 
L 62.421375 234.522204 
L 63.787312 238.441574 
L 64.8975 242.296578 
L 65.763563 246.110653 
L 66.699375 251.361221 
L 68.791875 264.684706 
L 69.582375 271.151685 
L 70.279875 278.791015 
L 71.47725 292.793825 
L 71.750438 293.147792 
L 72.139875 293.254006 
L 73.749938 293.298023 
L 87.862688 293.411207 
L 109.903688 293.449643 
L 109.903688 293.449643 
" clip-path="url(#p4da7af305a)" style="fill: none; stroke: #440154; stroke-width: 1.5; stroke-linecap: square"/>
   </g>
   <g id="line2d_30">
    <path d="M 51.7845 293.449647 
L 54.69075 293.451337 
L 54.894187 216.461535 
L 54.9 216.464871 
L 54.975562 216.721633 
L 55.580062 219.18114 
L 56.109 220.055892 
L 56.9925 221.581377 
L 58.096875 224.015372 
L 62.427188 234.535702 
L 63.793125 238.457275 
L 64.903312 242.315556 
L 65.769375 246.134488 
L 66.711 251.424208 
L 68.8035 264.756693 
L 69.594 271.245374 
L 70.2915 278.917576 
L 71.471438 292.775518 
L 71.744625 293.143051 
L 72.12825 293.252666 
L 73.651125 293.296424 
L 87.56625 293.41006 
L 109.903688 293.449643 
L 109.903688 293.449643 
" clip-path="url(#p4da7af305a)" style="fill: none; stroke: #46327e; stroke-width: 1.5; stroke-linecap: square"/>
   </g>
   <g id="line2d_31">
    <path d="M 51.7845 293.449642 
L 54.69075 293.451333 
L 54.894187 216.461243 
L 54.9 216.46457 
L 54.975562 216.721207 
L 55.580062 219.179814 
L 56.109 220.053626 
L 56.9925 221.57765 
L 58.096875 224.010015 
L 62.427188 234.522635 
L 63.793125 238.439172 
L 64.903312 242.289953 
L 65.769375 246.097487 
L 66.705187 251.337959 
L 68.8035 264.676225 
L 69.594 271.131207 
L 70.2915 278.755166 
L 71.494687 292.800216 
L 71.767875 293.149518 
L 72.163125 293.254932 
L 73.837125 293.299273 
L 88.095188 293.412058 
L 109.903688 293.449638 
L 109.903688 293.449638 
" clip-path="url(#p4da7af305a)" style="fill: none; stroke: #365c8d; stroke-width: 1.5; stroke-linecap: square"/>
   </g>
   <g id="line2d_32">
    <path d="M 51.7845 293.449552 
L 54.69075 293.451256 
L 54.894187 216.45451 
L 54.9 216.457625 
L 54.96975 216.683345 
L 55.5975 219.185601 
L 56.149687 220.061571 
L 57.004125 221.516185 
L 58.102687 223.903127 
L 62.560875 234.578493 
L 63.94425 238.502475 
L 65.071875 242.362843 
L 65.955375 246.184804 
L 66.926063 251.503236 
L 69.088313 264.874353 
L 69.878813 271.20934 
L 70.576313 278.704488 
L 71.262188 288.782212 
L 71.610938 292.158823 
L 71.878313 292.969078 
L 72.163125 293.199005 
L 72.68625 293.271664 
L 76.888688 293.337222 
L 95.756063 293.432771 
L 109.903688 293.449548 
L 109.903688 293.449548 
" clip-path="url(#p4da7af305a)" style="fill: none; stroke: #277f8e; stroke-width: 1.5; stroke-linecap: square"/>
   </g>
   <g id="line2d_33">
    <path d="M 51.7845 293.449372 
L 54.69075 293.451162 
L 54.894187 216.410373 
L 54.9 216.412273 
L 54.96975 216.622936 
L 55.5975 218.997217 
L 56.109 219.699285 
L 56.911125 220.870453 
L 57.881812 222.749746 
L 61.706437 231.081213 
L 63.543188 235.33743 
L 65.019563 239.337074 
L 66.234375 243.25476 
L 67.216688 247.187858 
L 68.600063 253.8533 
L 70.820437 265.395419 
L 71.610938 270.864591 
L 72.302625 277.272133 
L 72.87225 284.669139 
L 73.465125 291.978161 
L 73.738313 292.932347 
L 74.017313 293.19837 
L 74.482313 293.282072 
L 77.324625 293.332529 
L 94.715625 293.429305 
L 109.903688 293.449368 
L 109.903688 293.449368 
" clip-path="url(#p4da7af305a)" style="fill: none; stroke: #1fa187; stroke-width: 1.5; stroke-linecap: square"/>
   </g>
   <g id="line2d_34">
    <path d="M 51.7845 293.450187 
L 54.69075 293.452132 
L 54.894187 216.339911 
L 54.9 216.340226 
L 54.963937 216.506265 
L 55.614937 218.750779 
L 56.114812 219.295719 
L 56.841375 220.169432 
L 57.695812 221.599124 
L 59.334937 224.87791 
L 62.560875 231.205159 
L 64.473187 235.276054 
L 66.275063 239.647435 
L 67.763063 243.818287 
L 68.9895 247.940695 
L 73.035 263.085222 
L 73.999875 267.616489 
L 74.7555 272.275491 
L 75.4065 277.715122 
L 75.94125 284.138571 
L 76.609688 292.132187 
L 76.882875 292.99071 
L 77.167687 293.233168 
L 77.673375 293.309716 
L 81.271313 293.360577 
L 102.068438 293.442083 
L 109.903688 293.450183 
L 109.903688 293.450183 
" clip-path="url(#p4da7af305a)" style="fill: none; stroke: #4ac16d; stroke-width: 1.5; stroke-linecap: square"/>
   </g>
   <g id="line2d_35">
    <path d="M 51.7845 293.456677 
L 54.69075 293.45973 
L 54.9 216.162293 
L 54.958125 216.265339 
L 55.614937 218.007728 
L 56.196187 218.449542 
L 56.82975 219.077142 
L 57.62025 220.214053 
L 59.026875 222.703486 
L 61.659937 227.300735 
L 65.071875 233.2331 
L 69.855563 242.141627 
L 72.349125 247.182848 
L 74.87175 252.257809 
L 76.063313 254.103378 
L 77.667563 256.143052 
L 81.143438 260.441599 
L 82.433813 262.499682 
L 83.561438 264.718669 
L 84.532125 267.12287 
L 85.369125 269.802116 
L 86.089875 272.873264 
L 86.694375 276.438966 
L 87.200063 280.789359 
L 87.717375 287.408351 
L 88.159125 292.092376 
L 88.438125 293.031577 
L 88.722938 293.292984 
L 89.199563 293.372357 
L 92.245313 293.405725 
L 109.903688 293.45667 
L 109.903688 293.45667 
" clip-path="url(#p4da7af305a)" style="fill: none; stroke: #a0da39; stroke-width: 1.5; stroke-linecap: square"/>
   </g>
   <g id="line2d_36">
    <path d="M 51.7845 293.493376 
L 54.69075 293.4945 
L 54.9 215.729382 
L 54.963937 215.869932 
L 55.469625 217.228698 
L 55.841625 217.496147 
L 56.678625 218.017743 
L 57.370312 218.785717 
L 58.3875 220.290577 
L 70.977375 240.320737 
L 75.604125 247.697381 
L 77.487375 250.570632 
L 78.556875 251.804972 
L 79.6845 252.757432 
L 81.015563 253.592717 
L 82.282688 254.133691 
L 83.526563 254.425095 
L 84.741375 254.483618 
L 85.921313 254.318641 
L 87.066375 253.933089 
L 88.21725 253.306714 
L 89.484375 252.352082 
L 91.4955 250.502823 
L 93.28575 248.982433 
L 94.419188 248.301687 
L 95.372438 247.979851 
L 96.255938 247.912988 
L 97.14525 248.071679 
L 98.104313 248.476787 
L 99.226125 249.20523 
L 100.81875 250.536063 
L 103.672688 252.925794 
L 105.317625 253.982907 
L 106.91025 254.745233 
L 108.473813 255.250765 
L 109.903688 255.500189 
L 109.903688 255.500189 
" clip-path="url(#p4da7af305a)" style="fill: none; stroke: #fde725; stroke-width: 1.5; stroke-linecap: square"/>
   </g>
   <g id="line2d_37">
    <path d="M 109.903688 293.449647 
L 112.809938 293.451338 
L 113.013375 216.461574 
L 113.019188 216.464911 
L 113.09475 216.721691 
L 113.69925 219.18133 
L 114.228188 220.056215 
L 115.111688 221.581903 
L 116.216063 224.016129 
L 120.540563 234.522186 
L 121.9065 238.441558 
L 123.016688 242.296561 
L 123.88275 246.110632 
L 124.818563 251.361197 
L 126.911063 264.684675 
L 127.701563 271.151641 
L 128.399063 278.790958 
L 129.596438 292.793805 
L 129.869625 293.147786 
L 130.259063 293.254004 
L 131.869125 293.298023 
L 145.981875 293.411207 
L 168.022875 293.449643 
L 168.022875 293.449643 
" clip-path="url(#p4da7af305a)" style="fill: none; stroke: #440154; stroke-width: 1.5; stroke-linecap: square"/>
   </g>
   <g id="line2d_38">
    <path d="M 109.903688 293.449647 
L 112.809938 293.451337 
L 113.013375 216.461534 
L 113.019188 216.46487 
L 113.09475 216.721632 
L 113.69925 219.18114 
L 114.228188 220.055897 
L 115.111688 221.581375 
L 116.216063 224.015369 
L 120.546375 234.535677 
L 121.912313 238.457253 
L 123.0225 242.315539 
L 123.888563 246.134465 
L 124.830188 251.424176 
L 126.922688 264.756667 
L 127.713188 271.24534 
L 128.410688 278.91752 
L 129.590625 292.775504 
L 129.863813 293.143045 
L 130.247438 293.25267 
L 131.770313 293.296423 
L 145.685438 293.41006 
L 168.022875 293.449643 
L 168.022875 293.449643 
" clip-path="url(#p4da7af305a)" style="fill: none; stroke: #46327e; stroke-width: 1.5; stroke-linecap: square"/>
   </g>
   <g id="line2d_39">
    <path d="M 109.903688 293.449642 
L 112.809938 293.451333 
L 113.013375 216.461244 
L 113.019188 216.46457 
L 113.09475 216.721207 
L 113.69925 219.179814 
L 114.228188 220.053625 
L 115.111688 221.577651 
L 116.216063 224.010017 
L 120.546375 234.522641 
L 121.912313 238.439174 
L 123.0225 242.289949 
L 123.888563 246.097489 
L 124.824375 251.337965 
L 126.922688 264.676242 
L 127.713188 271.131235 
L 128.410688 278.755208 
L 129.613875 292.800224 
L 129.887063 293.149511 
L 130.282313 293.254927 
L 131.9505 293.299181 
L 146.196938 293.411993 
L 168.022875 293.449638 
L 168.022875 293.449638 
" clip-path="url(#p4da7af305a)" style="fill: none; stroke: #365c8d; stroke-width: 1.5; stroke-linecap: square"/>
   </g>
   <g id="line2d_40">
    <path d="M 109.903688 293.449552 
L 112.809938 293.451257 
L 113.013375 216.454509 
L 113.019188 216.457623 
L 113.088938 216.683344 
L 113.716688 219.185594 
L 114.268875 220.061565 
L 115.123313 221.516176 
L 116.221875 223.903118 
L 120.680063 234.578477 
L 122.063438 238.502464 
L 123.191063 242.362823 
L 124.074563 246.184782 
L 125.04525 251.503212 
L 127.2075 264.874327 
L 127.998 271.209301 
L 128.6955 278.704435 
L 129.381375 288.782126 
L 129.730125 292.158784 
L 129.9975 292.969072 
L 130.282313 293.199002 
L 130.805438 293.27167 
L 135.013688 293.337286 
L 153.886875 293.432794 
L 168.022875 293.449548 
L 168.022875 293.449548 
" clip-path="url(#p4da7af305a)" style="fill: none; stroke: #277f8e; stroke-width: 1.5; stroke-linecap: square"/>
   </g>
   <g id="line2d_41">
    <path d="M 109.903688 293.449372 
L 112.809938 293.451162 
L 113.013375 216.410374 
L 113.019188 216.412274 
L 113.088938 216.622937 
L 113.716688 218.997218 
L 114.228188 219.699286 
L 115.030313 220.870454 
L 116.001 222.749749 
L 119.819813 231.068613 
L 121.662375 235.337458 
L 123.13875 239.337107 
L 124.353563 243.254793 
L 125.335875 247.187882 
L 126.71925 253.853325 
L 128.939625 265.395454 
L 129.730125 270.864637 
L 130.421813 277.272183 
L 130.991438 284.66923 
L 131.584313 291.978197 
L 131.8575 292.932358 
L 132.1365 293.198367 
L 132.6015 293.282076 
L 135.443813 293.332529 
L 152.834813 293.429304 
L 168.022875 293.449368 
L 168.022875 293.449368 
" clip-path="url(#p4da7af305a)" style="fill: none; stroke: #1fa187; stroke-width: 1.5; stroke-linecap: square"/>
   </g>
   <g id="line2d_42">
    <path d="M 109.903688 293.450187 
L 112.809938 293.452132 
L 113.013375 216.339912 
L 113.019188 216.340227 
L 113.083125 216.506265 
L 113.734125 218.750777 
L 114.234 219.29572 
L 114.960563 220.169434 
L 115.815 221.599127 
L 117.454125 224.877914 
L 120.680063 231.205157 
L 122.592375 235.276059 
L 124.39425 239.647443 
L 125.88225 243.818299 
L 127.108688 247.94071 
L 131.154188 263.085279 
L 132.119063 267.616564 
L 132.874688 272.27559 
L 133.525688 277.715255 
L 134.060438 284.138798 
L 134.728875 292.132282 
L 135.002063 292.990733 
L 135.286875 293.233164 
L 135.792563 293.30971 
L 139.3905 293.360577 
L 160.187625 293.442083 
L 168.022875 293.450183 
L 168.022875 293.450183 
" clip-path="url(#p4da7af305a)" style="fill: none; stroke: #4ac16d; stroke-width: 1.5; stroke-linecap: square"/>
   </g>
   <g id="line2d_43">
    <path d="M 109.903688 293.456677 
L 112.809938 293.45973 
L 113.019188 216.162295 
L 113.077313 216.265341 
L 113.734125 218.007731 
L 114.315375 218.449551 
L 114.948938 219.077148 
L 115.739438 220.214062 
L 117.146063 222.703498 
L 119.779125 227.300756 
L 123.191063 233.233128 
L 127.97475 242.141648 
L 130.468313 247.182866 
L 132.990938 252.257823 
L 134.1825 254.103394 
L 135.78675 256.143064 
L 139.262625 260.441627 
L 140.553 262.49972 
L 141.680625 264.718723 
L 142.651313 267.122947 
L 143.488313 269.802229 
L 144.209063 272.873426 
L 144.813563 276.43919 
L 145.31925 280.789692 
L 145.836563 287.40879 
L 146.278313 292.092535 
L 146.557313 293.031626 
L 146.842125 293.293001 
L 147.31875 293.372358 
L 150.3645 293.405726 
L 168.022875 293.45667 
L 168.022875 293.45667 
" clip-path="url(#p4da7af305a)" style="fill: none; stroke: #a0da39; stroke-width: 1.5; stroke-linecap: square"/>
   </g>
   <g id="line2d_44">
    <path d="M 109.903688 255.500763 
L 111.275438 255.524176 
L 112.472813 255.327578 
L 112.809938 255.226264 
L 112.868063 209.4945 
L 112.972688 210.530944 
L 113.705063 216.51172 
L 114.547875 221.627632 
L 115.477875 225.931186 
L 116.547375 229.831707 
L 117.826125 233.646374 
L 119.424563 237.699616 
L 122.150625 243.886281 
L 124.5105 249.547128 
L 126.178688 253.322894 
L 127.50975 255.751767 
L 132.084188 263.696048 
L 133.392 266.591265 
L 134.397563 269.356661 
L 135.193875 272.204923 
L 135.83325 275.329288 
L 136.362188 279.05912 
L 136.833 284.082764 
L 137.588625 292.477469 
L 137.861813 293.171571 
L 138.164063 293.370665 
L 138.774375 293.428302 
L 145.749375 293.464952 
L 168.022875 293.493374 
L 168.022875 293.493374 
" clip-path="url(#p4da7af305a)" style="fill: none; stroke: #fde725; stroke-width: 1.5; stroke-linecap: square"/>
   </g>
   <g id="matplotlib.axis_5">
    <g id="xtick_10">
     <g id="line2d_45">
      <g>
       <use xlink:href="#mc54116c63d" x="51.7845" y="297.6945" style="stroke: #000000; stroke-width: 0.8"/>
      </g>
     </g>
     <g id="text_24">
      <!-- 0 -->
      <g transform="translate(49.2395 310.77325)scale(0.08 -0.08)">
       <use xlink:href="#DejaVuSans-30"/>
      </g>
     </g>
    </g>
    <g id="xtick_11">
     <g id="line2d_46">
      <g>
       <use xlink:href="#mc54116c63d" x="80.847" y="297.6945" style="stroke: #000000; stroke-width: 0.8"/>
      </g>
     </g>
     <g id="text_25">
      <!-- 500 -->
      <g transform="translate(73.212 310.77325)scale(0.08 -0.08)">
       <use xlink:href="#DejaVuSans-35"/>
       <use xlink:href="#DejaVuSans-30" x="63.623047"/>
       <use xlink:href="#DejaVuSans-30" x="127.246094"/>
      </g>
     </g>
    </g>
    <g id="xtick_12">
     <g id="line2d_47">
      <g>
       <use xlink:href="#mc54116c63d" x="109.9095" y="297.6945" style="stroke: #000000; stroke-width: 0.8"/>
      </g>
     </g>
     <g id="text_26">
      <!-- 1000 -->
      <g transform="translate(99.7295 310.77325)scale(0.08 -0.08)">
       <use xlink:href="#DejaVuSans-31"/>
       <use xlink:href="#DejaVuSans-30" x="63.623047"/>
       <use xlink:href="#DejaVuSans-30" x="127.246094"/>
       <use xlink:href="#DejaVuSans-30" x="190.869141"/>
      </g>
     </g>
    </g>
    <g id="xtick_13">
     <g id="line2d_48">
      <g>
       <use xlink:href="#mc54116c63d" x="138.972" y="297.6945" style="stroke: #000000; stroke-width: 0.8"/>
      </g>
     </g>
     <g id="text_27">
      <!-- 1500 -->
      <g transform="translate(128.792 310.77325)scale(0.08 -0.08)">
       <use xlink:href="#DejaVuSans-31"/>
       <use xlink:href="#DejaVuSans-35" x="63.623047"/>
       <use xlink:href="#DejaVuSans-30" x="127.246094"/>
       <use xlink:href="#DejaVuSans-30" x="190.869141"/>
      </g>
     </g>
    </g>
    <g id="xtick_14">
     <g id="line2d_49">
      <g>
       <use xlink:href="#mc54116c63d" x="168.0345" y="297.6945" style="stroke: #000000; stroke-width: 0.8"/>
      </g>
     </g>
     <g id="text_28">
      <!-- 2000 -->
      <g transform="translate(157.8545 310.77325)scale(0.08 -0.08)">
       <use xlink:href="#DejaVuSans-32"/>
       <use xlink:href="#DejaVuSans-30" x="63.623047"/>
       <use xlink:href="#DejaVuSans-30" x="127.246094"/>
       <use xlink:href="#DejaVuSans-30" x="190.869141"/>
      </g>
     </g>
    </g>
    <g id="text_29">
     <!-- Time (ms) -->
     <g transform="translate(89.750125 322.51575)scale(0.08 -0.08)">
      <use xlink:href="#DejaVuSans-54"/>
      <use xlink:href="#DejaVuSans-69" x="57.958984"/>
      <use xlink:href="#DejaVuSans-6d" x="85.742188"/>
      <use xlink:href="#DejaVuSans-65" x="183.154297"/>
      <use xlink:href="#DejaVuSans-20" x="244.677734"/>
      <use xlink:href="#DejaVuSans-28" x="276.464844"/>
      <use xlink:href="#DejaVuSans-6d" x="315.478516"/>
      <use xlink:href="#DejaVuSans-73" x="412.890625"/>
      <use xlink:href="#DejaVuSans-29" x="464.990234"/>
     </g>
    </g>
   </g>
   <g id="matplotlib.axis_6">
    <g id="ytick_10">
     <g id="line2d_50">
      <g>
       <use xlink:href="#m614269bc84" x="51.7845" y="271.729585" style="stroke: #000000; stroke-width: 0.8"/>
      </g>
     </g>
     <g id="text_30">
      <!-- 50 -->
      <g transform="translate(27.90075 274.76896)scale(0.08 -0.08)">
       <defs>
        <path id="DejaVuSans-2212" d="M 678 2272 
L 4684 2272 
L 4684 1741 
L 678 1741 
L 678 2272 
z
" transform="scale(0.015625)"/>
       </defs>
       <use xlink:href="#DejaVuSans-2212"/>
       <use xlink:href="#DejaVuSans-35" x="83.789062"/>
       <use xlink:href="#DejaVuSans-30" x="147.412109"/>
      </g>
     </g>
    </g>
    <g id="ytick_11">
     <g id="line2d_51">
      <g>
       <use xlink:href="#m614269bc84" x="51.7845" y="243.101912" style="stroke: #000000; stroke-width: 0.8"/>
      </g>
     </g>
     <g id="text_31">
      <!-- 0 -->
      <g transform="translate(39.6945 246.141287)scale(0.08 -0.08)">
       <use xlink:href="#DejaVuSans-30"/>
      </g>
     </g>
    </g>
    <g id="ytick_12">
     <g id="line2d_52">
      <g>
       <use xlink:href="#m614269bc84" x="51.7845" y="214.474238" style="stroke: #000000; stroke-width: 0.8"/>
      </g>
     </g>
     <g id="text_32">
      <!-- 50 -->
      <g transform="translate(34.6045 217.513613)scale(0.08 -0.08)">
       <use xlink:href="#DejaVuSans-35"/>
       <use xlink:href="#DejaVuSans-30" x="63.623047"/>
      </g>
     </g>
    </g>
    <g id="text_33">
     <!-- Voltage -->
     <g transform="translate(13.27875 266.4995)rotate(-90)scale(0.08 -0.08)">
      <defs>
       <path id="DejaVuSans-56" d="M 1831 0 
L 50 4666 
L 709 4666 
L 2188 738 
L 3669 4666 
L 4325 4666 
L 2547 0 
L 1831 0 
z
" transform="scale(0.015625)"/>
      </defs>
      <use xlink:href="#DejaVuSans-56"/>
      <use xlink:href="#DejaVuSans-6f" x="60.658203"/>
      <use xlink:href="#DejaVuSans-6c" x="121.839844"/>
      <use xlink:href="#DejaVuSans-74" x="149.623047"/>
      <use xlink:href="#DejaVuSans-61" x="188.832031"/>
      <use xlink:href="#DejaVuSans-67" x="250.111328"/>
      <use xlink:href="#DejaVuSans-65" x="313.587891"/>
     </g>
     <!-- (mV) -->
     <g transform="translate(22.237 261.24825)rotate(-90)scale(0.08 -0.08)">
      <use xlink:href="#DejaVuSans-28"/>
      <use xlink:href="#DejaVuSans-6d" x="39.013672"/>
      <use xlink:href="#DejaVuSans-56" x="136.425781"/>
      <use xlink:href="#DejaVuSans-29" x="204.833984"/>
     </g>
    </g>
   </g>
   <g id="patch_9">
    <path d="M 51.7845 297.6945 
L 51.7845 205.2945 
" style="fill: none; stroke: #000000; stroke-width: 0.8; stroke-linejoin: miter; stroke-linecap: square"/>
   </g>
   <g id="patch_10">
    <path d="M 51.7845 297.6945 
L 168.0345 297.6945 
" style="fill: none; stroke: #000000; stroke-width: 0.8; stroke-linejoin: miter; stroke-linecap: square"/>
   </g>
   <g id="text_34">
    <!-- ORd-conductance scaling -->
    <g transform="translate(48.849 199.2945)scale(0.096 -0.096)">
     <defs>
      <path id="DejaVuSans-4f" d="M 2522 4238 
Q 1834 4238 1429 3725 
Q 1025 3213 1025 2328 
Q 1025 1447 1429 934 
Q 1834 422 2522 422 
Q 3209 422 3611 934 
Q 4013 1447 4013 2328 
Q 4013 3213 3611 3725 
Q 3209 4238 2522 4238 
z
M 2522 4750 
Q 3503 4750 4090 4092 
Q 4678 3434 4678 2328 
Q 4678 1225 4090 567 
Q 3503 -91 2522 -91 
Q 1538 -91 948 565 
Q 359 1222 359 2328 
Q 359 3434 948 4092 
Q 1538 4750 2522 4750 
z
" transform="scale(0.015625)"/>
      <path id="DejaVuSans-52" d="M 2841 2188 
Q 3044 2119 3236 1894 
Q 3428 1669 3622 1275 
L 4263 0 
L 3584 0 
L 2988 1197 
Q 2756 1666 2539 1819 
Q 2322 1972 1947 1972 
L 1259 1972 
L 1259 0 
L 628 0 
L 628 4666 
L 2053 4666 
Q 2853 4666 3247 4331 
Q 3641 3997 3641 3322 
Q 3641 2881 3436 2590 
Q 3231 2300 2841 2188 
z
M 1259 4147 
L 1259 2491 
L 2053 2491 
Q 2509 2491 2742 2702 
Q 2975 2913 2975 3322 
Q 2975 3731 2742 3939 
Q 2509 4147 2053 4147 
L 1259 4147 
z
" transform="scale(0.015625)"/>
     </defs>
     <use xlink:href="#DejaVuSans-4f"/>
     <use xlink:href="#DejaVuSans-52" x="78.710938"/>
     <use xlink:href="#DejaVuSans-64" x="148.193359"/>
     <use xlink:href="#DejaVuSans-2d" x="211.669922"/>
     <use xlink:href="#DejaVuSans-63" x="247.753906"/>
     <use xlink:href="#DejaVuSans-6f" x="302.734375"/>
     <use xlink:href="#DejaVuSans-6e" x="363.916016"/>
     <use xlink:href="#DejaVuSans-64" x="427.294922"/>
     <use xlink:href="#DejaVuSans-75" x="490.771484"/>
     <use xlink:href="#DejaVuSans-63" x="554.150391"/>
     <use xlink:href="#DejaVuSans-74" x="609.130859"/>
     <use xlink:href="#DejaVuSans-61" x="648.339844"/>
     <use xlink:href="#DejaVuSans-6e" x="709.619141"/>
     <use xlink:href="#DejaVuSans-63" x="772.998047"/>
     <use xlink:href="#DejaVuSans-65" x="827.978516"/>
     <use xlink:href="#DejaVuSans-20" x="889.501953"/>
     <use xlink:href="#DejaVuSans-73" x="921.289062"/>
     <use xlink:href="#DejaVuSans-63" x="973.388672"/>
     <use xlink:href="#DejaVuSans-61" x="1028.369141"/>
     <use xlink:href="#DejaVuSans-6c" x="1089.648438"/>
     <use xlink:href="#DejaVuSans-69" x="1117.431641"/>
     <use xlink:href="#DejaVuSans-6e" x="1145.214844"/>
     <use xlink:href="#DejaVuSans-67" x="1208.59375"/>
    </g>
   </g>
  </g>
  <g id="axes_4">
   <g id="patch_11">
    <path d="M 272.6595 297.6945 
L 388.9095 297.6945 
L 388.9095 205.2945 
L 272.6595 205.2945 
z
" style="fill: #ffffff"/>
   </g>
   <g id="line2d_53">
    <path d="M 272.6595 293.458589 
L 277.309035 293.461569 
L 277.47132 265.418382 
L 277.79031 223.604741 
L 278.05443 213.430281 
L 278.312505 210.591934 
L 278.571045 209.797045 
L 278.856555 209.56719 
L 279.36666 209.500211 
L 283.48842 209.494533 
L 323.809035 209.494533 
L 323.8095 285.999483 
L 323.92017 278.013123 
L 324.18894 288.716367 
L 324.458175 292.005549 
L 324.728805 293.016091 
L 325.017105 293.333894 
L 325.44072 293.439197 
L 326.978475 293.458562 
L 388.909965 293.458589 
L 388.909965 293.458589 
" clip-path="url(#p8882c65906)" style="fill: none; stroke: #440154; stroke-width: 1.5; stroke-linecap: square"/>
   </g>
   <g id="line2d_54">
    <path d="M 272.6595 293.458595 
L 277.309035 293.461575 
L 277.47132 265.424324 
L 277.79031 223.619533 
L 278.05443 213.447227 
L 278.312505 210.60948 
L 278.571045 209.81476 
L 278.856555 209.584953 
L 279.36666 209.517989 
L 283.48935 209.512311 
L 323.809035 209.512312 
L 323.8095 286.001068 
L 323.92017 278.016398 
L 324.18894 288.717376 
L 324.458175 292.005863 
L 324.728805 293.01619 
L 325.017105 293.333926 
L 325.44072 293.439207 
L 326.978475 293.458568 
L 388.909965 293.458595 
L 388.909965 293.458595 
" clip-path="url(#p8882c65906)" style="fill: none; stroke: #46327e; stroke-width: 1.5; stroke-linecap: square"/>
   </g>
   <g id="line2d_55">
    <path d="M 272.6595 293.458636 
L 277.309035 293.461611 
L 277.47132 265.465562 
L 277.79031 223.722205 
L 278.05443 213.564848 
L 278.312505 210.731271 
L 278.571045 209.937719 
L 278.856555 209.70825 
L 279.367125 209.641371 
L 283.504695 209.635715 
L 323.809035 209.635715 
L 323.8095 286.012068 
L 323.92017 278.039132 
L 324.18894 288.724385 
L 324.458175 292.008039 
L 324.728805 293.016882 
L 325.01757 293.334404 
L 325.442115 293.439395 
L 326.9901 293.458609 
L 388.909965 293.458636 
L 388.909965 293.458636 
" clip-path="url(#p8882c65906)" style="fill: none; stroke: #365c8d; stroke-width: 1.5; stroke-linecap: square"/>
   </g>
   <g id="line2d_56">
    <path d="M 272.6595 293.459558 
L 277.309035 293.462435 
L 277.47132 266.394043 
L 277.79031 226.033864 
L 278.05443 216.213074 
L 278.312505 213.473389 
L 278.57151 212.705454 
L 278.85888 212.483455 
L 279.38433 212.419152 
L 284.019915 212.414133 
L 323.809035 212.414134 
L 323.8095 286.259734 
L 323.92017 278.550984 
L 324.18894 288.882178 
L 324.458175 292.057027 
L 324.72927 293.033313 
L 325.018965 293.340177 
L 325.45188 293.441735 
L 327.104025 293.459539 
L 388.909965 293.459558 
L 388.909965 293.459558 
" clip-path="url(#p8882c65906)" style="fill: none; stroke: #277f8e; stroke-width: 1.5; stroke-linecap: square"/>
   </g>
   <g id="line2d_57">
    <path d="M 272.6595 293.464795 
L 277.309035 293.467111 
L 277.47132 271.667346 
L 277.79031 239.162925 
L 278.05443 231.253666 
L 278.312505 229.047237 
L 278.572905 228.427146 
L 278.87562 228.245504 
L 279.514995 228.19626 
L 290.31462 228.194158 
L 323.809035 228.194157 
L 323.8095 287.666354 
L 323.92017 281.458045 
L 324.18894 289.778361 
L 324.458175 292.335254 
L 324.7302 293.122914 
L 325.03059 293.373437 
L 325.531395 293.454673 
L 328.26327 293.464798 
L 388.909965 293.464795 
L 388.909965 293.464795 
" clip-path="url(#p8882c65906)" style="fill: none; stroke: #1fa187; stroke-width: 1.5; stroke-linecap: square"/>
   </g>
   <g id="line2d_58">
    <path d="M 272.6595 293.47137 
L 277.309035 293.472984 
L 277.47132 278.289085 
L 277.79031 255.649215 
L 278.05443 250.140285 
L 278.31297 248.602097 
L 278.577555 248.167842 
L 278.92119 248.037765 
L 279.909315 248.009493 
L 323.809035 248.009285 
L 323.8095 289.43266 
L 323.92017 285.108469 
L 324.18894 290.903708 
L 324.45864 292.686232 
L 324.73392 293.237105 
L 325.062675 293.416104 
L 325.75041 293.468675 
L 335.38056 293.47137 
L 388.909965 293.47137 
L 388.909965 293.47137 
" clip-path="url(#p8882c65906)" style="fill: none; stroke: #4ac16d; stroke-width: 1.5; stroke-linecap: square"/>
   </g>
   <g id="line2d_59">
    <path d="M 272.6595 293.482859 
L 277.32252 293.375551 
L 277.443885 290.581491 
L 277.782405 284.521464 
L 278.04792 283.153466 
L 278.317155 282.766752 
L 278.68125 282.650681 
L 279.87444 282.628184 
L 323.809035 282.628125 
L 323.8095 292.518558 
L 323.92017 291.486095 
L 324.18987 292.872292 
L 324.469335 293.304 
L 324.830175 293.446213 
L 325.753665 293.482224 
L 365.920365 293.482859 
L 388.909965 293.482859 
L 388.909965 293.482859 
" clip-path="url(#p8882c65906)" style="fill: none; stroke: #a0da39; stroke-width: 1.5; stroke-linecap: square"/>
   </g>
   <g id="line2d_60">
    <path d="M 272.6595 293.485951 
L 277.360185 293.375794 
L 277.88517 292.111633 
L 278.234385 291.976783 
L 279.198795 291.947376 
L 323.809035 291.947135 
L 323.8095 293.349248 
L 323.92017 293.202881 
L 324.23265 293.414225 
L 324.812505 293.480337 
L 329.550855 293.485951 
L 388.909965 293.485951 
L 388.909965 293.485951 
" clip-path="url(#p8882c65906)" style="fill: none; stroke: #fde725; stroke-width: 1.5; stroke-linecap: square"/>
   </g>
   <g id="matplotlib.axis_7">
    <g id="xtick_15">
     <g id="line2d_61">
      <g>
       <use xlink:href="#mc54116c63d" x="272.6595" y="297.6945" style="stroke: #000000; stroke-width: 0.8"/>
      </g>
     </g>
     <g id="text_35">
      <!-- 0 -->
      <g transform="translate(270.1145 310.77325)scale(0.08 -0.08)">
       <use xlink:href="#DejaVuSans-30"/>
      </g>
     </g>
    </g>
    <g id="xtick_16">
     <g id="line2d_62">
      <g>
       <use xlink:href="#mc54116c63d" x="295.9095" y="297.6945" style="stroke: #000000; stroke-width: 0.8"/>
      </g>
     </g>
     <g id="text_36">
      <!-- 5 -->
      <g transform="translate(293.3645 310.77325)scale(0.08 -0.08)">
       <use xlink:href="#DejaVuSans-35"/>
      </g>
     </g>
    </g>
    <g id="xtick_17">
     <g id="line2d_63">
      <g>
       <use xlink:href="#mc54116c63d" x="319.1595" y="297.6945" style="stroke: #000000; stroke-width: 0.8"/>
      </g>
     </g>
     <g id="text_37">
      <!-- 10 -->
      <g transform="translate(314.0695 310.77325)scale(0.08 -0.08)">
       <use xlink:href="#DejaVuSans-31"/>
       <use xlink:href="#DejaVuSans-30" x="63.623047"/>
      </g>
     </g>
    </g>
    <g id="xtick_18">
     <g id="line2d_64">
      <g>
       <use xlink:href="#mc54116c63d" x="342.4095" y="297.6945" style="stroke: #000000; stroke-width: 0.8"/>
      </g>
     </g>
     <g id="text_38">
      <!-- 15 -->
      <g transform="translate(337.3195 310.77325)scale(0.08 -0.08)">
       <use xlink:href="#DejaVuSans-31"/>
       <use xlink:href="#DejaVuSans-35" x="63.623047"/>
      </g>
     </g>
    </g>
    <g id="xtick_19">
     <g id="line2d_65">
      <g>
       <use xlink:href="#mc54116c63d" x="365.6595" y="297.6945" style="stroke: #000000; stroke-width: 0.8"/>
      </g>
     </g>
     <g id="text_39">
      <!-- 20 -->
      <g transform="translate(360.5695 310.77325)scale(0.08 -0.08)">
       <use xlink:href="#DejaVuSans-32"/>
       <use xlink:href="#DejaVuSans-30" x="63.623047"/>
      </g>
     </g>
    </g>
    <g id="xtick_20">
     <g id="line2d_66">
      <g>
       <use xlink:href="#mc54116c63d" x="388.9095" y="297.6945" style="stroke: #000000; stroke-width: 0.8"/>
      </g>
     </g>
     <g id="text_40">
      <!-- 25 -->
      <g transform="translate(383.8195 310.77325)scale(0.08 -0.08)">
       <use xlink:href="#DejaVuSans-32"/>
       <use xlink:href="#DejaVuSans-35" x="63.623047"/>
      </g>
     </g>
    </g>
    <g id="text_41">
     <!-- Time (s) -->
     <g transform="translate(314.521375 322.51575)scale(0.08 -0.08)">
      <use xlink:href="#DejaVuSans-54"/>
      <use xlink:href="#DejaVuSans-69" x="57.958984"/>
      <use xlink:href="#DejaVuSans-6d" x="85.742188"/>
      <use xlink:href="#DejaVuSans-65" x="183.154297"/>
      <use xlink:href="#DejaVuSans-20" x="244.677734"/>
      <use xlink:href="#DejaVuSans-28" x="276.464844"/>
      <use xlink:href="#DejaVuSans-73" x="315.478516"/>
      <use xlink:href="#DejaVuSans-29" x="367.578125"/>
     </g>
    </g>
   </g>
   <g id="matplotlib.axis_8">
    <g id="ytick_13">
     <g id="line2d_67">
      <g>
       <use xlink:href="#m614269bc84" x="272.6595" y="293.486462" style="stroke: #000000; stroke-width: 0.8"/>
      </g>
     </g>
     <g id="text_42">
      <!-- 0.0 -->
      <g transform="translate(252.937 296.525837)scale(0.08 -0.08)">
       <use xlink:href="#DejaVuSans-30"/>
       <use xlink:href="#DejaVuSans-2e" x="63.623047"/>
       <use xlink:href="#DejaVuSans-30" x="95.410156"/>
      </g>
     </g>
    </g>
    <g id="ytick_14">
     <g id="line2d_68">
      <g>
       <use xlink:href="#m614269bc84" x="272.6595" y="270.852326" style="stroke: #000000; stroke-width: 0.8"/>
      </g>
     </g>
     <g id="text_43">
      <!-- 0.2 -->
      <g transform="translate(252.937 273.891701)scale(0.08 -0.08)">
       <use xlink:href="#DejaVuSans-30"/>
       <use xlink:href="#DejaVuSans-2e" x="63.623047"/>
       <use xlink:href="#DejaVuSans-32" x="95.410156"/>
      </g>
     </g>
    </g>
    <g id="ytick_15">
     <g id="line2d_69">
      <g>
       <use xlink:href="#m614269bc84" x="272.6595" y="248.21819" style="stroke: #000000; stroke-width: 0.8"/>
      </g>
     </g>
     <g id="text_44">
      <!-- 0.4 -->
      <g transform="translate(252.937 251.257565)scale(0.08 -0.08)">
       <use xlink:href="#DejaVuSans-30"/>
       <use xlink:href="#DejaVuSans-2e" x="63.623047"/>
       <use xlink:href="#DejaVuSans-34" x="95.410156"/>
      </g>
     </g>
    </g>
    <g id="ytick_16">
     <g id="line2d_70">
      <g>
       <use xlink:href="#m614269bc84" x="272.6595" y="225.584054" style="stroke: #000000; stroke-width: 0.8"/>
      </g>
     </g>
     <g id="text_45">
      <!-- 0.6 -->
      <g transform="translate(252.937 228.623429)scale(0.08 -0.08)">
       <use xlink:href="#DejaVuSans-30"/>
       <use xlink:href="#DejaVuSans-2e" x="63.623047"/>
       <use xlink:href="#DejaVuSans-36" x="95.410156"/>
      </g>
     </g>
    </g>
    <g id="text_46">
     <!-- Current (A/F) -->
     <g transform="translate(247.27325 277.292625)rotate(-90)scale(0.08 -0.08)">
      <use xlink:href="#DejaVuSans-43"/>
      <use xlink:href="#DejaVuSans-75" x="69.824219"/>
      <use xlink:href="#DejaVuSans-72" x="133.203125"/>
      <use xlink:href="#DejaVuSans-72" x="172.566406"/>
      <use xlink:href="#DejaVuSans-65" x="211.429688"/>
      <use xlink:href="#DejaVuSans-6e" x="272.953125"/>
      <use xlink:href="#DejaVuSans-74" x="336.332031"/>
      <use xlink:href="#DejaVuSans-20" x="375.541016"/>
      <use xlink:href="#DejaVuSans-28" x="407.328125"/>
      <use xlink:href="#DejaVuSans-41" x="446.341797"/>
      <use xlink:href="#DejaVuSans-2f" x="514.75"/>
      <use xlink:href="#DejaVuSans-46" x="548.441406"/>
      <use xlink:href="#DejaVuSans-29" x="605.960938"/>
     </g>
    </g>
   </g>
   <g id="patch_12">
    <path d="M 272.6595 297.6945 
L 272.6595 205.2945 
" style="fill: none; stroke: #000000; stroke-width: 0.8; stroke-linejoin: miter; stroke-linecap: square"/>
   </g>
   <g id="patch_13">
    <path d="M 272.6595 297.6945 
L 388.9095 297.6945 
" style="fill: none; stroke: #000000; stroke-width: 0.8; stroke-linejoin: miter; stroke-linecap: square"/>
   </g>
   <g id="text_47">
    <!-- Conductance scaling drug block -->
    <g transform="translate(254.007 199.2945)scale(0.096 -0.096)">
     <use xlink:href="#DejaVuSans-43"/>
     <use xlink:href="#DejaVuSans-6f" x="69.824219"/>
     <use xlink:href="#DejaVuSans-6e" x="131.005859"/>
     <use xlink:href="#DejaVuSans-64" x="194.384766"/>
     <use xlink:href="#DejaVuSans-75" x="257.861328"/>
     <use xlink:href="#DejaVuSans-63" x="321.240234"/>
     <use xlink:href="#DejaVuSans-74" x="376.220703"/>
     <use xlink:href="#DejaVuSans-61" x="415.429688"/>
     <use xlink:href="#DejaVuSans-6e" x="476.708984"/>
     <use xlink:href="#DejaVuSans-63" x="540.087891"/>
     <use xlink:href="#DejaVuSans-65" x="595.068359"/>
     <use xlink:href="#DejaVuSans-20" x="656.591797"/>
     <use xlink:href="#DejaVuSans-73" x="688.378906"/>
     <use xlink:href="#DejaVuSans-63" x="740.478516"/>
     <use xlink:href="#DejaVuSans-61" x="795.458984"/>
     <use xlink:href="#DejaVuSans-6c" x="856.738281"/>
     <use xlink:href="#DejaVuSans-69" x="884.521484"/>
     <use xlink:href="#DejaVuSans-6e" x="912.304688"/>
     <use xlink:href="#DejaVuSans-67" x="975.683594"/>
     <use xlink:href="#DejaVuSans-20" x="1039.160156"/>
     <use xlink:href="#DejaVuSans-64" x="1070.947266"/>
     <use xlink:href="#DejaVuSans-72" x="1134.423828"/>
     <use xlink:href="#DejaVuSans-75" x="1175.537109"/>
     <use xlink:href="#DejaVuSans-67" x="1238.916016"/>
     <use xlink:href="#DejaVuSans-20" x="1302.392578"/>
     <use xlink:href="#DejaVuSans-62" x="1334.179688"/>
     <use xlink:href="#DejaVuSans-6c" x="1397.65625"/>
     <use xlink:href="#DejaVuSans-6f" x="1425.439453"/>
     <use xlink:href="#DejaVuSans-63" x="1486.621094"/>
     <use xlink:href="#DejaVuSans-6b" x="1541.601562"/>
    </g>
   </g>
  </g>
  <g id="axes_5">
   <g id="patch_14">
    <path d="M 493.5345 297.6945 
L 609.7845 297.6945 
L 609.7845 205.2945 
L 493.5345 205.2945 
z
" style="fill: #ffffff"/>
   </g>
   <g id="matplotlib.axis_9">
    <g id="xtick_21">
     <g id="line2d_71">
      <g>
       <use xlink:href="#mc54116c63d" x="516.432227" y="297.6945" style="stroke: #000000; stroke-width: 0.8"/>
      </g>
     </g>
     <g id="text_48">
      <!-- $\mathdefault{10^{0}}$ -->
      <g transform="translate(509.392227 310.77325)scale(0.08 -0.08)">
       <use xlink:href="#DejaVuSans-31" transform="translate(0 0.765625)"/>
       <use xlink:href="#DejaVuSans-30" transform="translate(63.623047 0.765625)"/>
       <use xlink:href="#DejaVuSans-30" transform="translate(128.203125 39.046875)scale(0.7)"/>
      </g>
     </g>
    </g>
    <g id="xtick_22">
     <g id="line2d_72">
      <g>
       <use xlink:href="#mc54116c63d" x="551.6595" y="297.6945" style="stroke: #000000; stroke-width: 0.8"/>
      </g>
     </g>
     <g id="text_49">
      <!-- $\mathdefault{10^{2}}$ -->
      <g transform="translate(544.6195 310.77325)scale(0.08 -0.08)">
       <use xlink:href="#DejaVuSans-31" transform="translate(0 0.765625)"/>
       <use xlink:href="#DejaVuSans-30" transform="translate(63.623047 0.765625)"/>
       <use xlink:href="#DejaVuSans-32" transform="translate(128.203125 39.046875)scale(0.7)"/>
      </g>
     </g>
    </g>
    <g id="xtick_23">
     <g id="line2d_73">
      <g>
       <use xlink:href="#mc54116c63d" x="586.886773" y="297.6945" style="stroke: #000000; stroke-width: 0.8"/>
      </g>
     </g>
     <g id="text_50">
      <!-- $\mathdefault{10^{4}}$ -->
      <g transform="translate(579.846773 310.77325)scale(0.08 -0.08)">
       <use xlink:href="#DejaVuSans-31" transform="translate(0 0.684375)"/>
       <use xlink:href="#DejaVuSans-30" transform="translate(63.623047 0.684375)"/>
       <use xlink:href="#DejaVuSans-34" transform="translate(128.203125 38.965625)scale(0.7)"/>
      </g>
     </g>
    </g>
    <g id="text_51">
     <!-- Drug concentration (nM) -->
     <g transform="translate(502.507625 322.51575)scale(0.08 -0.08)">
      <use xlink:href="#DejaVuSans-44"/>
      <use xlink:href="#DejaVuSans-72" x="77.001953"/>
      <use xlink:href="#DejaVuSans-75" x="118.115234"/>
      <use xlink:href="#DejaVuSans-67" x="181.494141"/>
      <use xlink:href="#DejaVuSans-20" x="244.970703"/>
      <use xlink:href="#DejaVuSans-63" x="276.757812"/>
      <use xlink:href="#DejaVuSans-6f" x="331.738281"/>
      <use xlink:href="#DejaVuSans-6e" x="392.919922"/>
      <use xlink:href="#DejaVuSans-63" x="456.298828"/>
      <use xlink:href="#DejaVuSans-65" x="511.279297"/>
      <use xlink:href="#DejaVuSans-6e" x="572.802734"/>
      <use xlink:href="#DejaVuSans-74" x="636.181641"/>
      <use xlink:href="#DejaVuSans-72" x="675.390625"/>
      <use xlink:href="#DejaVuSans-61" x="716.503906"/>
      <use xlink:href="#DejaVuSans-74" x="777.783203"/>
      <use xlink:href="#DejaVuSans-69" x="816.992188"/>
      <use xlink:href="#DejaVuSans-6f" x="844.775391"/>
      <use xlink:href="#DejaVuSans-6e" x="905.957031"/>
      <use xlink:href="#DejaVuSans-20" x="969.335938"/>
      <use xlink:href="#DejaVuSans-28" x="1001.123047"/>
      <use xlink:href="#DejaVuSans-6e" x="1040.136719"/>
      <use xlink:href="#DejaVuSans-4d" x="1103.515625"/>
      <use xlink:href="#DejaVuSans-29" x="1189.794922"/>
     </g>
    </g>
   </g>
   <g id="matplotlib.axis_10">
    <g id="ytick_17">
     <g id="line2d_74">
      <g>
       <use xlink:href="#m614269bc84" x="493.5345" y="293.4945" style="stroke: #000000; stroke-width: 0.8"/>
      </g>
     </g>
     <g id="text_52">
      <!-- 0.00 -->
      <g transform="translate(468.722 296.533875)scale(0.08 -0.08)">
       <use xlink:href="#DejaVuSans-30"/>
       <use xlink:href="#DejaVuSans-2e" x="63.623047"/>
       <use xlink:href="#DejaVuSans-30" x="95.410156"/>
       <use xlink:href="#DejaVuSans-30" x="159.033203"/>
      </g>
     </g>
    </g>
    <g id="ytick_18">
     <g id="line2d_75">
      <g>
       <use xlink:href="#m614269bc84" x="493.5345" y="272.491484" style="stroke: #000000; stroke-width: 0.8"/>
      </g>
     </g>
     <g id="text_53">
      <!-- 0.25 -->
      <g transform="translate(468.722 275.530859)scale(0.08 -0.08)">
       <use xlink:href="#DejaVuSans-30"/>
       <use xlink:href="#DejaVuSans-2e" x="63.623047"/>
       <use xlink:href="#DejaVuSans-32" x="95.410156"/>
       <use xlink:href="#DejaVuSans-35" x="159.033203"/>
      </g>
     </g>
    </g>
    <g id="ytick_19">
     <g id="line2d_76">
      <g>
       <use xlink:href="#m614269bc84" x="493.5345" y="251.488467" style="stroke: #000000; stroke-width: 0.8"/>
      </g>
     </g>
     <g id="text_54">
      <!-- 0.50 -->
      <g transform="translate(468.722 254.527842)scale(0.08 -0.08)">
       <use xlink:href="#DejaVuSans-30"/>
       <use xlink:href="#DejaVuSans-2e" x="63.623047"/>
       <use xlink:href="#DejaVuSans-35" x="95.410156"/>
       <use xlink:href="#DejaVuSans-30" x="159.033203"/>
      </g>
     </g>
    </g>
    <g id="ytick_20">
     <g id="line2d_77">
      <g>
       <use xlink:href="#m614269bc84" x="493.5345" y="230.485451" style="stroke: #000000; stroke-width: 0.8"/>
      </g>
     </g>
     <g id="text_55">
      <!-- 0.75 -->
      <g transform="translate(468.722 233.524826)scale(0.08 -0.08)">
       <use xlink:href="#DejaVuSans-30"/>
       <use xlink:href="#DejaVuSans-2e" x="63.623047"/>
       <use xlink:href="#DejaVuSans-37" x="95.410156"/>
       <use xlink:href="#DejaVuSans-35" x="159.033203"/>
      </g>
     </g>
    </g>
    <g id="ytick_21">
     <g id="line2d_78">
      <g>
       <use xlink:href="#m614269bc84" x="493.5345" y="209.482434" style="stroke: #000000; stroke-width: 0.8"/>
      </g>
     </g>
     <g id="text_56">
      <!-- 1.00 -->
      <g transform="translate(468.722 212.521809)scale(0.08 -0.08)">
       <use xlink:href="#DejaVuSans-31"/>
       <use xlink:href="#DejaVuSans-2e" x="63.623047"/>
       <use xlink:href="#DejaVuSans-30" x="95.410156"/>
       <use xlink:href="#DejaVuSans-30" x="159.033203"/>
      </g>
     </g>
    </g>
    <g id="text_57">
     <!-- Ionic conductance scale -->
     <g transform="translate(463.05825 299.487625)rotate(-90)scale(0.08 -0.08)">
      <defs>
       <path id="DejaVuSans-49" d="M 628 4666 
L 1259 4666 
L 1259 0 
L 628 0 
L 628 4666 
z
" transform="scale(0.015625)"/>
      </defs>
      <use xlink:href="#DejaVuSans-49"/>
      <use xlink:href="#DejaVuSans-6f" x="29.492188"/>
      <use xlink:href="#DejaVuSans-6e" x="90.673828"/>
      <use xlink:href="#DejaVuSans-69" x="154.052734"/>
      <use xlink:href="#DejaVuSans-63" x="181.835938"/>
      <use xlink:href="#DejaVuSans-20" x="236.816406"/>
      <use xlink:href="#DejaVuSans-63" x="268.603516"/>
      <use xlink:href="#DejaVuSans-6f" x="323.583984"/>
      <use xlink:href="#DejaVuSans-6e" x="384.765625"/>
      <use xlink:href="#DejaVuSans-64" x="448.144531"/>
      <use xlink:href="#DejaVuSans-75" x="511.621094"/>
      <use xlink:href="#DejaVuSans-63" x="575"/>
      <use xlink:href="#DejaVuSans-74" x="629.980469"/>
      <use xlink:href="#DejaVuSans-61" x="669.189453"/>
      <use xlink:href="#DejaVuSans-6e" x="730.46875"/>
      <use xlink:href="#DejaVuSans-63" x="793.847656"/>
      <use xlink:href="#DejaVuSans-65" x="848.828125"/>
      <use xlink:href="#DejaVuSans-20" x="910.351562"/>
      <use xlink:href="#DejaVuSans-73" x="942.138672"/>
      <use xlink:href="#DejaVuSans-63" x="994.238281"/>
      <use xlink:href="#DejaVuSans-61" x="1049.21875"/>
      <use xlink:href="#DejaVuSans-6c" x="1110.498047"/>
      <use xlink:href="#DejaVuSans-65" x="1138.28125"/>
     </g>
    </g>
   </g>
   <g id="line2d_79">
    <g clip-path="url(#p14a399d40d)">
     <use xlink:href="#mfd8f5b1875" x="498.818591" y="209.4945" style="stroke: #000000"/>
     <use xlink:href="#mfd8f5b1875" x="516.432227" y="209.603078" style="stroke: #000000"/>
     <use xlink:href="#mfd8f5b1875" x="542.449704" y="212.676592" style="stroke: #000000"/>
     <use xlink:href="#mfd8f5b1875" x="560.06334" y="229.180135" style="stroke: #000000"/>
     <use xlink:href="#mfd8f5b1875" x="569.273136" y="246.970457" style="stroke: #000000"/>
     <use xlink:href="#mfd8f5b1875" x="586.886773" y="283.063505" style="stroke: #000000"/>
     <use xlink:href="#mfd8f5b1875" x="604.500409" y="293.4945" style="stroke: #000000"/>
    </g>
   </g>
   <g id="line2d_80">
    <path d="M 498.818591 209.503207 
L 504.380792 209.52183 
L 509.942993 209.557134 
L 515.505194 209.624024 
L 521.067395 209.750618 
L 526.629596 209.989713 
L 532.191797 210.439535 
L 537.753998 211.279643 
L 543.316199 212.82747 
L 548.8784 215.609008 
L 554.4406 220.390739 
L 560.002801 228.016456 
L 565.565002 238.8328 
L 571.127203 251.874709 
L 576.689404 264.842569 
L 582.251605 275.48632 
L 587.813806 282.930588 
L 593.376007 287.573579 
L 598.938208 290.265619 
L 604.500409 291.760853 
" clip-path="url(#p14a399d40d)" style="fill: none; stroke: #000000; stroke-width: 1.5; stroke-linecap: square"/>
   </g>
   <g id="patch_15">
    <path d="M 493.5345 297.6945 
L 493.5345 205.2945 
" style="fill: none; stroke: #000000; stroke-width: 0.8; stroke-linejoin: miter; stroke-linecap: square"/>
   </g>
   <g id="patch_16">
    <path d="M 493.5345 297.6945 
L 609.7845 297.6945 
" style="fill: none; stroke: #000000; stroke-width: 0.8; stroke-linejoin: miter; stroke-linecap: square"/>
   </g>
   <g id="text_58">
    <!-- Fitted Hill curve -->
    <g transform="translate(514.03875 199.2945)scale(0.096 -0.096)">
     <defs>
      <path id="DejaVuSans-48" d="M 628 4666 
L 1259 4666 
L 1259 2753 
L 3553 2753 
L 3553 4666 
L 4184 4666 
L 4184 0 
L 3553 0 
L 3553 2222 
L 1259 2222 
L 1259 0 
L 628 0 
L 628 4666 
z
" transform="scale(0.015625)"/>
      <path id="DejaVuSans-76" d="M 191 3500 
L 800 3500 
L 1894 563 
L 2988 3500 
L 3597 3500 
L 2284 0 
L 1503 0 
L 191 3500 
z
" transform="scale(0.015625)"/>
     </defs>
     <use xlink:href="#DejaVuSans-46"/>
     <use xlink:href="#DejaVuSans-69" x="50.269531"/>
     <use xlink:href="#DejaVuSans-74" x="78.052734"/>
     <use xlink:href="#DejaVuSans-74" x="117.261719"/>
     <use xlink:href="#DejaVuSans-65" x="156.470703"/>
     <use xlink:href="#DejaVuSans-64" x="217.994141"/>
     <use xlink:href="#DejaVuSans-20" x="281.470703"/>
     <use xlink:href="#DejaVuSans-48" x="313.257812"/>
     <use xlink:href="#DejaVuSans-69" x="388.453125"/>
     <use xlink:href="#DejaVuSans-6c" x="416.236328"/>
     <use xlink:href="#DejaVuSans-6c" x="444.019531"/>
     <use xlink:href="#DejaVuSans-20" x="471.802734"/>
     <use xlink:href="#DejaVuSans-63" x="503.589844"/>
     <use xlink:href="#DejaVuSans-75" x="558.570312"/>
     <use xlink:href="#DejaVuSans-72" x="621.949219"/>
     <use xlink:href="#DejaVuSans-76" x="663.0625"/>
     <use xlink:href="#DejaVuSans-65" x="722.242188"/>
    </g>
   </g>
  </g>
 </g>
 <defs>
  <clipPath id="pf0ef2dcff6">
   <rect x="272.6595" y="20.4945" width="116.25" height="92.4"/>
  </clipPath>
  <clipPath id="pe0b827019e">
   <rect x="493.5345" y="20.4945" width="116.25" height="92.4"/>
  </clipPath>
  <clipPath id="p4da7af305a">
   <rect x="51.7845" y="205.2945" width="116.25" height="92.4"/>
  </clipPath>
  <clipPath id="p8882c65906">
   <rect x="272.6595" y="205.2945" width="116.25" height="92.4"/>
  </clipPath>
  <clipPath id="p14a399d40d">
   <rect x="493.5345" y="205.2945" width="116.25" height="92.4"/>
  </clipPath>
 </defs>
</svg>
